<?xml version="1.0" encoding="UTF-8" standalone="no"?>
<!DOCTYPE svg PUBLIC "-//W3C//DTD SVG 1.1//EN" "http://www.w3.org/Graphics/SVG/1.1/DTD/svg11.dtd">
<svg version="1.1" xmlns="http://www.w3.org/2000/svg" xmlns:xlink="http://www.w3.org/1999/xlink" preserveAspectRatio="xMidYMid meet" viewBox="0 0 640 640" width="640" height="640"><defs><path d="M477.75 256L478.02 256L478.29 256L478.56 256.01L478.82 256.01L479.08 256.01L479.33 256.01L479.58 256.02L479.83 256.02L480.08 256.03L480.32 256.03L480.56 256.04L480.8 256.04L481.03 256.05L481.26 256.06L481.49 256.06L481.71 256.07L481.94 256.08L482.16 256.09L482.37 256.1L482.59 256.11L482.8 256.12L483.01 256.13L483.21 256.14L483.42 256.15L483.62 256.16L483.82 256.17L484.02 256.18L484.21 256.2L484.4 256.21L484.59 256.23L484.78 256.24L484.97 256.25L485.15 256.27L485.33 256.29L485.51 256.3L485.69 256.32L485.86 256.34L486.04 256.36L486.24 256.38L486.44 256.4L486.64 256.42L486.84 256.45L487.04 256.47L487.23 256.5L487.42 256.53L487.61 256.55L487.79 256.58L487.97 256.61L488.15 256.64L488.33 256.67L488.51 256.7L488.68 256.74L488.85 256.77L489.02 256.8L489.19 256.84L489.35 256.87L489.52 256.91L489.68 256.95L489.84 256.99L489.99 257.02L490.15 257.06L490.3 257.11L490.45 257.15L490.6 257.19L490.75 257.23L490.89 257.28L491.03 257.32L491.17 257.37L491.31 257.42L491.45 257.47L491.59 257.51L491.72 257.57L491.85 257.62L491.98 257.67L492.11 257.72L492.24 257.78L492.37 257.83L492.49 257.89L492.51 257.89L492.53 257.9L492.55 257.91L492.69 257.98L492.83 258.05L492.97 258.12L493.11 258.19L493.24 258.26L493.37 258.34L493.5 258.41L493.63 258.48L493.76 258.56L493.88 258.63L494 258.71L494.13 258.79L494.24 258.86L494.36 258.94L494.47 259.02L494.59 259.1L494.7 259.18L494.81 259.26L494.91 259.35L495.02 259.43L495.12 259.51L495.22 259.6L495.32 259.68L495.41 259.77L495.51 259.85L495.6 259.94L495.69 260.03L495.78 260.12L495.87 260.21L495.95 260.3L496.03 260.39L496.11 260.48L496.19 260.57L496.26 260.66L496.34 260.76L496.41 260.85L496.48 260.95L496.55 261.04L496.61 261.14L496.68 261.24L496.74 261.34L496.8 261.44L496.87 261.54L496.93 261.65L496.99 261.75L497.04 261.85L497.1 261.96L497.15 262.06L497.2 262.17L497.25 262.28L497.3 262.38L497.35 262.49L497.4 262.6L497.44 262.71L497.48 262.81L497.52 262.92L497.56 263.03L497.6 263.14L497.63 263.26L497.67 263.37L497.7 263.48L497.73 263.59L497.76 263.7L497.79 263.82L497.81 263.93L497.84 264.05L497.86 264.16L497.88 264.27L497.9 264.39L497.92 264.51L497.93 264.62L497.95 264.74L497.96 264.86L497.97 264.98L497.98 265.09L497.99 265.21L497.99 265.33L498 265.45L498 265.57L498 265.69L498 427.85L498 428.04L498 428.23L497.99 428.42L497.99 428.62L497.98 428.81L497.97 428.99L497.96 429.18L497.94 429.37L497.93 429.56L497.91 429.75L497.89 429.93L497.87 430.12L497.85 430.3L497.82 430.49L497.8 430.67L497.77 430.85L497.74 431.04L497.71 431.22L497.67 431.4L497.64 431.58L497.6 431.76L497.56 431.94L497.52 432.12L497.48 432.29L497.43 432.47L497.39 432.65L497.34 432.82L497.29 432.99L497.24 433.17L497.18 433.34L497.13 433.51L497.07 433.69L497.01 433.86L496.95 434.03L496.89 434.2L496.82 434.36L496.76 434.53L496.69 434.7L496.62 434.86L496.55 435.03L496.55 435.04L496.54 435.06L496.53 435.07L496.52 435.09L496.51 435.11L496.5 435.14L496.42 435.3L496.34 435.46L496.26 435.62L496.18 435.78L496.09 435.93L496.01 436.09L495.92 436.24L495.84 436.39L495.75 436.54L495.66 436.69L495.57 436.84L495.48 436.98L495.38 437.13L495.29 437.27L495.19 437.41L495.09 437.55L495 437.69L494.9 437.83L494.79 437.97L494.69 438.1L494.59 438.23L494.48 438.37L494.37 438.5L494.27 438.63L494.16 438.76L494.05 438.89L493.93 439.01L493.82 439.14L493.7 439.26L493.59 439.39L493.47 439.51L493.35 439.63L493.23 439.75L493.11 439.87L492.98 439.99L492.86 440.1L492.73 440.22L492.6 440.33L492.47 440.44L492.34 440.56L492.21 440.66L492.08 440.77L491.95 440.88L491.82 440.98L491.68 441.08L491.55 441.18L491.41 441.28L491.27 441.38L491.13 441.48L490.99 441.57L490.85 441.67L490.71 441.76L490.56 441.85L490.42 441.94L490.27 442.03L490.12 442.11L489.97 442.2L489.82 442.28L489.67 442.36L489.52 442.45L489.37 442.53L489.21 442.6L489.06 442.68L488.9 442.75L488.74 442.83L488.58 442.9L488.42 442.97L488.26 443.04L488.1 443.11L487.94 443.17L487.77 443.24L487.61 443.3L487.44 443.36L487.27 443.42L487.1 443.48L486.93 443.54L486.76 443.6L486.59 443.65L486.42 443.7L486.24 443.76L486.08 443.8L485.91 443.85L485.75 443.89L485.58 443.93L485.42 443.97L485.25 444.01L485.09 444.05L484.92 444.09L484.76 444.13L484.59 444.16L484.43 444.2L484.26 444.23L484.1 444.26L483.94 444.29L483.77 444.32L483.61 444.35L483.44 444.38L483.28 444.4L483.11 444.43L482.95 444.45L482.78 444.47L482.62 444.49L482.45 444.51L482.29 444.53L482.12 444.55L481.95 444.57L481.79 444.58L481.62 444.6L481.45 444.61L481.29 444.62L481.12 444.63L480.95 444.64L480.78 444.65L480.62 444.66L480.45 444.66L480.28 444.67L480.11 444.67L479.94 444.68L479.77 444.68L479.6 444.68L463.14 444.68L462.86 444.68L462.59 444.68L462.31 444.67L462.04 444.67L461.77 444.66L461.5 444.65L461.24 444.65L460.97 444.64L460.71 444.62L460.44 444.61L460.18 444.6L459.92 444.58L459.66 444.56L459.4 444.55L459.15 444.53L458.89 444.51L458.64 444.48L458.39 444.46L458.14 444.44L457.89 444.41L457.64 444.38L457.4 444.35L457.15 444.32L456.91 444.29L456.67 444.26L456.43 444.22L456.19 444.19L455.96 444.15L455.72 444.11L455.49 444.08L455.26 444.03L455.03 443.99L454.8 443.95L454.58 443.9L454.35 443.86L454.13 443.81L453.91 443.76L453.69 443.71L453.47 443.66L453.25 443.61L453.23 443.6L453.21 443.6L453.18 443.59L453.16 443.58L452.94 443.52L452.71 443.46L452.49 443.39L452.27 443.32L452.05 443.25L451.83 443.18L451.61 443.1L451.39 443.02L451.17 442.94L450.95 442.86L450.74 442.77L450.52 442.68L450.3 442.59L450.09 442.5L449.88 442.4L449.67 442.31L449.45 442.21L449.24 442.1L449.04 442L448.83 441.89L448.62 441.78L448.41 441.67L448.21 441.56L448 441.44L447.8 441.32L447.6 441.2L447.39 441.08L447.19 440.96L446.99 440.83L446.79 440.7L446.6 440.57L446.4 440.43L446.2 440.3L446.01 440.16L445.82 440.02L445.62 439.88L445.43 439.73L445.24 439.58L445.05 439.43L444.86 439.28L444.68 439.14L444.5 438.99L444.32 438.84L444.14 438.69L443.97 438.53L443.79 438.37L443.61 438.21L443.43 438.05L443.26 437.89L443.08 437.72L442.91 437.55L442.73 437.37L442.56 437.2L442.38 437.02L442.21 436.84L442.04 436.66L441.87 436.47L441.69 436.28L441.52 436.09L441.35 435.9L441.18 435.7L441.01 435.5L440.84 435.3L440.67 435.09L440.5 434.89L440.33 434.68L440.16 434.46L439.99 434.25L439.82 434.03L439.65 433.81L439.48 433.58L439.32 433.36L439.15 433.13L438.98 432.89L438.81 432.66L438.65 432.42L438.48 432.18L438.31 431.93L438.15 431.69L437.98 431.44L437.83 431.21L437.68 430.99L437.53 430.76L437.38 430.52L437.22 430.29L437.07 430.05L436.91 429.81L436.76 429.56L436.6 429.31L436.44 429.06L436.29 428.8L436.13 428.54L435.97 428.28L435.8 428.01L435.64 427.74L435.48 427.47L435.31 427.19L435.15 426.91L434.98 426.62L434.81 426.33L434.64 426.04L434.47 425.75L434.3 425.45L434.13 425.15L433.96 424.84L433.78 424.53L433.6 424.21L433.43 423.9L433.25 423.58L433.07 423.25L432.89 422.92L432.71 422.59L432.52 422.25L432.34 421.91L432.15 421.57L431.97 421.22L431.78 420.87L431.59 420.51L431.4 420.15L431.21 419.79L410.14 382.04L410.01 382.1L386.39 339.87L386.56 339.79L384.14 335.47L383.96 335.13L383.78 334.8L383.6 334.46L383.41 334.12L383.23 333.78L383.04 333.43L382.86 333.09L382.67 332.74L382.48 332.38L382.3 332.03L382.11 331.67L381.92 331.31L381.73 330.95L381.53 330.58L381.34 330.21L381.15 329.84L380.95 329.46L380.76 329.08L380.56 328.7L380.36 328.32L380.16 327.93L379.96 327.53L379.76 327.14L379.55 326.74L379.35 326.34L379.14 325.93L378.93 325.52L378.72 325.1L378.51 324.68L378.3 324.26L378.08 323.84L377.87 323.4L377.65 322.97L377.43 322.53L377.21 322.09L376.99 321.64L376.76 321.19L376.54 320.73L376.31 320.27L376.08 319.8L376.08 319.87L376.08 319.93L376.09 320.03L376.09 320.08L376.1 320.32L376.1 320.45L376.11 320.94L376.13 321.44L376.14 321.94L376.16 322.44L376.17 322.94L376.18 323.45L376.2 323.95L376.21 324.46L376.22 324.96L376.23 325.47L376.24 325.98L376.25 326.49L376.26 327L376.27 327.51L376.28 328.02L376.29 328.54L376.3 329.05L376.31 329.57L376.32 330.08L376.33 330.6L376.33 331.12L376.34 331.64L376.35 332.16L376.35 332.68L376.36 333.2L376.36 333.72L376.37 334.24L376.37 334.77L376.38 335.29L376.38 335.82L376.39 336.34L376.39 336.87L376.39 337.4L376.39 337.93L376.4 338.46L376.4 338.99L376.4 339.52L376.4 340.05L376.4 340.58L376.4 341.11L376.4 435.56L376.4 435.68L376.4 435.81L376.39 435.93L376.39 436.06L376.38 436.18L376.37 436.31L376.35 436.43L376.34 436.55L376.32 436.68L376.31 436.8L376.29 436.92L376.26 437.04L376.24 437.16L376.22 437.28L376.19 437.4L376.16 437.52L376.13 437.64L376.09 437.76L376.06 437.87L376.02 437.99L375.98 438.11L375.94 438.22L375.9 438.34L375.86 438.45L375.81 438.56L375.77 438.68L375.72 438.79L375.67 438.9L375.61 439.01L375.56 439.12L375.5 439.23L375.44 439.34L375.38 439.45L375.32 439.55L375.26 439.66L375.19 439.76L375.13 439.87L375.06 439.97L374.99 440.07L374.92 440.17L374.9 440.19L374.88 440.22L374.87 440.24L374.85 440.27L374.77 440.36L374.7 440.45L374.62 440.55L374.54 440.64L374.46 440.73L374.38 440.82L374.29 440.91L374.21 440.99L374.12 441.08L374.03 441.17L373.94 441.25L373.84 441.33L373.75 441.42L373.65 441.5L373.55 441.58L373.45 441.66L373.34 441.74L373.24 441.82L373.13 441.9L373.02 441.97L372.91 442.05L372.8 442.13L372.68 442.2L372.57 442.27L372.45 442.35L372.33 442.42L372.2 442.49L372.08 442.56L371.95 442.63L371.82 442.7L371.69 442.77L371.56 442.83L371.43 442.9L371.29 442.96L371.15 443.03L371.01 443.09L370.87 443.16L370.72 443.22L370.57 443.28L370.43 443.34L370.31 443.39L370.18 443.43L370.06 443.48L369.93 443.53L369.81 443.57L369.68 443.62L369.55 443.66L369.42 443.7L369.28 443.75L369.15 443.79L369.01 443.83L368.87 443.87L368.73 443.91L368.58 443.95L368.44 443.99L368.29 444.03L368.14 444.06L367.99 444.1L367.83 444.14L367.68 444.17L367.52 444.21L367.36 444.25L367.2 444.28L367.03 444.31L366.87 444.35L366.7 444.38L366.53 444.41L366.35 444.44L366.17 444.48L366 444.51L365.81 444.54L365.63 444.57L365.45 444.6L365.26 444.62L365.07 444.65L364.87 444.68L364.68 444.71L364.48 444.74L364.27 444.76L364.07 444.79L363.89 444.81L363.7 444.83L363.52 444.86L363.33 444.88L363.13 444.9L362.94 444.92L362.74 444.94L362.54 444.95L362.34 444.97L362.14 444.99L361.93 445.01L361.72 445.02L361.51 445.04L361.29 445.05L361.08 445.07L360.86 445.08L360.64 445.1L360.41 445.11L360.19 445.12L359.96 445.13L359.73 445.15L359.49 445.16L359.26 445.17L359.02 445.18L358.78 445.18L358.54 445.19L358.29 445.2L358.04 445.21L357.8 445.21L357.54 445.22L357.29 445.23L357.03 445.23L356.77 445.24L356.51 445.24L356.25 445.24L355.98 445.25L355.72 445.25L355.45 445.25L355.17 445.25L354.9 445.25L354.63 445.25L354.36 445.25L354.1 445.25L353.83 445.25L353.57 445.24L353.31 445.24L353.06 445.24L352.8 445.23L352.55 445.23L352.3 445.22L352.05 445.21L351.8 445.21L351.56 445.2L351.32 445.19L351.08 445.18L350.84 445.18L350.61 445.17L350.37 445.16L350.14 445.15L349.91 445.13L349.69 445.12L349.46 445.11L349.24 445.1L349.02 445.08L348.81 445.07L348.59 445.05L348.38 445.04L348.17 445.02L347.96 445.01L347.76 444.99L347.55 444.97L347.35 444.95L347.15 444.94L346.96 444.92L346.76 444.9L346.57 444.88L346.38 444.86L346.19 444.83L346.01 444.81L345.83 444.79L345.63 444.76L345.43 444.74L345.24 444.71L345.04 444.68L344.85 444.66L344.67 444.63L344.48 444.6L344.3 444.57L344.12 444.54L343.94 444.51L343.77 444.48L343.59 444.45L343.42 444.42L343.26 444.39L343.09 444.35L342.93 444.32L342.77 444.29L342.61 444.25L342.45 444.22L342.29 444.18L342.14 444.15L341.99 444.11L341.84 444.07L341.7 444.04L341.55 444L341.41 443.96L341.27 443.92L341.13 443.88L340.99 443.84L340.86 443.8L340.72 443.76L340.59 443.72L340.46 443.67L340.34 443.63L340.21 443.59L340.09 443.54L339.96 443.49L339.84 443.45L339.72 443.4L339.61 443.35L339.46 443.3L339.31 443.24L339.16 443.18L339.01 443.12L338.87 443.05L338.73 442.99L338.59 442.92L338.45 442.85L338.32 442.79L338.18 442.72L338.05 442.64L337.92 442.57L337.79 442.5L337.67 442.42L337.54 442.34L337.42 442.26L337.3 442.18L337.18 442.1L337.06 442.02L336.95 441.94L336.84 441.85L336.73 441.77L336.62 441.68L336.51 441.59L336.41 441.5L336.31 441.41L336.21 441.32L336.11 441.22L336.02 441.13L335.92 441.03L335.83 440.94L335.75 440.84L335.66 440.74L335.58 440.64L335.49 440.54L335.42 440.43L335.34 440.33L335.26 440.23L335.19 440.12L335.12 440.01L335.06 439.91L334.99 439.81L334.93 439.71L334.87 439.61L334.82 439.5L334.76 439.4L334.7 439.3L334.65 439.19L334.6 439.09L334.55 438.98L334.5 438.87L334.45 438.76L334.41 438.66L334.36 438.55L334.32 438.44L334.28 438.33L334.24 438.22L334.2 438.11L334.17 437.99L334.13 437.88L334.1 437.77L334.07 437.66L334.04 437.54L334.01 437.43L333.99 437.31L333.96 437.2L333.94 437.08L333.92 436.97L333.9 436.85L333.88 436.74L333.87 436.62L333.85 436.5L333.84 436.39L333.83 436.27L333.82 436.15L333.81 436.03L333.81 435.91L333.8 435.8L333.8 435.68L333.8 435.56L333.8 273.4L333.8 272.99L333.81 272.59L333.83 272.19L333.85 271.79L333.88 271.4L333.92 271.01L333.96 270.63L334.02 270.25L334.07 269.88L334.14 269.51L334.21 269.15L334.29 268.79L334.37 268.44L334.47 268.09L334.56 267.75L334.67 267.41L334.78 267.08L334.9 266.75L335.03 266.42L335.16 266.1L335.3 265.79L335.44 265.48L335.6 265.17L335.76 264.87L335.92 264.58L336.09 264.29L336.27 264L336.46 263.72L336.65 263.44L336.85 263.17L337.06 262.91L337.27 262.65L337.49 262.39L337.72 262.14L337.95 261.89L338.19 261.65L338.44 261.41L338.69 261.18L338.95 260.96L339.22 260.74L339.47 260.53L339.72 260.33L339.98 260.14L340.24 259.95L340.51 259.77L340.78 259.59L341.05 259.41L341.32 259.24L341.6 259.08L341.88 258.92L342.16 258.77L342.45 258.62L342.74 258.48L343.03 258.34L343.33 258.21L343.62 258.08L343.93 257.96L344.23 257.84L344.54 257.73L344.85 257.62L345.16 257.52L345.48 257.42L345.8 257.33L346.12 257.24L346.44 257.16L346.77 257.09L347.1 257.02L347.43 256.95L347.77 256.89L348.11 256.83L348.45 256.78L348.79 256.74L349.14 256.7L349.49 256.67L349.84 256.64L350.2 256.61L350.56 256.59L350.92 256.58L351.28 256.57L351.65 256.57L372.31 256.57L372.62 256.57L372.93 256.57L373.23 256.58L373.54 256.58L373.83 256.59L374.13 256.59L374.42 256.6L374.71 256.61L375 256.62L375.29 256.63L375.57 256.65L375.85 256.66L376.13 256.68L376.4 256.69L376.67 256.71L376.94 256.73L377.21 256.75L377.47 256.77L377.73 256.8L377.99 256.82L378.25 256.85L378.5 256.88L378.76 256.9L379.01 256.93L379.25 256.97L379.5 257L379.74 257.03L379.98 257.07L380.22 257.1L380.45 257.14L380.69 257.18L380.92 257.22L381.14 257.26L381.37 257.3L381.59 257.35L381.82 257.39L382.04 257.44L382.25 257.49L382.47 257.54L382.68 257.59L382.91 257.64L383.13 257.7L383.35 257.76L383.57 257.82L383.79 257.88L384.01 257.95L384.23 258.01L384.45 258.08L384.66 258.15L384.88 258.22L385.09 258.3L385.3 258.37L385.51 258.45L385.73 258.53L385.94 258.61L386.14 258.69L386.35 258.77L386.56 258.86L386.76 258.95L386.97 259.03L387.17 259.12L387.37 259.22L387.57 259.31L387.77 259.41L387.97 259.51L388.17 259.6L388.36 259.71L388.56 259.81L388.75 259.91L388.95 260.02L389.14 260.13L389.33 260.24L389.52 260.35L389.71 260.46L389.89 260.58L390.08 260.69L390.26 260.81L390.45 260.93L390.63 261.05L390.81 261.18L390.99 261.3L391.16 261.43L391.34 261.55L391.52 261.69L391.69 261.82L391.87 261.95L392.04 262.09L392.21 262.23L392.39 262.38L392.56 262.52L392.73 262.67L392.9 262.82L393.07 262.97L393.24 263.12L393.41 263.28L393.58 263.44L393.75 263.6L393.91 263.76L394.08 263.93L394.25 264.09L394.41 264.26L394.58 264.44L394.74 264.61L394.9 264.79L395.06 264.97L395.23 265.15L395.39 265.33L395.55 265.52L395.71 265.7L395.86 265.89L396.02 266.08L396.18 266.28L396.33 266.48L396.49 266.67L396.64 266.87L396.8 267.08L396.95 267.28L397.1 267.49L397.26 267.7L397.41 267.91L397.54 268.09L397.67 268.28L397.8 268.47L397.94 268.66L398.07 268.86L398.21 269.06L398.34 269.26L398.48 269.46L398.61 269.66L398.75 269.87L398.88 270.08L399.02 270.3L399.16 270.51L399.3 270.73L399.43 270.95L399.57 271.18L399.71 271.41L399.85 271.64L399.99 271.87L400.13 272.11L400.27 272.34L400.41 272.59L400.55 272.83L400.7 273.08L400.84 273.33L400.98 273.58L401.13 273.84L401.27 274.09L401.42 274.36L401.56 274.62L401.71 274.89L401.86 275.16L402 275.43L402.15 275.71L402.3 275.99L402.45 276.27L402.6 276.56L402.75 276.85L402.9 277.14L403.05 277.43L439.9 343.37L439.9 343.38L439.91 343.39L439.93 343.42L439.98 343.52L440.03 343.62L440.08 343.72L440.14 343.81L440.19 343.91L440.24 344.01L440.3 344.11L440.35 344.21L440.4 344.31L440.45 344.4L440.51 344.5L440.56 344.6L440.61 344.7L440.67 344.8L440.77 344.99L440.88 345.19L440.93 345.29L440.98 345.38L441.03 345.48L441.14 345.68L441.19 345.78L441.24 345.87L441.35 346.07L441.4 346.17L441.51 346.36L441.56 346.46L441.66 346.66L441.82 346.95L441.93 347.15L442.03 347.34L442.25 347.75L442.36 347.95L442.47 348.15L442.57 348.35L442.68 348.55L442.79 348.75L442.9 348.95L443 349.15L443.11 349.35L443.22 349.55L443.32 349.75L443.43 349.95L443.54 350.15L443.64 350.34L443.75 350.54L443.85 350.74L443.96 350.93L444.07 351.13L444.17 351.32L444.28 351.52L444.38 351.71L444.49 351.91L444.59 352.1L444.7 352.3L444.8 352.49L444.91 352.69L445.01 352.88L445.12 353.08L445.22 353.27L445.33 353.46L445.43 353.66L445.54 353.85L445.64 354.04L445.75 354.24L445.85 354.43L445.96 354.62L446.06 354.82L446.17 355.01L446.27 355.2L446.46 355.55L446.65 355.9L446.84 356.24L447.02 356.58L447.2 356.92L447.38 357.25L447.56 357.58L447.73 357.9L447.91 358.22L448.08 358.54L448.24 358.85L448.41 359.16L448.57 359.47L448.74 359.78L448.9 360.08L449.05 360.38L449.21 360.67L449.37 360.97L449.52 361.26L449.67 361.55L449.82 361.83L449.97 362.11L450.11 362.39L450.26 362.67L450.4 362.95L450.54 363.22L450.68 363.5L450.82 363.77L450.96 364.04L451.09 364.3L451.23 364.57L451.36 364.83L451.5 365.1L451.63 365.36L451.76 365.62L451.89 365.88L452.02 366.13L452.14 366.39L452.27 366.64L452.4 366.9L452.48 367.06L452.56 367.22L452.64 367.39L452.73 367.55L452.81 367.71L452.89 367.88L452.97 368.04L453.05 368.2L453.14 368.36L453.22 368.53L453.3 368.69L453.38 368.85L453.46 369.01L453.55 369.18L453.63 369.34L453.71 369.5L453.79 369.66L453.87 369.83L453.95 369.99L454.04 370.15L454.12 370.31L454.2 370.47L454.28 370.64L454.36 370.8L454.44 370.96L454.52 371.12L454.61 371.28L454.69 371.44L454.77 371.61L454.85 371.77L454.93 371.93L455.01 372.09L455.09 372.25L455.17 372.41L455.25 372.58L455.34 372.74L455.42 372.9L455.5 373.06L455.58 373.22L455.66 373.39L455.66 373.25L455.65 373.12L455.65 373.05L455.65 372.92L455.64 372.79L455.64 372.65L455.64 372.52L455.64 372.45L455.63 372.32L455.63 372.19L455.63 372.06L455.62 371.92L455.62 371.79L455.62 371.66L455.62 371.59L455.61 371.46L455.61 371.33L455.61 371.19L455.61 371.06L455.6 370.93L455.6 370.8L455.6 370.73L455.59 370.25L455.58 369.77L455.57 369.29L455.56 368.8L455.55 368.32L455.54 367.83L455.53 367.35L455.53 366.86L455.52 366.37L455.51 365.88L455.5 365.38L455.49 364.89L455.49 364.4L455.48 363.9L455.47 363.4L455.47 362.9L455.46 362.4L455.46 361.9L455.45 361.4L455.45 360.89L455.44 360.38L455.44 359.88L455.43 359.37L455.43 358.85L455.42 358.34L455.42 357.82L455.42 357.31L455.41 356.79L455.41 356.26L455.41 355.74L455.41 355.21L455.4 354.69L455.4 354.16L455.4 353.63L455.4 353.09L455.4 352.55L455.4 352.02L455.4 351.48L455.4 350.93L455.4 350.39L455.4 265.69L455.4 265.56L455.4 265.44L455.41 265.31L455.41 265.18L455.42 265.06L455.44 264.93L455.45 264.81L455.47 264.68L455.48 264.55L455.5 264.43L455.53 264.31L455.55 264.18L455.58 264.06L455.61 263.94L455.64 263.81L455.67 263.69L455.7 263.57L455.74 263.45L455.78 263.33L455.82 263.21L455.86 263.09L455.91 262.97L455.96 262.86L456.01 262.74L456.06 262.62L456.11 262.51L456.17 262.39L456.22 262.28L456.28 262.16L456.34 262.05L456.41 261.94L456.47 261.83L456.54 261.72L456.61 261.61L456.68 261.5L456.75 261.39L456.83 261.28L456.9 261.18L456.98 261.07L457.06 260.97L457.14 260.87L457.21 260.78L457.29 260.69L457.37 260.6L457.45 260.51L457.53 260.42L457.62 260.34L457.7 260.25L457.79 260.16L457.88 260.08L457.97 259.99L458.07 259.91L458.17 259.82L458.26 259.74L458.37 259.66L458.47 259.58L458.57 259.5L458.68 259.42L458.79 259.34L458.9 259.26L459.01 259.18L459.12 259.1L459.24 259.03L459.36 258.95L459.48 258.88L459.6 258.8L459.72 258.73L459.85 258.65L459.98 258.58L460.11 258.51L460.24 258.44L460.37 258.37L460.51 258.3L460.65 258.23L460.78 258.17L460.93 258.1L461.07 258.03L461.21 257.97L461.36 257.9L461.51 257.84L461.56 257.82L461.69 257.77L461.82 257.72L461.95 257.67L462.09 257.62L462.22 257.57L462.36 257.52L462.5 257.47L462.64 257.43L462.79 257.38L462.93 257.34L463.08 257.29L463.22 257.25L463.37 257.21L463.53 257.16L463.68 257.12L463.83 257.08L463.99 257.04L464.15 257.01L464.31 256.97L464.47 256.93L464.64 256.9L464.8 256.86L464.97 256.83L465.14 256.79L465.31 256.76L465.48 256.73L465.66 256.7L465.84 256.66L466.02 256.63L466.2 256.61L466.38 256.58L466.56 256.55L466.75 256.52L466.94 256.5L467.13 256.47L467.32 256.45L467.52 256.42L467.71 256.4L467.91 256.38L468.11 256.36L468.29 256.34L468.46 256.32L468.64 256.3L468.82 256.29L469 256.27L469.19 256.26L469.37 256.24L469.56 256.23L469.76 256.21L469.95 256.2L470.15 256.18L470.35 256.17L470.55 256.16L470.76 256.15L470.97 256.14L471.18 256.13L471.39 256.12L471.61 256.11L471.83 256.1L472.05 256.09L472.28 256.08L472.51 256.07L472.74 256.06L472.98 256.06L473.21 256.05L473.46 256.04L473.7 256.04L473.95 256.03L474.2 256.03L474.46 256.02L474.71 256.02L474.98 256.01L475.24 256.01L475.51 256.01L475.78 256.01L476.06 256L476.34 256L476.62 256L476.91 256L477.2 256L477.48 256L477.75 256ZM292.41 194.94L292.59 194.95L292.76 194.96L292.93 194.97L293.1 194.98L293.27 195L293.44 195.02L293.61 195.04L293.78 195.06L293.95 195.08L294.11 195.11L294.28 195.14L294.45 195.17L294.61 195.21L294.78 195.24L294.94 195.28L295.1 195.32L295.27 195.37L295.43 195.41L295.59 195.46L295.75 195.51L295.91 195.56L296.07 195.62L296.22 195.68L296.38 195.74L296.54 195.8L296.69 195.86L296.84 195.93L297 196L297.15 196.07L297.3 196.14L297.45 196.21L297.6 196.29L297.74 196.37L297.89 196.45L298.03 196.54L298.18 196.62L298.32 196.71L298.46 196.8L298.48 196.81L298.51 196.83L298.54 196.85L298.58 196.88L298.61 196.9L298.74 196.99L298.86 197.09L298.99 197.18L299.11 197.28L299.23 197.37L299.35 197.47L299.47 197.58L299.59 197.68L299.71 197.79L299.82 197.9L299.94 198.01L300.05 198.12L300.16 198.24L300.27 198.35L300.38 198.47L300.49 198.59L300.6 198.72L300.7 198.84L300.81 198.97L300.91 199.1L301.02 199.23L301.12 199.37L301.22 199.5L301.32 199.64L301.41 199.78L301.51 199.92L301.61 200.07L301.7 200.22L301.79 200.36L301.88 200.51L301.97 200.67L302.06 200.82L302.15 200.98L302.24 201.14L302.32 201.3L302.41 201.46L302.49 201.62L302.57 201.79L302.65 201.96L302.73 202.13L302.74 202.15L302.75 202.17L302.76 202.18L302.77 202.21L302.78 202.23L302.78 202.25L302.79 202.26L302.8 202.29L302.81 202.3L302.82 202.33L302.83 202.35L302.89 202.51L302.95 202.67L303.01 202.83L303.07 202.99L303.13 203.15L303.19 203.32L303.24 203.48L303.3 203.64L303.36 203.81L303.41 203.98L303.46 204.14L303.52 204.31L303.57 204.48L303.62 204.65L303.67 204.82L303.72 204.99L303.76 205.16L303.81 205.34L303.86 205.51L303.9 205.68L303.95 205.86L303.99 206.03L304.04 206.21L304.08 206.39L304.12 206.57L304.16 206.75L304.2 206.93L304.24 207.11L304.28 207.29L304.31 207.47L304.35 207.65L304.38 207.84L304.42 208.02L304.45 208.21L304.48 208.39L304.51 208.58L304.54 208.76L304.57 208.95L304.6 209.14L304.63 209.33L304.66 209.52L304.68 209.72L304.71 209.92L304.73 210.12L304.76 210.33L304.78 210.53L304.8 210.74L304.83 210.95L304.85 211.17L304.87 211.38L304.89 211.6L304.91 211.82L304.93 212.05L304.94 212.27L304.96 212.5L304.98 212.73L304.99 212.97L305.01 213.2L305.02 213.44L305.03 213.69L305.05 213.93L305.06 214.18L305.07 214.43L305.08 214.69L305.09 214.95L305.1 215.21L305.11 215.47L305.12 215.74L305.13 216.01L305.13 216.28L305.14 216.56L305.14 216.84L305.15 217.13L305.15 217.41L305.16 217.71L305.16 218L305.16 218.3L305.16 218.6L305.16 218.91L305.16 219.22L305.16 219.51L305.16 219.8L305.16 220.08L305.16 220.36L305.16 220.64L305.15 220.92L305.15 221.19L305.14 221.46L305.14 221.72L305.13 221.99L305.13 222.25L305.12 222.51L305.11 222.76L305.1 223.01L305.09 223.26L305.08 223.51L305.07 223.75L305.06 223.99L305.05 224.23L305.03 224.47L305.02 224.7L305.01 224.93L304.99 225.16L304.98 225.38L304.96 225.61L304.94 225.83L304.93 226.05L304.91 226.27L304.89 226.48L304.87 226.69L304.85 226.9L304.83 227.11L304.81 227.32L304.78 227.52L304.76 227.73L304.74 227.93L304.71 228.13L304.69 228.33L304.66 228.52L304.63 228.71L304.6 228.94L304.57 229.16L304.53 229.38L304.5 229.6L304.46 229.82L304.42 230.03L304.39 230.24L304.35 230.44L304.31 230.65L304.27 230.85L304.23 231.05L304.19 231.24L304.15 231.44L304.11 231.63L304.06 231.82L304.02 232L303.98 232.19L303.93 232.37L303.88 232.55L303.84 232.72L303.79 232.9L303.74 233.07L303.69 233.24L303.64 233.41L303.59 233.58L303.54 233.74L303.49 233.9L303.43 234.06L303.38 234.22L303.32 234.38L303.27 234.53L303.21 234.68L303.15 234.83L303.09 234.98L303.03 235.13L302.97 235.28L302.91 235.42L302.84 235.56L302.78 235.7L302.72 235.84L302.64 236L302.56 236.16L302.49 236.32L302.41 236.47L302.33 236.63L302.25 236.78L302.16 236.93L302.08 237.08L302 237.23L301.91 237.38L301.82 237.52L301.74 237.66L301.65 237.8L301.56 237.94L301.46 238.08L301.37 238.22L301.28 238.35L301.18 238.48L301.09 238.61L300.99 238.74L300.89 238.87L300.79 239L300.69 239.12L300.59 239.24L300.48 239.36L300.38 239.48L300.27 239.6L300.17 239.71L300.06 239.82L299.95 239.94L299.84 240.05L299.73 240.15L299.62 240.26L299.51 240.36L299.39 240.47L299.28 240.57L299.16 240.67L299.04 240.76L298.93 240.86L298.81 240.95L298.8 240.95L298.79 240.96L298.77 240.98L298.75 240.99L298.73 241.01L298.71 241.02L298.7 241.03L298.68 241.05L298.66 241.06L298.52 241.16L298.37 241.26L298.23 241.35L298.08 241.45L297.93 241.54L297.78 241.62L297.63 241.71L297.48 241.79L297.33 241.87L297.17 241.95L297.02 242.03L296.86 242.1L296.7 242.17L296.55 242.24L296.39 242.3L296.22 242.37L296.06 242.43L295.9 242.49L295.73 242.54L295.57 242.6L295.4 242.65L295.23 242.69L295.06 242.74L294.89 242.78L294.72 242.82L294.55 242.86L294.38 242.9L294.21 242.93L294.03 242.96L293.86 242.99L293.68 243.01L293.5 243.04L293.33 243.06L293.15 243.07L292.97 243.09L292.79 243.1L292.61 243.11L292.43 243.12L292.25 243.12L292.07 243.12L203.22 243.12L203.22 291.92L277.23 291.92L277.42 291.92L277.6 291.92L277.79 291.93L277.97 291.94L278.15 291.95L278.33 291.96L278.51 291.98L278.69 292L278.87 292.02L279.04 292.04L279.22 292.07L279.39 292.1L279.57 292.13L279.74 292.16L279.91 292.2L280.08 292.24L280.25 292.28L280.41 292.33L280.58 292.37L280.75 292.42L280.91 292.47L281.08 292.53L281.24 292.58L281.4 292.64L281.56 292.7L281.72 292.77L281.88 292.83L282.03 292.9L282.19 292.97L282.34 293.05L282.5 293.13L282.65 293.2L282.8 293.29L282.95 293.37L283.1 293.46L283.24 293.54L283.39 293.64L283.54 293.73L283.68 293.83L283.82 293.92L283.96 294.02L284.09 294.11L284.22 294.21L284.35 294.3L284.48 294.4L284.6 294.5L284.73 294.6L284.85 294.71L284.97 294.81L285.09 294.92L285.21 295.03L285.33 295.14L285.44 295.25L285.56 295.37L285.67 295.49L285.78 295.6L285.89 295.72L286 295.84L286.11 295.97L286.22 296.09L286.32 296.22L286.42 296.35L286.53 296.48L286.63 296.61L286.73 296.75L286.82 296.89L286.92 297.02L287.02 297.16L287.11 297.31L287.2 297.45L287.29 297.6L287.38 297.75L287.47 297.9L287.56 298.05L287.65 298.2L287.73 298.36L287.82 298.52L287.9 298.68L287.98 298.84L288.06 299L288.13 299.14L288.19 299.28L288.26 299.42L288.32 299.56L288.38 299.71L288.45 299.85L288.51 300L288.57 300.15L288.63 300.3L288.68 300.46L288.74 300.61L288.8 300.77L288.85 300.93L288.91 301.09L288.96 301.25L289.01 301.42L289.06 301.59L289.11 301.76L289.16 301.93L289.21 302.11L289.26 302.29L289.31 302.46L289.35 302.65L289.4 302.83L289.44 303.02L289.49 303.21L289.53 303.4L289.57 303.59L289.61 303.79L289.65 303.99L289.69 304.19L289.73 304.4L289.77 304.6L289.8 304.81L289.84 305.03L289.88 305.24L289.91 305.46L289.94 305.68L289.98 305.9L290.01 306.13L290.04 306.32L290.06 306.51L290.09 306.7L290.11 306.89L290.14 307.09L290.16 307.28L290.18 307.48L290.2 307.69L290.22 307.89L290.24 308.1L290.26 308.31L290.28 308.52L290.3 308.73L290.32 308.95L290.33 309.17L290.35 309.39L290.37 309.62L290.38 309.84L290.4 310.07L290.41 310.3L290.42 310.54L290.43 310.78L290.45 311.02L290.46 311.26L290.47 311.5L290.48 311.75L290.49 312L290.49 312.25L290.5 312.51L290.51 312.77L290.51 313.03L290.52 313.29L290.52 313.56L290.53 313.83L290.53 314.1L290.54 314.37L290.54 314.65L290.54 314.93L290.54 315.21L290.54 315.5L290.54 315.8L290.54 316.1L290.54 316.4L290.54 316.69L290.53 316.98L290.53 317.27L290.53 317.55L290.52 317.83L290.51 318.1L290.51 318.37L290.5 318.64L290.49 318.91L290.49 319.17L290.48 319.42L290.47 319.68L290.46 319.93L290.45 320.18L290.44 320.42L290.42 320.66L290.41 320.9L290.4 321.14L290.38 321.37L290.37 321.6L290.35 321.83L290.34 322.05L290.32 322.27L290.3 322.49L290.28 322.7L290.26 322.92L290.24 323.13L290.22 323.33L290.2 323.54L290.18 323.74L290.16 323.94L290.13 324.14L290.11 324.33L290.08 324.53L290.06 324.72L290.03 324.91L290.01 325.09L289.97 325.31L289.94 325.53L289.9 325.75L289.87 325.96L289.83 326.17L289.79 326.38L289.76 326.58L289.72 326.78L289.68 326.98L289.64 327.18L289.6 327.37L289.56 327.57L289.52 327.76L289.47 327.94L289.43 328.13L289.39 328.31L289.34 328.49L289.29 328.67L289.25 328.84L289.2 329.02L289.15 329.19L289.1 329.36L289.05 329.52L289 329.69L288.95 329.85L288.9 330.01L288.84 330.17L288.79 330.33L288.73 330.48L288.67 330.64L288.62 330.79L288.56 330.94L288.5 331.08L288.44 331.23L288.38 331.37L288.32 331.51L288.25 331.65L288.19 331.79L288.12 331.93L288.06 332.06L287.97 332.24L287.89 332.41L287.8 332.58L287.71 332.75L287.62 332.92L287.52 333.08L287.43 333.24L287.34 333.4L287.24 333.55L287.14 333.71L287.04 333.86L286.94 334.01L286.84 334.15L286.74 334.29L286.63 334.44L286.53 334.57L286.42 334.71L286.31 334.84L286.2 334.98L286.09 335.11L285.97 335.23L285.86 335.36L285.74 335.48L285.62 335.6L285.5 335.72L285.38 335.83L285.26 335.94L285.14 336.05L285.01 336.16L284.88 336.27L284.76 336.37L284.63 336.47L284.49 336.57L284.36 336.67L284.23 336.76L284.09 336.86L283.95 336.95L283.81 337.03L283.67 337.12L283.53 337.2L283.39 337.29L283.25 337.37L283.11 337.46L282.96 337.53L282.82 337.61L282.68 337.69L282.53 337.76L282.38 337.83L282.24 337.9L282.09 337.97L281.94 338.03L281.79 338.09L281.64 338.15L281.49 338.21L281.33 338.27L281.18 338.32L281.02 338.37L280.87 338.42L280.71 338.47L280.55 338.52L280.4 338.56L280.24 338.6L280.08 338.64L279.92 338.67L279.76 338.71L279.59 338.74L279.43 338.77L279.27 338.8L279.1 338.82L278.94 338.85L278.77 338.87L278.6 338.89L278.43 338.9L278.26 338.92L278.09 338.93L277.92 338.94L277.75 338.95L277.58 338.95L277.41 338.96L277.23 338.96L203.44 338.96L203.44 396.88L292.7 396.88L292.88 396.88L293.06 396.88L293.24 396.89L293.42 396.9L293.6 396.91L293.78 396.93L293.96 396.94L294.14 396.96L294.32 396.98L294.49 397.01L294.67 397.04L294.84 397.07L295.02 397.1L295.19 397.13L295.36 397.17L295.53 397.21L295.7 397.25L295.87 397.29L296.04 397.34L296.2 397.39L296.37 397.44L296.53 397.5L296.7 397.55L296.86 397.61L297.02 397.67L297.18 397.74L297.34 397.81L297.5 397.87L297.65 397.95L297.81 398.02L297.96 398.1L298.11 398.17L298.27 398.26L298.42 398.34L298.56 398.42L298.71 398.51L298.86 398.6L299 398.7L299.14 398.79L299.28 398.89L299.42 398.98L299.55 399.07L299.68 399.17L299.81 399.27L299.94 399.37L300.07 399.47L300.19 399.58L300.32 399.68L300.44 399.79L300.56 399.9L300.68 400.01L300.8 400.13L300.91 400.24L301.03 400.36L301.14 400.48L301.26 400.6L301.37 400.73L301.48 400.85L301.59 400.98L301.69 401.11L301.8 401.24L301.9 401.38L302 401.51L302.11 401.65L302.21 401.79L302.31 401.94L302.4 402.08L302.5 402.23L302.59 402.38L302.69 402.53L302.78 402.68L302.87 402.84L302.96 403L303.05 403.16L303.14 403.32L303.22 403.48L303.31 403.65L303.39 403.82L303.47 403.99L303.55 404.16L303.62 404.3L303.68 404.44L303.74 404.58L303.81 404.72L303.87 404.87L303.93 405.02L303.99 405.17L304.04 405.32L304.1 405.47L304.16 405.62L304.21 405.78L304.27 405.94L304.32 406.1L304.37 406.26L304.43 406.42L304.48 406.59L304.53 406.76L304.58 406.93L304.63 407.1L304.67 407.27L304.72 407.45L304.77 407.63L304.81 407.81L304.86 407.99L304.9 408.18L304.94 408.37L304.98 408.56L305.03 408.75L305.07 408.95L305.11 409.15L305.15 409.35L305.18 409.55L305.22 409.76L305.26 409.96L305.3 410.17L305.33 410.39L305.37 410.6L305.4 410.82L305.43 411.04L305.47 411.27L305.49 411.46L305.52 411.66L305.55 411.86L305.57 412.06L305.6 412.26L305.62 412.47L305.64 412.68L305.66 412.88L305.68 413.1L305.7 413.31L305.72 413.53L305.74 413.74L305.76 413.96L305.78 414.19L305.8 414.41L305.81 414.64L305.83 414.87L305.84 415.1L305.86 415.34L305.87 415.58L305.88 415.82L305.9 416.06L305.91 416.31L305.92 416.56L305.93 416.81L305.94 417.06L305.95 417.32L305.95 417.58L305.96 417.85L305.97 418.12L305.97 418.39L305.98 418.66L305.98 418.94L305.99 419.22L305.99 419.5L305.99 419.79L306 420.08L306 420.37L306 420.67L306 420.97L306 421.27L306 421.57L306 421.86L305.99 422.15L305.99 422.44L305.99 422.72L305.98 423L305.98 423.28L305.97 423.55L305.97 423.82L305.96 424.09L305.95 424.35L305.95 424.62L305.94 424.87L305.93 425.13L305.92 425.38L305.91 425.63L305.9 425.88L305.88 426.12L305.87 426.36L305.86 426.6L305.84 426.83L305.83 427.07L305.81 427.3L305.8 427.52L305.78 427.75L305.76 427.97L305.74 428.19L305.72 428.41L305.7 428.62L305.68 428.84L305.66 429.05L305.64 429.25L305.62 429.46L305.6 429.66L305.57 429.87L305.55 430.07L305.52 430.26L305.5 430.46L305.47 430.65L305.44 430.88L305.4 431.1L305.37 431.32L305.33 431.54L305.3 431.75L305.26 431.97L305.22 432.17L305.19 432.38L305.15 432.58L305.11 432.79L305.07 432.98L305.03 433.18L304.99 433.37L304.94 433.56L304.9 433.75L304.86 433.94L304.81 434.12L304.77 434.31L304.72 434.48L304.67 434.66L304.63 434.84L304.58 435.01L304.53 435.18L304.48 435.35L304.43 435.51L304.37 435.68L304.32 435.84L304.27 436L304.21 436.16L304.16 436.31L304.1 436.47L304.05 436.62L303.99 436.77L303.93 436.92L303.87 437.07L303.81 437.21L303.75 437.36L303.68 437.5L303.62 437.64L303.55 437.78L303.47 437.95L303.39 438.12L303.31 438.29L303.22 438.46L303.14 438.62L303.05 438.78L302.96 438.94L302.87 439.1L302.78 439.26L302.69 439.41L302.59 439.56L302.5 439.71L302.4 439.86L302.31 440L302.21 440.14L302.11 440.29L302.01 440.42L301.9 440.56L301.8 440.69L301.69 440.83L301.59 440.96L301.48 441.09L301.37 441.21L301.26 441.34L301.14 441.46L301.03 441.58L300.91 441.7L300.8 441.81L300.68 441.93L300.56 442.04L300.44 442.15L300.32 442.26L300.19 442.36L300.07 442.47L299.94 442.57L299.81 442.67L299.68 442.77L299.55 442.86L299.42 442.96L299.28 443.05L299.14 443.15L299 443.24L298.86 443.34L298.71 443.43L298.56 443.52L298.41 443.6L298.26 443.68L298.11 443.77L297.96 443.84L297.81 443.92L297.65 443.99L297.5 444.07L297.34 444.13L297.18 444.2L297.02 444.26L296.86 444.33L296.7 444.39L296.53 444.44L296.37 444.5L296.2 444.55L296.04 444.6L295.87 444.65L295.7 444.69L295.53 444.73L295.36 444.77L295.19 444.81L295.02 444.84L294.84 444.87L294.67 444.9L294.49 444.93L294.32 444.96L294.14 444.98L293.96 445L293.78 445.01L293.6 445.03L293.42 445.04L293.24 445.05L293.06 445.05L292.88 445.06L292.69 445.06L160.24 445.06L159.81 445.06L159.39 445.05L158.96 445.03L158.54 445.01L158.12 444.98L157.71 444.95L157.29 444.91L156.88 444.87L156.48 444.82L156.07 444.76L155.67 444.69L155.28 444.63L154.88 444.55L154.49 444.47L154.1 444.38L153.72 444.29L153.34 444.19L152.96 444.08L152.58 443.97L152.21 443.85L151.84 443.73L151.47 443.6L151.11 443.47L150.75 443.33L150.4 443.18L150.04 443.03L149.69 442.87L149.35 442.7L149.01 442.53L148.67 442.35L148.33 442.17L148 441.98L147.67 441.79L147.34 441.59L147.02 441.38L146.7 441.17L146.38 440.95L146.07 440.73L145.76 440.5L145.46 440.26L145.14 440L144.83 439.74L144.53 439.47L144.23 439.19L143.95 438.91L143.67 438.62L143.4 438.32L143.14 438.02L142.89 437.71L142.64 437.39L142.4 437.07L142.17 436.74L141.95 436.4L141.74 436.05L141.53 435.7L141.33 435.34L141.14 434.98L140.96 434.61L140.79 434.23L140.62 433.84L140.46 433.45L140.31 433.05L140.17 432.65L140.04 432.24L139.91 431.82L139.8 431.4L139.69 430.97L139.58 430.53L139.49 430.08L139.41 429.63L139.33 429.18L139.26 428.71L139.2 428.24L139.15 427.77L139.1 427.28L139.07 426.79L139.04 426.3L139.02 425.8L139 425.29L139 424.77L139 215.23L139 214.71L139.02 214.2L139.04 213.7L139.07 213.21L139.1 212.72L139.15 212.23L139.2 211.76L139.26 211.29L139.33 210.82L139.41 210.37L139.49 209.92L139.58 209.47L139.69 209.03L139.8 208.6L139.91 208.18L140.04 207.76L140.17 207.35L140.31 206.95L140.46 206.55L140.62 206.16L140.79 205.77L140.96 205.39L141.14 205.02L141.33 204.66L141.53 204.3L141.74 203.95L141.95 203.6L142.17 203.26L142.4 202.93L142.64 202.61L142.89 202.29L143.14 201.98L143.4 201.68L143.67 201.38L143.95 201.09L144.23 200.81L144.53 200.53L144.83 200.26L145.14 200L145.46 199.74L145.76 199.5L146.07 199.27L146.38 199.05L146.7 198.83L147.02 198.62L147.34 198.41L147.67 198.21L148 198.02L148.33 197.83L148.67 197.65L149.01 197.47L149.35 197.3L149.69 197.13L150.04 196.97L150.4 196.82L150.75 196.67L151.11 196.53L151.47 196.4L151.84 196.27L152.21 196.15L152.58 196.03L152.96 195.92L153.34 195.81L153.72 195.71L154.1 195.62L154.49 195.53L154.88 195.45L155.28 195.37L155.67 195.31L156.07 195.24L156.48 195.18L156.88 195.13L157.29 195.09L157.71 195.05L158.12 195.02L158.54 194.99L158.96 194.97L159.39 194.95L159.81 194.94L160.24 194.94L292.07 194.94L292.24 194.94L292.41 194.94Z" id="a4pJPonxG"></path></defs><g><g><g><use xlink:href="#a4pJPonxG" opacity="1" fill="#66addc" fill-opacity="1"></use><g><use xlink:href="#a4pJPonxG" opacity="1" fill-opacity="0" stroke="#000000" stroke-width="1" stroke-opacity="0"></use></g></g></g></g></svg>