<?xml version="1.0" encoding="UTF-8" standalone="no"?>
<!DOCTYPE svg PUBLIC "-//W3C//DTD SVG 1.1//EN" "http://www.w3.org/Graphics/SVG/1.1/DTD/svg11.dtd">
<svg version="1.1" xmlns="http://www.w3.org/2000/svg" xmlns:xlink="http://www.w3.org/1999/xlink" preserveAspectRatio="xMidYMid meet" viewBox="0 0 640 640" width="640" height="640"><defs><path d="M280.41 203.63L280.75 203.64L281.09 203.64L281.42 203.64L281.76 203.64L282.09 203.65L282.42 203.66L282.74 203.66L283.06 203.67L283.38 203.68L283.7 203.68L284.01 203.69L284.32 203.7L284.63 203.71L284.93 203.72L285.24 203.74L285.53 203.75L285.83 203.76L286.12 203.78L286.41 203.79L286.7 203.81L286.98 203.82L287.27 203.84L287.54 203.86L287.82 203.88L288.09 203.9L288.36 203.92L288.63 203.94L288.89 203.96L289.15 203.98L289.41 204L289.66 204.03L289.91 204.05L290.16 204.08L290.41 204.1L290.65 204.13L290.89 204.15L291.12 204.18L291.36 204.21L291.62 204.24L291.88 204.28L292.14 204.31L292.39 204.35L292.64 204.38L292.89 204.42L293.13 204.45L293.37 204.49L293.6 204.52L293.83 204.56L294.06 204.59L294.28 204.63L294.5 204.67L294.72 204.7L294.93 204.74L295.14 204.78L295.35 204.82L295.55 204.85L295.75 204.89L295.95 204.93L296.14 204.97L296.33 205.01L296.52 205.05L296.71 205.09L296.89 205.14L297.07 205.18L297.25 205.22L297.42 205.26L297.59 205.31L297.76 205.35L297.93 205.39L298.09 205.44L298.25 205.49L298.41 205.53L298.57 205.58L298.72 205.63L298.87 205.67L299.02 205.72L299.17 205.77L299.32 205.82L299.52 205.89L299.72 205.96L299.91 206.04L300.11 206.11L300.3 206.19L300.49 206.26L300.67 206.34L300.85 206.42L301.03 206.51L301.21 206.59L301.39 206.68L301.56 206.76L301.73 206.85L301.89 206.94L302.06 207.03L302.22 207.12L302.38 207.22L302.53 207.31L302.69 207.41L302.84 207.51L302.98 207.61L303.13 207.71L303.27 207.81L303.41 207.92L303.55 208.02L303.68 208.13L303.81 208.24L303.94 208.35L304.07 208.46L304.19 208.57L304.31 208.68L304.43 208.8L304.54 208.91L304.66 209.03L304.77 209.15L304.87 209.27L304.98 209.39L305.08 209.52L305.17 209.64L305.27 209.77L305.37 209.9L305.46 210.04L305.56 210.17L305.65 210.31L305.74 210.45L305.82 210.59L305.91 210.73L305.99 210.87L306.07 211.01L306.14 211.15L306.22 211.3L306.29 211.44L306.36 211.59L306.43 211.73L306.49 211.88L306.55 212.03L306.61 212.18L306.67 212.33L306.73 212.48L306.78 212.63L306.83 212.78L306.88 212.94L306.92 213.09L306.96 213.24L307 213.4L307.04 213.56L307.07 213.71L307.11 213.87L307.14 214.03L307.16 214.18L307.19 214.34L307.21 214.5L307.23 214.66L307.25 214.82L307.26 214.98L307.27 215.14L307.28 215.31L307.29 215.47L307.29 215.63L307.29 215.79L307.29 352.85L307.29 353.94L307.28 355.02L307.26 356.1L307.23 357.17L307.19 358.24L307.15 359.31L307.09 360.36L307.03 361.42L306.96 362.46L306.88 363.51L306.8 364.54L306.7 365.57L306.6 366.6L306.49 367.62L306.37 368.63L306.24 369.64L306.11 370.65L305.97 371.64L305.81 372.63L305.65 373.62L305.49 374.6L305.31 375.57L305.13 376.54L304.94 377.51L304.74 378.46L304.53 379.41L304.31 380.36L304.09 381.29L303.86 382.23L303.61 383.15L303.37 384.07L303.11 384.99L302.85 385.89L302.57 386.8L302.29 387.69L302 388.58L301.71 389.46L301.4 390.34L301.09 391.21L300.77 392.07L300.44 392.94L300.1 393.81L299.76 394.67L299.41 395.53L299.04 396.38L298.68 397.22L298.3 398.05L297.91 398.88L297.52 399.71L297.12 400.52L296.71 401.34L296.29 402.14L295.87 402.94L295.43 403.73L294.99 404.51L294.54 405.29L294.08 406.06L293.62 406.83L293.15 407.59L292.67 408.34L292.18 409.08L291.68 409.82L291.18 410.55L290.67 411.27L290.15 411.99L289.62 412.7L289.08 413.41L288.54 414.1L287.99 414.79L287.43 415.48L286.87 416.15L286.29 416.82L285.71 417.48L285.12 418.14L284.53 418.78L283.92 419.42L283.31 420.06L282.69 420.68L282.07 421.3L281.43 421.91L280.79 422.52L280.14 423.12L279.48 423.71L278.81 424.3L278.14 424.87L277.46 425.44L276.77 426.01L276.07 426.56L275.37 427.11L274.65 427.65L273.94 428.19L273.21 428.72L272.48 429.24L271.73 429.75L270.99 430.25L270.23 430.75L269.47 431.24L268.7 431.73L267.92 432.2L267.13 432.67L266.34 433.13L265.54 433.58L264.74 434.03L263.92 434.47L263.1 434.9L262.28 435.32L261.44 435.74L260.6 436.15L259.75 436.55L258.9 436.94L258.03 437.33L257.17 437.71L256.29 438.08L255.41 438.44L254.52 438.79L253.62 439.14L252.72 439.48L251.81 439.81L250.89 440.14L249.97 440.46L249.05 440.76L248.13 441.06L247.19 441.36L246.25 441.64L245.3 441.92L244.35 442.19L243.38 442.45L242.41 442.71L241.44 442.95L240.45 443.19L239.46 443.42L238.46 443.65L237.45 443.86L236.44 444.07L235.42 444.27L234.39 444.46L233.36 444.65L232.32 444.83L231.27 444.99L230.22 445.16L229.15 445.31L228.09 445.45L227.01 445.59L225.93 445.72L224.84 445.84L223.75 445.96L222.65 446.07L221.54 446.16L220.43 446.26L219.31 446.34L218.18 446.41L217.05 446.48L215.91 446.54L214.76 446.59L213.61 446.63L212.45 446.67L211.29 446.7L210.12 446.72L208.94 446.73L207.76 446.73L206.65 446.73L205.56 446.72L204.46 446.7L203.37 446.68L202.29 446.65L201.21 446.61L200.14 446.56L199.07 446.51L198 446.45L196.94 446.38L195.89 446.31L194.84 446.23L193.8 446.14L192.76 446.05L191.72 445.94L190.69 445.84L189.67 445.72L188.65 445.6L187.64 445.47L186.63 445.33L185.63 445.19L184.63 445.04L183.64 444.88L182.65 444.72L181.67 444.55L180.7 444.37L179.73 444.18L178.76 443.99L177.8 443.79L176.85 443.59L175.9 443.38L174.96 443.16L174.03 442.93L173.1 442.7L172.17 442.46L171.26 442.21L170.34 441.96L169.44 441.7L168.54 441.43L167.64 441.15L166.74 440.86L165.84 440.57L164.95 440.26L164.06 439.95L163.19 439.63L162.31 439.3L161.45 438.96L160.59 438.62L159.74 438.27L158.89 437.91L158.05 437.55L157.22 437.18L156.4 436.8L155.58 436.41L154.77 436.01L153.97 435.61L153.17 435.2L152.38 434.78L151.59 434.36L150.82 433.93L150.05 433.49L149.29 433.04L148.53 432.59L147.78 432.13L147.04 431.66L146.31 431.18L145.58 430.7L144.86 430.21L144.15 429.71L143.44 429.21L142.75 428.7L142.06 428.18L141.37 427.65L140.7 427.12L140.03 426.58L139.37 426.03L138.71 425.48L138.07 424.92L137.43 424.35L136.8 423.78L136.17 423.19L135.55 422.6L134.94 422L134.33 421.39L133.73 420.77L133.14 420.15L132.56 419.52L131.98 418.88L131.41 418.23L130.85 417.58L130.29 416.92L129.74 416.25L129.2 415.58L128.67 414.89L128.15 414.2L127.63 413.51L127.12 412.8L126.61 412.09L126.12 411.37L125.63 410.65L125.15 409.91L124.68 409.17L124.21 408.43L123.75 407.67L123.3 406.91L122.86 406.15L122.43 405.37L122 404.59L121.58 403.8L121.17 403L120.76 402.2L120.36 401.39L119.98 400.58L119.59 399.75L119.22 398.93L118.85 398.09L118.5 397.25L118.15 396.4L117.8 395.54L117.47 394.68L117.14 393.81L116.83 392.94L116.52 392.07L116.22 391.18L115.93 390.29L115.65 389.39L115.37 388.49L115.1 387.57L114.85 386.65L114.59 385.72L114.35 384.79L114.12 383.85L113.89 382.9L113.67 381.94L113.46 380.98L113.26 380.01L113.07 379.04L112.88 378.05L112.7 377.06L112.53 376.07L112.37 375.06L112.22 374.05L112.08 373.04L111.94 372.01L111.81 370.98L111.69 369.95L111.58 368.9L111.48 367.86L111.38 366.8L111.29 365.74L111.21 364.67L111.14 363.6L111.08 362.51L111.03 361.43L110.98 360.33L110.95 359.23L110.92 358.13L110.9 357.02L110.88 355.9L110.88 354.77L110.88 215.79L110.88 215.63L110.88 215.47L110.89 215.31L110.9 215.14L110.91 214.98L110.93 214.82L110.94 214.66L110.96 214.5L110.98 214.34L111.01 214.18L111.04 214.03L111.07 213.87L111.1 213.71L111.13 213.56L111.17 213.4L111.21 213.24L111.25 213.09L111.3 212.94L111.34 212.78L111.39 212.63L111.45 212.48L111.5 212.33L111.56 212.18L111.62 212.03L111.68 211.88L111.75 211.73L111.81 211.59L111.88 211.44L111.95 211.29L112.03 211.15L112.11 211.01L112.18 210.87L112.27 210.72L112.35 210.58L112.44 210.45L112.52 210.31L112.62 210.17L112.71 210.04L112.81 209.9L112.9 209.77L113 209.64L113.1 209.51L113.2 209.39L113.31 209.26L113.42 209.14L113.53 209.02L113.64 208.9L113.76 208.78L113.88 208.67L114 208.55L114.12 208.44L114.25 208.33L114.38 208.22L114.52 208.11L114.65 208L114.79 207.89L114.93 207.79L115.08 207.69L115.23 207.59L115.38 207.49L115.53 207.39L115.69 207.29L115.84 207.19L116.01 207.1L116.17 207.01L116.34 206.92L116.51 206.83L116.68 206.74L116.85 206.65L117.03 206.57L117.21 206.48L117.4 206.4L117.58 206.32L117.77 206.24L117.96 206.17L118.16 206.09L118.35 206.02L118.55 205.94L118.76 205.87L118.96 205.8L119.11 205.75L119.26 205.71L119.42 205.66L119.57 205.61L119.73 205.56L119.89 205.52L120.05 205.47L120.22 205.43L120.38 205.38L120.55 205.34L120.72 205.3L120.9 205.25L121.08 205.21L121.26 205.17L121.44 205.13L121.63 205.09L121.81 205.05L122.01 205.01L122.2 204.97L122.4 204.93L122.6 204.89L122.8 204.85L123.01 204.81L123.22 204.77L123.43 204.74L123.65 204.7L123.87 204.66L124.09 204.63L124.32 204.59L124.55 204.55L124.79 204.52L125.02 204.48L125.27 204.45L125.51 204.41L125.76 204.38L126.01 204.34L126.27 204.31L126.53 204.28L126.8 204.24L127.07 204.21L127.3 204.18L127.54 204.15L127.78 204.13L128.02 204.1L128.26 204.07L128.51 204.05L128.76 204.03L129.02 204L129.28 203.98L129.54 203.96L129.81 203.94L130.08 203.92L130.35 203.9L130.63 203.88L130.91 203.86L131.19 203.84L131.47 203.82L131.76 203.81L132.06 203.79L132.35 203.78L132.65 203.76L132.95 203.75L133.26 203.74L133.57 203.72L133.88 203.71L134.2 203.7L134.51 203.69L134.84 203.68L135.16 203.68L135.49 203.67L135.82 203.66L136.15 203.66L136.49 203.65L136.83 203.64L137.17 203.64L137.52 203.64L137.87 203.64L138.22 203.63L138.58 203.63L138.94 203.63L139.28 203.63L139.63 203.63L139.97 203.64L140.31 203.64L140.64 203.64L140.98 203.64L141.31 203.65L141.63 203.66L141.96 203.66L142.28 203.67L142.6 203.68L142.92 203.68L143.23 203.69L143.54 203.7L143.85 203.71L144.15 203.72L144.45 203.74L144.75 203.75L145.05 203.76L145.34 203.78L145.63 203.79L145.92 203.81L146.2 203.82L146.49 203.84L146.76 203.86L147.04 203.88L147.31 203.9L147.58 203.92L147.85 203.94L148.11 203.96L148.37 203.98L148.63 204L148.88 204.03L149.13 204.05L149.38 204.08L149.63 204.1L149.87 204.13L150.11 204.15L150.34 204.18L150.57 204.21L150.84 204.24L151.11 204.28L151.36 204.31L151.62 204.34L151.87 204.38L152.12 204.41L152.36 204.45L152.6 204.48L152.84 204.52L153.07 204.55L153.3 204.59L153.52 204.62L153.74 204.66L153.96 204.7L154.18 204.74L154.39 204.77L154.59 204.81L154.8 204.85L155 204.89L155.2 204.93L155.39 204.97L155.59 205.01L155.78 205.05L155.96 205.09L156.15 205.13L156.33 205.17L156.51 205.22L156.68 205.26L156.85 205.3L157.02 205.35L157.19 205.39L157.36 205.44L157.52 205.48L157.68 205.53L157.84 205.58L158 205.62L158.15 205.67L158.3 205.72L158.45 205.77L158.6 205.82L158.79 205.89L158.97 205.95L159.16 206.02L159.34 206.09L159.52 206.16L159.69 206.23L159.87 206.31L160.04 206.38L160.21 206.46L160.38 206.54L160.55 206.62L160.71 206.7L160.88 206.78L161.04 206.86L161.2 206.95L161.35 207.03L161.51 207.12L161.66 207.21L161.81 207.3L161.96 207.39L162.1 207.48L162.24 207.58L162.39 207.67L162.52 207.77L162.66 207.87L162.8 207.97L162.93 208.07L163.06 208.17L163.19 208.27L163.31 208.38L163.44 208.48L163.56 208.59L163.68 208.7L163.79 208.81L163.91 208.92L164.02 209.03L164.13 209.14L164.24 209.26L164.34 209.37L164.45 209.49L164.45 209.5L164.46 209.51L164.47 209.51L164.47 209.52L164.48 209.53L164.5 209.55L164.51 209.57L164.54 209.6L164.65 209.74L164.75 209.87L164.86 210.01L164.96 210.15L165.05 210.29L165.15 210.43L165.24 210.57L165.33 210.71L165.41 210.86L165.5 211L165.58 211.15L165.66 211.3L165.73 211.44L165.81 211.59L165.88 211.75L165.95 211.9L166.01 212.05L166.07 212.2L166.13 212.36L166.19 212.51L166.25 212.67L166.3 212.83L166.35 212.99L166.39 213.15L166.44 213.31L166.48 213.47L166.51 213.63L166.55 213.79L166.58 213.95L166.61 214.12L166.64 214.28L166.66 214.45L166.68 214.61L166.7 214.78L166.72 214.95L166.73 215.12L166.74 215.28L166.75 215.45L166.75 215.62L166.75 215.79L166.75 257.4L166.78 257.4L166.78 313.12L166.75 313.12L166.75 350.8L166.76 351.43L166.76 352.06L166.77 352.69L166.79 353.31L166.8 353.93L166.83 354.54L166.85 355.15L166.88 355.76L166.91 356.36L166.95 356.96L166.99 357.55L167.04 358.14L167.09 358.73L167.14 359.31L167.2 359.89L167.26 360.46L167.32 361.03L167.39 361.59L167.47 362.15L167.54 362.71L167.62 363.26L167.71 363.81L167.8 364.35L167.89 364.89L167.98 365.43L168.08 365.96L168.19 366.48L168.29 367.01L168.41 367.52L168.52 368.04L168.64 368.54L168.76 369.05L168.89 369.55L169.02 370.04L169.16 370.53L169.3 371.02L169.44 371.5L169.58 371.98L169.74 372.45L169.89 372.91L170.04 373.36L170.2 373.81L170.36 374.25L170.52 374.68L170.68 375.11L170.85 375.54L171.02 375.97L171.2 376.39L171.38 376.8L171.56 377.21L171.74 377.62L171.93 378.02L172.12 378.42L172.32 378.82L172.51 379.21L172.71 379.6L172.92 379.98L173.12 380.36L173.33 380.74L173.55 381.11L173.76 381.47L173.98 381.83L174.2 382.19L174.43 382.55L174.66 382.9L174.89 383.24L175.12 383.58L175.36 383.92L175.6 384.25L175.85 384.58L176.09 384.91L176.34 385.23L176.59 385.54L176.85 385.85L177.11 386.16L177.37 386.46L177.64 386.76L177.9 387.05L178.17 387.34L178.45 387.63L178.73 387.92L179.01 388.2L179.3 388.48L179.59 388.76L179.88 389.04L180.17 389.31L180.47 389.58L180.77 389.84L181.07 390.1L181.38 390.36L181.69 390.61L182 390.86L182.31 391.1L182.63 391.35L182.95 391.58L183.27 391.82L183.59 392.05L183.92 392.28L184.24 392.5L184.58 392.72L184.91 392.93L185.25 393.14L185.59 393.35L185.93 393.56L186.27 393.76L186.62 393.95L186.97 394.15L187.32 394.34L187.67 394.52L188.03 394.7L188.39 394.88L188.75 395.06L189.11 395.23L189.48 395.39L189.85 395.55L190.22 395.71L190.59 395.87L190.97 396.02L191.34 396.17L191.72 396.31L192.12 396.45L192.52 396.6L192.93 396.73L193.34 396.87L193.75 397L194.16 397.13L194.57 397.25L194.99 397.37L195.41 397.49L195.83 397.6L196.26 397.71L196.68 397.81L197.11 397.92L197.55 398.01L197.98 398.11L198.42 398.2L198.86 398.29L199.3 398.37L199.75 398.45L200.19 398.52L200.64 398.6L201.1 398.67L201.55 398.73L202.01 398.79L202.47 398.85L202.93 398.9L203.39 398.95L203.86 399L204.33 399.04L204.8 399.08L205.27 399.12L205.75 399.15L206.23 399.18L206.71 399.2L207.19 399.22L207.67 399.24L208.16 399.25L208.65 399.26L209.14 399.27L209.63 399.27L210.13 399.27L210.62 399.26L211.12 399.25L211.61 399.24L212.1 399.22L212.59 399.2L213.07 399.17L213.55 399.14L214.03 399.11L214.51 399.08L214.98 399.03L215.45 398.99L215.92 398.94L216.39 398.89L216.85 398.84L217.31 398.78L217.77 398.71L218.22 398.65L218.67 398.58L219.12 398.5L219.57 398.42L220.02 398.34L220.46 398.25L220.9 398.16L221.33 398.07L221.76 397.97L222.19 397.87L222.62 397.77L223.05 397.66L223.47 397.55L223.89 397.43L224.3 397.31L224.72 397.19L225.13 397.06L225.53 396.93L225.94 396.79L226.34 396.65L226.74 396.51L227.13 396.37L227.52 396.22L227.91 396.07L228.29 395.91L228.67 395.76L229.04 395.6L229.41 395.43L229.78 395.27L230.14 395.1L230.5 394.93L230.86 394.75L231.22 394.57L231.57 394.39L231.92 394.21L232.26 394.02L232.6 393.83L232.94 393.63L233.28 393.43L233.61 393.23L233.94 393.03L234.27 392.82L234.59 392.61L234.91 392.39L235.23 392.18L235.55 391.95L235.86 391.73L236.17 391.5L236.48 391.27L236.78 391.03L237.08 390.79L237.38 390.55L237.68 390.3L237.97 390.05L238.26 389.8L238.55 389.54L238.84 389.28L239.12 389.02L239.4 388.75L239.68 388.48L239.95 388.2L240.23 387.93L240.5 387.64L240.76 387.35L241.03 387.05L241.29 386.75L241.55 386.45L241.8 386.14L242.05 385.83L242.3 385.51L242.55 385.2L242.79 384.88L243.03 384.55L243.27 384.22L243.5 383.89L243.73 383.56L243.96 383.23L244.18 382.89L244.41 382.54L244.62 382.2L244.84 381.85L245.05 381.5L245.26 381.14L245.47 380.78L245.67 380.42L245.87 380.06L246.07 379.69L246.26 379.32L246.45 378.95L246.64 378.57L246.82 378.19L247 377.81L247.18 377.42L247.36 377.04L247.53 376.64L247.69 376.25L247.86 375.85L248.02 375.45L248.18 375.05L248.34 374.65L248.49 374.24L248.64 373.83L248.78 373.41L248.93 372.98L249.07 372.54L249.21 372.09L249.35 371.65L249.48 371.2L249.61 370.74L249.74 370.29L249.86 369.83L249.98 369.37L250.09 368.9L250.2 368.43L250.31 367.96L250.41 367.48L250.51 367L250.6 366.52L250.7 366.03L250.78 365.54L250.87 365.05L250.95 364.55L251.03 364.05L251.1 363.55L251.17 363.05L251.24 362.54L251.3 362.03L251.36 361.51L251.41 361L251.46 360.48L251.51 359.95L251.55 359.43L251.59 358.9L251.63 358.37L251.66 357.83L251.69 357.29L251.71 356.75L251.73 356.21L251.75 355.66L251.76 355.11L251.77 354.56L251.78 354.01L251.78 353.45L251.78 215.79L251.78 215.63L251.79 215.47L251.79 215.31L251.8 215.15L251.81 214.98L251.83 214.82L251.84 214.66L251.86 214.5L251.89 214.34L251.91 214.19L251.94 214.03L251.97 213.87L252 213.71L252.03 213.56L252.07 213.4L252.11 213.25L252.15 213.09L252.2 212.94L252.25 212.78L252.3 212.63L252.35 212.48L252.4 212.33L252.46 212.18L252.52 212.03L252.58 211.88L252.65 211.73L252.71 211.59L252.78 211.44L252.85 211.3L252.93 211.15L253.01 211.01L253.08 210.87L253.17 210.73L253.25 210.59L253.34 210.45L253.42 210.31L253.52 210.17L253.61 210.04L253.7 209.9L253.8 209.77L253.9 209.64L254 209.52L254.1 209.4L254.2 209.27L254.31 209.15L254.42 209.03L254.53 208.92L254.64 208.8L254.76 208.68L254.88 208.57L255 208.46L255.13 208.35L255.26 208.24L255.39 208.13L255.52 208.02L255.66 207.92L255.8 207.81L255.94 207.71L256.09 207.61L256.24 207.51L256.39 207.41L256.54 207.31L256.7 207.22L256.85 207.12L257.02 207.03L257.18 206.94L257.35 206.85L257.52 206.76L257.69 206.68L257.86 206.59L258.04 206.51L258.22 206.42L258.4 206.34L258.59 206.26L258.78 206.19L258.97 206.11L259.16 206.04L259.36 205.96L259.55 205.89L259.76 205.82L259.9 205.77L260.05 205.72L260.2 205.67L260.36 205.62L260.51 205.58L260.67 205.53L260.83 205.48L261 205.44L261.16 205.39L261.33 205.35L261.51 205.3L261.68 205.26L261.86 205.22L262.04 205.17L262.22 205.13L262.41 205.09L262.6 205.05L262.79 205.01L262.98 204.97L263.18 204.93L263.38 204.89L263.59 204.85L263.8 204.81L264.01 204.77L264.23 204.74L264.45 204.7L264.67 204.66L264.9 204.62L265.13 204.59L265.36 204.55L265.6 204.52L265.84 204.48L266.09 204.45L266.34 204.41L266.59 204.38L266.85 204.34L267.11 204.31L267.38 204.28L267.65 204.24L267.92 204.21L268.16 204.18L268.41 204.15L268.65 204.13L268.9 204.1L269.16 204.07L269.41 204.05L269.67 204.02L269.93 204L270.19 203.98L270.46 203.96L270.73 203.94L271 203.91L271.28 203.9L271.55 203.88L271.84 203.86L272.12 203.84L272.4 203.82L272.69 203.81L272.99 203.79L273.28 203.78L273.58 203.76L273.88 203.75L274.18 203.74L274.48 203.72L274.79 203.71L275.1 203.7L275.41 203.69L275.73 203.68L276.05 203.68L276.37 203.67L276.69 203.66L277.02 203.66L277.35 203.65L277.68 203.64L278.01 203.64L278.35 203.64L278.69 203.64L279.03 203.63L279.37 203.63L279.72 203.63L280.06 203.63L280.41 203.63Z" id="aahCMu0pb"></path><path d="M433.28 204.04L433.83 204.04L434.38 204.04L434.91 204.04L435.43 204.04L435.95 204.05L436.45 204.05L436.95 204.05L437.44 204.05L437.92 204.06L438.39 204.06L438.85 204.06L439.31 204.07L439.76 204.07L440.2 204.08L440.63 204.08L441.05 204.09L441.47 204.09L441.88 204.1L442.28 204.1L442.68 204.11L443.07 204.12L443.45 204.12L443.83 204.13L444.19 204.14L444.56 204.15L444.91 204.16L445.26 204.17L445.6 204.17L445.94 204.18L446.27 204.19L446.6 204.2L446.92 204.22L447.23 204.23L447.54 204.24L447.84 204.25L448.14 204.26L448.43 204.27L448.72 204.29L449.05 204.3L449.38 204.32L449.71 204.33L450.03 204.35L450.35 204.37L450.67 204.39L450.98 204.42L451.29 204.44L451.59 204.46L451.9 204.49L452.19 204.51L452.49 204.54L452.78 204.57L453.06 204.6L453.35 204.63L453.63 204.66L453.9 204.69L454.18 204.72L454.44 204.76L454.71 204.79L454.97 204.83L455.23 204.87L455.49 204.91L455.74 204.95L455.99 204.99L456.23 205.03L456.47 205.07L456.71 205.12L456.95 205.16L457.18 205.21L457.41 205.26L457.63 205.31L457.85 205.36L458.07 205.41L458.29 205.46L458.5 205.51L458.71 205.57L458.92 205.62L459.12 205.68L459.32 205.74L459.55 205.81L459.79 205.88L460.01 205.96L460.24 206.03L460.47 206.11L460.69 206.19L460.9 206.28L461.12 206.36L461.33 206.45L461.54 206.54L461.75 206.63L461.95 206.73L462.16 206.82L462.35 206.92L462.55 207.02L462.74 207.12L462.93 207.23L463.12 207.33L463.31 207.44L463.49 207.55L463.67 207.67L463.84 207.78L464.01 207.9L464.18 208.02L464.35 208.14L464.52 208.26L464.68 208.39L464.84 208.51L464.99 208.64L465.14 208.78L465.29 208.91L465.44 209.04L465.58 209.18L465.72 209.32L465.86 209.46L466 209.61L466.13 209.75L466.26 209.9L466.38 210.05L466.51 210.2L466.53 210.22L466.54 210.24L466.55 210.26L466.57 210.28L466.58 210.3L466.6 210.33L466.62 210.35L466.62 210.35L466.63 210.36L466.64 210.37L466.65 210.38L466.65 210.39L466.75 210.54L466.85 210.68L466.95 210.82L467.05 210.97L467.14 211.12L467.24 211.27L467.33 211.42L467.43 211.57L467.52 211.72L467.61 211.87L467.7 212.03L467.79 212.18L467.87 212.34L467.96 212.5L468.05 212.66L468.13 212.82L468.21 212.98L468.3 213.15L468.38 213.31L468.46 213.48L468.53 213.64L468.61 213.81L468.69 213.98L468.76 214.15L468.84 214.32L468.91 214.5L468.98 214.67L469.05 214.84L469.12 215.02L469.19 215.2L469.26 215.38L469.32 215.56L469.39 215.74L469.45 215.92L469.52 216.1L469.58 216.29L469.64 216.47L469.7 216.66L469.75 216.85L469.81 217.04L539.49 420.35L539.5 420.37L539.51 420.4L539.51 420.41L539.52 420.43L539.63 420.78L539.74 421.12L539.85 421.46L539.95 421.79L540.06 422.12L540.16 422.44L540.25 422.77L540.35 423.08L540.44 423.4L540.54 423.71L540.63 424.01L540.71 424.32L540.8 424.61L540.88 424.91L540.96 425.2L541.04 425.49L541.12 425.77L541.19 426.05L541.27 426.33L541.34 426.6L541.41 426.87L541.47 427.14L541.54 427.4L541.6 427.66L541.66 427.91L541.72 428.16L541.77 428.41L541.83 428.66L541.88 428.9L541.93 429.13L541.98 429.37L542.02 429.6L542.07 429.83L542.11 430.05L542.15 430.27L542.19 430.49L542.23 430.7L542.26 430.91L542.29 431.12L542.32 431.32L542.37 431.69L542.41 432.06L542.44 432.41L542.46 432.76L542.48 433.1L542.48 433.44L542.48 433.76L542.47 434.08L542.46 434.4L542.43 434.7L542.4 435L542.37 435.29L542.32 435.58L542.27 435.86L542.22 436.13L542.16 436.4L542.09 436.66L542.02 436.91L541.94 437.16L541.86 437.4L541.77 437.63L541.68 437.86L541.59 438.08L541.49 438.3L541.39 438.5L541.29 438.71L541.18 438.91L541.07 439.1L540.96 439.28L540.85 439.46L540.73 439.64L540.61 439.81L540.5 439.97L540.38 440.13L540.25 440.28L540.13 440.43L540.01 440.57L539.89 440.7L539.77 440.84L539.65 440.96L539.64 440.97L539.63 440.98L539.62 440.99L539.61 441L539.6 441.01L539.58 441.02L539.57 441.04L539.56 441.05L539.55 441.06L539.54 441.07L539.52 441.08L539.51 441.09L539.5 441.1L539.49 441.12L539.33 441.26L539.16 441.4L538.99 441.54L538.82 441.68L538.65 441.81L538.47 441.94L538.28 442.07L538.09 442.2L537.9 442.32L537.71 442.43L537.51 442.55L537.3 442.66L537.1 442.77L536.89 442.88L536.67 442.98L536.45 443.08L536.23 443.18L536 443.27L535.77 443.37L535.54 443.45L535.3 443.54L535.05 443.62L534.81 443.7L534.55 443.78L534.3 443.85L534.04 443.92L533.77 443.99L533.51 444.06L533.23 444.12L532.96 444.18L532.68 444.24L532.39 444.29L532.1 444.34L531.81 444.39L531.51 444.44L531.21 444.48L530.9 444.52L530.59 444.55L530.27 444.59L529.95 444.62L529.71 444.64L529.47 444.66L529.22 444.68L528.96 444.7L528.7 444.72L528.44 444.74L528.17 444.76L527.89 444.78L527.61 444.8L527.32 444.81L527.03 444.83L526.73 444.85L526.43 444.86L526.12 444.88L525.81 444.89L525.49 444.9L525.17 444.92L524.84 444.93L524.5 444.94L524.16 444.95L523.81 444.96L523.46 444.97L523.1 444.98L522.74 444.99L522.37 445L522 445.01L521.62 445.02L521.23 445.02L520.84 445.03L520.44 445.04L520.04 445.04L519.63 445.05L519.22 445.05L518.8 445.05L518.37 445.06L517.94 445.06L517.5 445.06L517.06 445.06L516.61 445.06L516.15 445.06L515.65 445.06L515.17 445.06L514.69 445.06L514.22 445.06L513.76 445.06L513.31 445.06L512.86 445.06L512.42 445.05L511.99 445.05L511.57 445.05L511.16 445.04L510.75 445.04L510.35 445.04L509.96 445.03L509.58 445.03L509.2 445.02L508.83 445.02L508.47 445.01L508.11 445.01L507.76 445L507.42 445L507.08 444.99L506.75 444.98L506.43 444.98L506.11 444.97L505.8 444.96L505.49 444.95L505.2 444.94L504.9 444.93L504.61 444.93L504.33 444.92L504.06 444.91L503.79 444.9L503.52 444.88L503.26 444.87L503.01 444.86L502.76 444.85L502.51 444.84L502.27 444.83L502.04 444.81L501.76 444.8L501.49 444.78L501.22 444.76L500.96 444.75L500.7 444.73L500.44 444.71L500.18 444.69L499.93 444.67L499.68 444.64L499.43 444.62L499.19 444.6L498.95 444.57L498.71 444.55L498.47 444.52L498.24 444.49L498.01 444.47L497.78 444.44L497.56 444.41L497.34 444.38L497.12 444.35L496.91 444.31L496.7 444.28L496.49 444.25L496.28 444.21L496.08 444.18L495.88 444.14L495.68 444.1L495.48 444.06L495.29 444.02L495.1 443.98L494.91 443.94L494.73 443.9L494.55 443.86L494.37 443.81L494.19 443.77L494.02 443.72L493.84 443.68L493.67 443.63L493.51 443.58L493.34 443.53L493.14 443.47L492.94 443.4L492.75 443.33L492.56 443.26L492.36 443.19L492.18 443.12L491.99 443.05L491.81 442.97L491.63 442.89L491.46 442.81L491.28 442.73L491.11 442.65L490.94 442.57L490.78 442.48L490.62 442.4L490.46 442.31L490.3 442.22L490.14 442.13L489.99 442.03L489.84 441.94L489.7 441.84L489.55 441.74L489.41 441.64L489.27 441.54L489.13 441.43L489 441.33L488.87 441.22L488.74 441.11L488.61 441L488.49 440.89L488.37 440.78L488.25 440.66L488.13 440.54L488.02 440.42L487.91 440.3L487.8 440.18L487.69 440.06L487.59 439.93L487.49 439.8L487.39 439.67L487.31 439.57L487.23 439.46L487.15 439.35L487.07 439.24L487 439.13L486.92 439.02L486.85 438.91L486.77 438.8L486.7 438.68L486.63 438.56L486.55 438.45L486.48 438.33L486.41 438.21L486.35 438.08L486.28 437.96L486.21 437.84L486.15 437.71L486.08 437.58L486.02 437.45L485.95 437.32L485.89 437.19L485.83 437.06L485.77 436.93L485.71 436.79L485.65 436.66L485.6 436.52L485.54 436.38L485.48 436.24L485.43 436.1L485.38 435.96L485.32 435.81L485.27 435.67L485.22 435.52L485.17 435.38L485.12 435.23L485.07 435.08L485.03 434.93L484.98 434.77L484.94 434.62L484.89 434.47L471.32 392.21L392.65 392.21L379.65 433.2L379.61 433.36L379.56 433.52L379.51 433.69L379.46 433.84L379.41 434L379.36 434.16L379.31 434.31L379.26 434.47L379.21 434.62L379.15 434.77L379.1 434.92L379.04 435.07L378.99 435.21L378.93 435.36L378.88 435.5L378.82 435.64L378.76 435.78L378.7 435.92L378.64 436.06L378.58 436.2L378.52 436.33L378.46 436.46L378.4 436.6L378.33 436.73L378.27 436.86L378.2 436.98L378.14 437.11L378.07 437.24L378 437.36L377.94 437.48L377.87 437.61L377.8 437.73L377.73 437.84L377.66 437.96L377.58 438.08L377.51 438.19L377.44 438.31L377.36 438.42L377.29 438.53L377.21 438.64L377.12 438.78L377.03 438.92L376.93 439.06L376.83 439.2L376.72 439.33L376.62 439.47L376.51 439.6L376.4 439.73L376.29 439.86L376.17 439.98L376.05 440.11L375.93 440.23L375.81 440.35L375.68 440.47L375.55 440.59L375.42 440.71L375.29 440.82L375.15 440.93L375.01 441.05L374.87 441.16L374.72 441.27L374.58 441.37L374.43 441.48L374.27 441.58L374.12 441.68L373.96 441.79L373.8 441.88L373.63 441.98L373.47 442.08L373.3 442.17L373.12 442.27L372.95 442.36L372.77 442.45L372.59 442.54L372.41 442.63L372.22 442.71L372.03 442.8L371.84 442.88L371.64 442.96L371.45 443.04L371.29 443.1L371.13 443.16L370.97 443.22L370.8 443.28L370.64 443.34L370.47 443.4L370.3 443.45L370.12 443.5L369.94 443.56L369.76 443.61L369.58 443.66L369.4 443.71L369.21 443.76L369.02 443.81L368.83 443.85L368.63 443.9L368.43 443.94L368.23 443.98L368.02 444.03L367.82 444.07L367.6 444.11L367.39 444.15L367.17 444.18L366.95 444.22L366.73 444.26L366.5 444.29L366.27 444.33L366.04 444.36L365.8 444.39L365.56 444.42L365.32 444.45L365.07 444.48L364.82 444.51L364.57 444.54L364.31 444.57L364.05 444.59L363.79 444.62L363.52 444.64L363.25 444.66L362.97 444.69L362.73 444.7L362.48 444.72L362.23 444.74L361.98 444.76L361.72 444.77L361.46 444.79L361.2 444.81L360.93 444.82L360.66 444.84L360.39 444.85L360.11 444.86L359.82 444.88L359.54 444.89L359.25 444.9L358.96 444.91L358.66 444.93L358.36 444.94L358.05 444.95L357.75 444.96L357.44 444.97L357.12 444.98L356.8 444.99L356.48 444.99L356.16 445L355.83 445.01L355.49 445.02L355.16 445.02L354.82 445.03L354.48 445.03L354.13 445.04L353.78 445.04L353.43 445.05L353.07 445.05L352.71 445.05L352.35 445.06L351.98 445.06L351.61 445.06L351.24 445.06L350.86 445.06L350.48 445.06L350.07 445.06L349.66 445.06L349.25 445.06L348.85 445.06L348.45 445.05L348.06 445.05L347.68 445.05L347.29 445.04L346.92 445.03L346.54 445.03L346.17 445.02L345.81 445.01L345.45 445L345.1 444.99L344.75 444.98L344.4 444.97L344.06 444.96L343.72 444.95L343.39 444.93L343.06 444.92L342.74 444.9L342.42 444.89L342.11 444.87L341.79 444.86L341.49 444.84L341.19 444.82L340.89 444.8L340.59 444.78L340.3 444.76L340.02 444.74L339.74 444.72L339.46 444.69L339.19 444.67L338.92 444.65L338.65 444.62L338.39 444.6L338.14 444.57L337.88 444.54L337.63 444.51L337.39 444.48L337.07 444.45L336.76 444.4L336.45 444.36L336.15 444.31L335.85 444.25L335.55 444.2L335.26 444.14L334.98 444.08L334.7 444.01L334.42 443.94L334.15 443.87L333.88 443.8L333.62 443.72L333.36 443.64L333.11 443.55L332.86 443.46L332.62 443.37L332.38 443.28L332.14 443.18L331.91 443.08L331.68 442.97L331.46 442.86L331.24 442.75L331.03 442.64L330.82 442.52L330.61 442.4L330.41 442.27L330.21 442.15L330.02 442.02L329.83 441.88L329.65 441.74L329.47 441.6L329.29 441.46L329.12 441.31L328.96 441.16L328.79 441L328.63 440.84L328.48 440.68L328.33 440.51L328.18 440.35L328.07 440.22L327.96 440.08L327.85 439.94L327.75 439.8L327.64 439.65L327.53 439.49L327.42 439.33L327.32 439.17L327.21 439L327.11 438.82L327.01 438.64L326.91 438.45L326.81 438.26L326.72 438.06L326.63 437.86L326.54 437.65L326.45 437.43L326.37 437.21L326.29 436.98L326.22 436.75L326.14 436.51L326.08 436.26L326.02 436.01L325.96 435.75L325.9 435.49L325.86 435.22L325.81 434.94L325.78 434.66L325.75 434.37L325.72 434.08L325.7 433.78L325.69 433.47L325.68 433.16L325.69 432.84L325.7 432.51L325.71 432.18L325.73 431.84L325.77 431.49L325.81 431.14L325.85 430.78L325.88 430.58L325.92 430.38L325.95 430.17L325.98 429.96L326.02 429.75L326.06 429.54L326.1 429.32L326.14 429.1L326.19 428.88L326.24 428.65L326.29 428.42L326.34 428.18L326.39 427.95L326.45 427.71L326.5 427.46L326.56 427.21L326.63 426.96L326.69 426.71L326.76 426.45L326.82 426.18L326.89 425.92L326.97 425.65L327.04 425.37L327.12 425.09L327.2 424.81L327.28 424.52L327.36 424.23L327.45 423.94L327.54 423.64L327.63 423.33L327.72 423.02L327.82 422.71L327.91 422.39L328.01 422.07L328.11 421.75L328.22 421.42L328.33 421.08L328.43 420.74L328.55 420.4L328.66 420.05L328.66 420.04L328.67 420.01L328.68 419.99L398.15 216.42L398.21 216.24L398.27 216.06L398.33 215.88L398.4 215.7L398.46 215.52L398.53 215.35L398.59 215.17L398.66 215L398.73 214.83L398.8 214.66L398.87 214.49L398.94 214.32L399.01 214.16L399.08 213.99L399.16 213.83L399.23 213.67L399.31 213.51L399.38 213.35L399.46 213.2L399.54 213.04L399.62 212.89L399.7 212.73L399.78 212.58L399.86 212.43L399.94 212.29L400.03 212.14L400.11 212L400.2 211.85L400.28 211.71L400.37 211.57L400.46 211.43L400.54 211.29L400.63 211.16L400.72 211.03L400.81 210.89L400.91 210.76L401 210.63L401.09 210.51L401.19 210.38L401.28 210.26L401.39 210.11L401.51 209.96L401.62 209.81L401.74 209.67L401.86 209.53L401.99 209.39L402.11 209.25L402.24 209.11L402.38 208.98L402.51 208.85L402.65 208.72L402.79 208.59L402.94 208.46L403.08 208.34L403.23 208.22L403.38 208.1L403.54 207.98L403.7 207.86L403.86 207.75L404.02 207.64L404.19 207.53L404.36 207.42L404.54 207.31L404.71 207.21L404.89 207.1L405.07 207L405.26 206.9L405.45 206.81L405.64 206.71L405.83 206.62L406.03 206.52L406.23 206.43L406.43 206.35L406.64 206.26L406.85 206.18L407.06 206.09L407.28 206.01L407.5 205.93L407.72 205.86L407.95 205.78L408.14 205.72L408.33 205.66L408.53 205.6L408.72 205.55L408.92 205.49L409.13 205.44L409.33 205.38L409.54 205.33L409.75 205.28L409.97 205.23L410.18 205.19L410.4 205.14L410.62 205.09L410.84 205.05L411.07 205L411.3 204.96L411.53 204.92L411.76 204.88L412 204.84L412.24 204.81L412.48 204.77L412.73 204.73L412.98 204.7L413.23 204.67L413.48 204.63L413.74 204.6L414 204.57L414.26 204.54L414.53 204.52L414.8 204.49L415.07 204.47L415.34 204.44L415.62 204.42L415.9 204.4L416.19 204.37L416.47 204.36L416.76 204.34L417.06 204.32L417.35 204.3L417.65 204.29L417.91 204.27L418.16 204.26L418.43 204.25L418.7 204.24L418.97 204.23L419.24 204.22L419.53 204.21L419.81 204.19L420.1 204.19L420.4 204.18L420.7 204.17L421.01 204.16L421.32 204.15L421.64 204.14L421.96 204.13L422.29 204.13L422.63 204.12L422.97 204.11L423.31 204.1L423.67 204.1L424.03 204.09L424.39 204.09L424.76 204.08L425.14 204.08L425.53 204.07L425.92 204.07L426.31 204.06L426.72 204.06L427.13 204.06L427.55 204.05L427.98 204.05L428.41 204.05L428.85 204.05L429.3 204.04L429.76 204.04L430.22 204.04L430.69 204.04L431.17 204.04L431.66 204.04L432.15 204.04L432.72 204.04L433.28 204.04ZM456.92 346.34L431.55 268.25L406.42 346.34L456.92 346.34Z" id="b6MddotYH"></path></defs><g><g><g><use xlink:href="#aahCMu0pb" opacity="1" fill="#ffffff" fill-opacity="1"></use><g><use xlink:href="#aahCMu0pb" opacity="1" fill-opacity="0" stroke="#000000" stroke-width="1" stroke-opacity="0"></use></g></g><g><use xlink:href="#b6MddotYH" opacity="1" fill="#ffffff" fill-opacity="1"></use><g><use xlink:href="#b6MddotYH" opacity="1" fill-opacity="0" stroke="#000000" stroke-width="1" stroke-opacity="0"></use></g></g></g></g></svg>