<?xml version="1.0" encoding="UTF-8" standalone="no"?>
<!DOCTYPE svg PUBLIC "-//W3C//DTD SVG 1.1//EN" "http://www.w3.org/Graphics/SVG/1.1/DTD/svg11.dtd">
<svg version="1.1" xmlns="http://www.w3.org/2000/svg" xmlns:xlink="http://www.w3.org/1999/xlink" preserveAspectRatio="xMidYMid meet" viewBox="0 0 640 640" width="640" height="640"><defs><path d="M162.2 177.51L162.58 177.51L162.96 177.52L163.34 177.52L163.71 177.53L164.08 177.53L164.45 177.54L164.81 177.54L165.17 177.55L165.53 177.56L165.88 177.57L166.24 177.58L166.58 177.59L166.93 177.61L167.27 177.62L167.61 177.63L167.94 177.65L168.27 177.66L168.6 177.68L168.93 177.7L169.25 177.71L169.57 177.73L169.88 177.75L170.19 177.77L170.5 177.8L170.81 177.82L171.11 177.84L171.41 177.87L171.7 177.89L171.99 177.92L172.28 177.94L172.57 177.97L172.85 178L173.13 178.03L173.4 178.06L173.67 178.09L173.94 178.12L174.2 178.15L174.46 178.18L174.76 178.22L175.06 178.26L175.35 178.3L175.63 178.34L175.91 178.38L176.19 178.42L176.46 178.46L176.73 178.5L177 178.54L177.26 178.58L177.51 178.62L177.76 178.67L178.01 178.71L178.26 178.75L178.5 178.79L178.73 178.84L178.97 178.88L179.19 178.93L179.42 178.97L179.64 179.02L179.86 179.06L180.08 179.11L180.29 179.16L180.5 179.21L180.7 179.25L180.91 179.3L181.11 179.35L181.3 179.4L181.5 179.45L181.69 179.51L181.87 179.56L182.06 179.61L182.24 179.66L182.42 179.72L182.6 179.77L182.77 179.83L182.95 179.88L183.12 179.94L183.28 180L183.45 180.06L183.66 180.13L183.87 180.21L184.07 180.29L184.28 180.37L184.48 180.46L184.68 180.54L184.87 180.63L185.07 180.71L185.26 180.8L185.45 180.89L185.64 180.99L185.82 181.08L186 181.17L186.18 181.27L186.36 181.37L186.53 181.47L186.71 181.57L186.88 181.68L187.05 181.78L187.21 181.89L187.37 181.99L187.53 182.1L187.69 182.21L187.85 182.33L188 182.44L188.15 182.56L188.3 182.67L188.45 182.79L188.59 182.91L188.73 183.03L188.87 183.16L189 183.28L189.14 183.41L189.27 183.53L189.4 183.66L189.52 183.79L189.64 183.92L189.77 184.06L189.88 184.19L190 184.33L190.01 184.34L190.03 184.37L190.05 184.39L190.06 184.41L190.08 184.43L190.09 184.45L190.11 184.46L190.23 184.62L190.34 184.78L190.46 184.94L190.57 185.1L190.68 185.26L190.78 185.42L190.89 185.59L190.99 185.75L191.08 185.92L191.18 186.09L191.27 186.26L191.36 186.43L191.44 186.6L191.52 186.78L191.6 186.95L191.68 187.13L191.75 187.31L191.82 187.49L191.89 187.67L191.95 187.85L192.01 188.03L192.07 188.22L192.13 188.4L192.18 188.58L192.23 188.77L192.27 188.96L192.32 189.15L192.36 189.34L192.39 189.53L192.43 189.72L192.46 189.91L192.48 190.1L192.51 190.29L192.53 190.49L192.54 190.68L192.56 190.88L192.57 191.07L192.58 191.27L192.58 191.47L192.58 191.67L192.58 245.37L192.58 245.6L192.57 245.82L192.55 246.05L192.51 246.27L192.48 246.48L192.43 246.7L192.4 246.81L192.4 268.82L192.58 270.24L192.4 271.66L192.4 293.68L192.43 293.78L192.47 294L192.51 294.22L192.54 294.44L192.57 294.66L192.58 294.88L192.58 295.11L192.59 348.82L192.59 349.55L192.59 350.29L192.61 351.02L192.62 351.74L192.64 352.46L192.67 353.17L192.69 353.88L192.73 354.59L192.76 355.29L192.81 355.99L192.85 356.68L192.9 357.36L192.96 358.05L193.02 358.72L193.08 359.4L193.15 360.06L193.22 360.73L193.3 361.38L193.38 362.04L193.47 362.68L193.56 363.33L193.65 363.96L193.75 364.6L193.85 365.22L193.96 365.85L194.07 366.46L194.19 367.08L194.31 367.68L194.44 368.29L194.56 368.88L194.7 369.47L194.84 370.06L194.98 370.64L195.13 371.22L195.28 371.79L195.43 372.35L195.59 372.91L195.76 373.47L195.92 374.02L196.1 374.56L196.27 375.08L196.44 375.6L196.62 376.11L196.8 376.62L196.99 377.12L197.17 377.62L197.37 378.11L197.56 378.6L197.76 379.09L197.97 379.57L198.17 380.04L198.38 380.51L198.6 380.97L198.81 381.44L199.04 381.89L199.26 382.34L199.49 382.79L199.72 383.23L199.95 383.67L200.19 384.1L200.43 384.52L200.68 384.95L200.93 385.36L201.18 385.77L201.44 386.18L201.7 386.58L201.96 386.98L202.23 387.37L202.5 387.76L202.77 388.14L203.04 388.52L203.32 388.89L203.61 389.26L203.89 389.62L204.18 389.98L204.48 390.33L204.77 390.68L205.07 391.02L205.38 391.36L205.68 391.69L206 392.02L206.32 392.36L206.64 392.69L206.96 393.01L207.29 393.33L207.62 393.65L207.95 393.96L208.29 394.26L208.62 394.57L208.97 394.87L209.31 395.16L209.66 395.45L210.01 395.74L210.36 396.02L210.72 396.29L211.08 396.57L211.44 396.83L211.81 397.1L212.18 397.36L212.55 397.61L212.92 397.86L213.3 398.11L213.68 398.35L214.06 398.59L214.44 398.82L214.83 399.05L215.22 399.28L215.62 399.5L216.01 399.71L216.41 399.93L216.81 400.13L217.22 400.33L217.63 400.53L218.04 400.73L218.45 400.92L218.87 401.1L219.28 401.28L219.7 401.46L220.13 401.63L220.55 401.79L221 401.96L221.45 402.13L221.9 402.29L222.36 402.45L222.82 402.6L223.28 402.75L223.74 402.89L224.21 403.03L224.68 403.17L225.15 403.3L225.63 403.42L226.11 403.55L226.59 403.66L227.08 403.78L227.56 403.89L228.05 403.99L228.55 404.09L229.04 404.19L229.54 404.28L230.04 404.37L230.54 404.46L231.05 404.54L231.56 404.61L232.07 404.68L232.59 404.75L233.1 404.81L233.62 404.87L234.15 404.93L234.67 404.98L235.2 405.02L235.73 405.06L236.26 405.1L236.8 405.13L237.33 405.16L237.87 405.18L238.42 405.2L238.96 405.22L239.51 405.23L240.06 405.24L240.61 405.24L241.17 405.24L241.72 405.23L242.28 405.22L242.83 405.2L243.37 405.18L243.92 405.16L244.46 405.13L245 405.09L245.54 405.06L246.07 405.01L246.6 404.97L247.13 404.92L247.65 404.86L248.18 404.8L248.69 404.74L249.21 404.67L249.72 404.59L250.23 404.51L250.74 404.43L251.24 404.35L251.74 404.25L252.24 404.16L252.74 404.06L253.23 403.95L253.72 403.85L254.2 403.73L254.68 403.61L255.16 403.49L255.64 403.37L256.11 403.24L256.58 403.1L257.04 402.96L257.51 402.82L257.97 402.67L258.42 402.52L258.88 402.36L259.32 402.2L259.77 402.03L260.21 401.86L260.65 401.69L261.08 401.51L261.51 401.33L261.93 401.15L262.35 400.97L262.77 400.78L263.18 400.58L263.59 400.39L263.99 400.19L264.39 399.98L264.79 399.77L265.18 399.56L265.57 399.35L265.96 399.13L266.34 398.91L266.72 398.68L267.1 398.45L267.47 398.21L267.84 397.98L268.21 397.73L268.57 397.49L268.93 397.24L269.29 396.98L269.64 396.72L269.99 396.46L270.34 396.2L270.68 395.93L271.02 395.65L271.36 395.37L271.69 395.09L272.03 394.8L272.35 394.51L272.68 394.22L273 393.92L273.32 393.62L273.64 393.31L273.95 393L274.27 392.68L274.57 392.36L274.88 392.04L275.18 391.71L275.48 391.36L275.78 391.02L276.07 390.67L276.36 390.31L276.64 389.95L276.93 389.59L277.2 389.23L277.48 388.86L277.75 388.48L278.02 388.11L278.29 387.73L278.55 387.34L278.81 386.96L279.06 386.56L279.31 386.17L279.56 385.77L279.81 385.37L280.05 384.96L280.28 384.55L280.52 384.14L280.75 383.72L280.98 383.3L281.2 382.88L281.42 382.45L281.64 382.02L281.85 381.58L282.06 381.15L282.27 380.7L282.47 380.26L282.67 379.81L282.86 379.36L283.06 378.9L283.24 378.45L283.43 377.98L283.61 377.52L283.79 377.05L283.96 376.58L284.13 376.1L284.3 375.62L284.46 375.14L284.63 374.63L284.79 374.12L284.95 373.61L285.1 373.09L285.25 372.56L285.39 372.04L285.53 371.5L285.67 370.97L285.8 370.43L285.93 369.89L286.05 369.34L286.17 368.79L286.29 368.24L286.4 367.68L286.5 367.11L286.61 366.55L286.71 365.98L286.8 365.41L286.89 364.83L286.98 364.25L287.06 363.66L287.14 363.08L287.21 362.49L287.28 361.89L287.35 361.29L287.41 360.69L287.46 360.08L287.52 359.48L287.57 358.86L287.61 358.25L287.65 357.63L287.69 357L287.72 356.38L287.74 355.75L287.77 355.12L287.79 354.48L287.8 353.84L287.81 353.2L287.82 352.55L287.82 351.9L287.82 191.67L287.82 191.48L287.83 191.29L287.83 191.1L287.84 190.91L287.86 190.72L287.87 190.54L287.89 190.35L287.91 190.17L287.94 189.98L287.97 189.79L288 189.61L288.03 189.43L288.07 189.24L288.11 189.06L288.15 188.88L288.19 188.7L288.24 188.52L288.29 188.34L288.34 188.16L288.4 187.99L288.46 187.81L288.52 187.63L288.58 187.46L288.65 187.29L288.72 187.11L288.79 186.94L288.87 186.77L288.94 186.6L289.02 186.43L289.11 186.27L289.19 186.1L289.28 185.93L289.37 185.77L289.47 185.61L289.56 185.44L289.66 185.28L289.76 185.13L289.87 184.97L289.98 184.81L290.09 184.66L290.19 184.51L290.3 184.36L290.42 184.22L290.53 184.08L290.65 183.94L290.77 183.8L290.9 183.66L291.03 183.52L291.16 183.39L291.29 183.26L291.43 183.13L291.57 183L291.72 182.87L291.86 182.74L292.01 182.62L292.17 182.5L292.32 182.38L292.48 182.26L292.65 182.14L292.81 182.02L292.98 181.91L293.15 181.8L293.33 181.68L293.5 181.58L293.69 181.47L293.87 181.36L294.06 181.26L294.25 181.15L294.44 181.05L294.63 180.95L294.83 180.86L295.03 180.76L295.24 180.67L295.45 180.57L295.66 180.48L295.87 180.4L296.09 180.31L296.31 180.22L296.53 180.14L296.75 180.06L296.92 180L297.09 179.94L297.26 179.88L297.43 179.83L297.6 179.77L297.78 179.72L297.96 179.66L298.15 179.61L298.33 179.56L298.52 179.51L298.71 179.46L298.91 179.4L299.11 179.35L299.31 179.3L299.52 179.26L299.72 179.21L299.94 179.16L300.15 179.11L300.37 179.07L300.59 179.02L300.82 178.97L301.05 178.93L301.28 178.88L301.52 178.84L301.76 178.8L302.01 178.75L302.26 178.71L302.51 178.67L302.77 178.62L303.03 178.58L303.3 178.54L303.57 178.5L303.84 178.46L304.12 178.42L304.41 178.38L304.7 178.34L304.99 178.3L305.29 178.26L305.59 178.22L305.9 178.18L306.17 178.15L306.44 178.12L306.72 178.08L307 178.05L307.28 178.02L307.57 178L307.86 177.97L308.15 177.94L308.45 177.91L308.74 177.89L309.05 177.86L309.35 177.84L309.66 177.82L309.97 177.79L310.28 177.77L310.6 177.75L310.92 177.73L311.25 177.71L311.57 177.7L311.9 177.68L312.23 177.66L312.57 177.65L312.91 177.63L313.25 177.62L313.59 177.6L313.94 177.59L314.29 177.58L314.65 177.57L315 177.56L315.36 177.55L315.72 177.54L316.09 177.54L316.46 177.53L316.83 177.53L317.2 177.52L317.58 177.52L317.96 177.51L318.34 177.51L318.73 177.51L319.11 177.51L319.5 177.51L319.89 177.51L320.27 177.51L320.65 177.52L321.03 177.52L321.4 177.53L321.77 177.53L322.13 177.54L322.5 177.54L322.86 177.55L323.22 177.56L323.57 177.57L323.92 177.58L324.27 177.59L324.61 177.61L324.96 177.62L325.29 177.63L325.63 177.65L325.96 177.66L326.29 177.68L326.61 177.7L326.93 177.71L327.25 177.73L327.57 177.75L327.88 177.77L328.19 177.8L328.49 177.82L328.79 177.84L329.09 177.87L329.39 177.89L329.68 177.92L329.97 177.94L330.25 177.97L330.53 178L330.81 178.03L331.09 178.06L331.36 178.09L331.62 178.12L331.89 178.15L332.15 178.18L332.45 178.22L332.74 178.26L333.03 178.3L333.31 178.34L333.59 178.38L333.87 178.42L334.14 178.46L334.4 178.5L334.67 178.55L334.92 178.59L335.18 178.63L335.43 178.67L335.67 178.71L335.92 178.76L336.16 178.8L336.39 178.84L336.62 178.89L336.85 178.93L337.07 178.98L337.29 179.02L337.51 179.07L337.72 179.12L337.94 179.16L338.14 179.21L338.35 179.26L338.55 179.31L338.75 179.36L338.94 179.41L339.13 179.46L339.32 179.51L339.51 179.56L339.69 179.61L339.87 179.67L340.05 179.72L340.23 179.78L340.4 179.83L340.57 179.89L340.74 179.94L340.9 180L341.07 180.06L341.29 180.14L341.52 180.22L341.73 180.31L341.95 180.4L342.16 180.48L342.37 180.57L342.58 180.67L342.79 180.76L342.99 180.86L343.19 180.95L343.38 181.05L343.57 181.15L343.76 181.26L343.95 181.36L344.13 181.47L344.32 181.57L344.49 181.68L344.67 181.8L344.84 181.91L345.01 182.02L345.17 182.14L345.34 182.26L345.5 182.38L345.65 182.5L345.8 182.62L345.95 182.74L346.1 182.87L346.25 183L346.39 183.13L346.53 183.26L346.66 183.39L346.79 183.52L346.92 183.66L347.05 183.8L347.17 183.94L347.29 184.08L347.4 184.22L347.52 184.36L347.63 184.51L347.73 184.65L347.84 184.81L347.95 184.97L348.06 185.12L348.16 185.28L348.26 185.44L348.35 185.61L348.45 185.77L348.54 185.93L348.63 186.1L348.71 186.26L348.8 186.43L348.88 186.6L348.95 186.77L349.03 186.94L349.1 187.11L349.17 187.28L349.24 187.46L349.3 187.63L349.36 187.81L349.42 187.99L349.48 188.16L349.53 188.34L349.58 188.52L349.63 188.7L349.67 188.88L349.72 189.06L349.75 189.24L349.79 189.43L349.82 189.61L349.85 189.79L349.88 189.98L349.91 190.16L349.93 190.35L349.95 190.54L349.96 190.72L349.98 190.91L349.99 191.1L349.99 191.29L350 191.48L350 191.67L350 351.2L350 352.47L349.98 353.73L349.96 354.99L349.93 356.24L349.88 357.48L349.83 358.72L349.77 359.95L349.71 361.18L349.63 362.4L349.54 363.61L349.44 364.82L349.34 366.02L349.22 367.21L349.1 368.4L348.97 369.58L348.82 370.75L348.67 371.92L348.51 373.08L348.34 374.24L348.16 375.38L347.98 376.52L347.78 377.66L347.57 378.79L347.36 379.91L347.14 381.02L346.9 382.13L346.66 383.22L346.41 384.32L346.15 385.4L345.88 386.48L345.6 387.55L345.31 388.61L345.02 389.67L344.71 390.72L344.4 391.76L344.08 392.8L343.74 393.82L343.4 394.84L343.05 395.85L342.69 396.86L342.32 397.88L341.95 398.89L341.56 399.89L341.17 400.88L340.76 401.87L340.35 402.85L339.92 403.83L339.49 404.79L339.05 405.75L338.6 406.7L338.14 407.64L337.68 408.58L337.2 409.51L336.71 410.43L336.22 411.34L335.72 412.25L335.2 413.15L334.68 414.04L334.15 414.92L333.62 415.79L333.07 416.66L332.51 417.52L331.95 418.37L331.37 419.21L330.79 420.05L330.2 420.88L329.6 421.7L328.99 422.51L328.38 423.31L327.75 424.11L327.12 424.89L326.48 425.67L325.83 426.44L325.17 427.2L324.5 427.96L323.82 428.7L323.14 429.44L322.45 430.17L321.74 430.89L321.03 431.6L320.31 432.31L319.58 433L318.85 433.69L318.1 434.37L317.34 435.05L316.58 435.71L315.81 436.37L315.03 437.01L314.24 437.65L313.44 438.28L312.64 438.9L311.82 439.52L311 440.12L310.17 440.72L309.33 441.31L308.49 441.89L307.63 442.46L306.77 443.02L305.9 443.57L305.02 444.12L304.13 444.66L303.24 445.18L302.33 445.7L301.42 446.21L300.5 446.71L299.58 447.21L298.64 447.69L297.7 448.17L296.75 448.63L295.79 449.09L294.83 449.54L293.85 449.98L292.87 450.41L291.88 450.84L290.89 451.25L289.88 451.65L288.87 452.05L287.85 452.44L286.83 452.81L285.79 453.18L284.77 453.54L283.73 453.89L282.68 454.23L281.63 454.56L280.57 454.89L279.49 455.2L278.42 455.51L277.33 455.8L276.23 456.09L275.13 456.37L274.02 456.64L272.9 456.9L271.77 457.15L270.64 457.39L269.5 457.62L268.35 457.85L267.19 458.06L266.02 458.27L264.85 458.47L263.67 458.65L262.48 458.83L261.28 459L260.08 459.16L258.87 459.31L257.65 459.46L256.42 459.59L255.19 459.71L253.95 459.83L252.7 459.93L251.45 460.03L250.18 460.12L248.92 460.2L247.64 460.26L246.36 460.32L245.07 460.37L243.77 460.42L242.47 460.45L241.15 460.47L239.84 460.49L238.51 460.49L237.28 460.49L236.05 460.47L234.82 460.45L233.6 460.42L232.39 460.39L231.18 460.34L229.98 460.29L228.78 460.23L227.59 460.16L226.4 460.08L225.22 460L224.04 459.9L222.87 459.8L221.71 459.69L220.55 459.57L219.4 459.45L218.25 459.31L217.11 459.17L215.98 459.02L214.85 458.86L213.72 458.69L212.61 458.52L211.5 458.33L210.39 458.14L209.29 457.94L208.2 457.74L207.11 457.52L206.03 457.3L204.96 457.07L203.89 456.83L202.83 456.58L201.78 456.33L200.73 456.06L199.69 455.79L198.66 455.51L197.63 455.22L196.61 454.93L195.59 454.63L194.58 454.31L193.58 454L192.57 453.66L191.56 453.31L190.56 452.96L189.57 452.59L188.59 452.22L187.61 451.84L186.64 451.45L185.68 451.05L184.73 450.64L183.78 450.22L182.84 449.8L181.91 449.36L180.99 448.92L180.07 448.47L179.16 448.01L178.26 447.54L177.37 447.07L176.48 446.58L175.6 446.09L174.73 445.58L173.87 445.07L173.02 444.55L172.17 444.02L171.34 443.49L170.51 442.94L169.68 442.39L168.87 441.83L168.06 441.26L167.27 440.68L166.48 440.09L165.69 439.5L164.92 438.89L164.16 438.28L163.4 437.66L162.65 437.03L161.91 436.4L161.18 435.75L160.45 435.1L159.74 434.44L159.03 433.77L158.33 433.08L157.63 432.39L156.95 431.69L156.27 430.99L155.6 430.27L154.93 429.54L154.28 428.81L153.63 428.07L153 427.31L152.37 426.55L151.74 425.79L151.13 425.01L150.53 424.22L149.93 423.43L149.34 422.62L148.76 421.81L148.19 420.99L147.63 420.17L147.07 419.33L146.52 418.48L145.99 417.63L145.46 416.77L144.93 415.9L144.42 415.02L143.92 414.14L143.42 413.24L142.93 412.34L142.45 411.43L141.98 410.51L141.52 409.59L141.07 408.65L140.62 407.71L140.19 406.76L139.76 405.8L139.34 404.84L138.93 403.87L138.53 402.88L138.14 401.9L137.76 400.9L137.38 399.89L137.02 398.89L136.66 397.88L136.32 396.86L135.98 395.83L135.66 394.79L135.34 393.74L135.03 392.69L134.73 391.62L134.44 390.55L134.16 389.47L133.89 388.38L133.63 387.29L133.37 386.18L133.13 385.07L132.89 383.95L132.67 382.82L132.45 381.69L132.24 380.54L132.04 379.39L131.85 378.23L131.67 377.06L131.5 375.89L131.34 374.7L131.19 373.51L131.04 372.31L130.91 371.11L130.78 369.89L130.67 368.67L130.56 367.44L130.46 366.21L130.38 364.96L130.3 363.71L130.23 362.46L130.17 361.19L130.12 359.92L130.07 358.64L130.04 357.35L130.02 356.06L130 354.75L130 353.45L130 191.67L130 191.48L130.01 191.29L130.01 191.1L130.02 190.91L130.04 190.72L130.05 190.54L130.07 190.35L130.09 190.16L130.12 189.98L130.15 189.79L130.18 189.61L130.21 189.43L130.25 189.24L130.28 189.06L130.33 188.88L130.37 188.7L130.42 188.52L130.47 188.34L130.52 188.16L130.58 187.98L130.64 187.81L130.7 187.63L130.76 187.46L130.83 187.28L130.9 187.11L130.97 186.94L131.05 186.77L131.12 186.6L131.2 186.43L131.29 186.26L131.37 186.1L131.46 185.93L131.55 185.77L131.65 185.6L131.74 185.44L131.84 185.28L131.95 185.12L132.05 184.96L132.16 184.81L132.27 184.65L132.38 184.5L132.49 184.36L132.6 184.21L132.72 184.07L132.84 183.92L132.97 183.78L133.09 183.65L133.22 183.51L133.36 183.37L133.49 183.24L133.63 183.11L133.78 182.98L133.92 182.85L134.07 182.72L134.23 182.6L134.38 182.47L134.54 182.35L134.7 182.23L134.87 182.11L135.04 182L135.21 181.88L135.38 181.77L135.56 181.66L135.74 181.55L135.93 181.44L136.11 181.33L136.3 181.23L136.5 181.13L136.69 181.03L136.89 180.93L137.1 180.83L137.3 180.74L137.51 180.64L137.72 180.55L137.93 180.46L138.15 180.37L138.37 180.29L138.6 180.2L138.82 180.12L139.05 180.04L139.22 179.98L139.39 179.92L139.56 179.87L139.74 179.81L139.91 179.76L140.09 179.71L140.27 179.65L140.46 179.6L140.65 179.55L140.84 179.5L141.03 179.45L141.22 179.4L141.42 179.35L141.62 179.3L141.83 179.25L142.04 179.2L142.25 179.16L142.46 179.11L142.68 179.06L142.9 179.02L143.13 178.97L143.35 178.93L143.59 178.88L143.82 178.84L144.06 178.79L144.3 178.75L144.55 178.71L144.8 178.67L145.05 178.62L145.31 178.58L145.58 178.54L145.84 178.5L146.11 178.46L146.39 178.42L146.67 178.38L146.95 178.34L147.24 178.3L147.54 178.26L147.83 178.22L148.14 178.18L148.39 178.15L148.66 178.12L148.93 178.09L149.2 178.06L149.47 178.03L149.75 178L150.03 177.97L150.32 177.94L150.61 177.91L150.91 177.89L151.2 177.86L151.5 177.84L151.81 177.82L152.12 177.8L152.43 177.77L152.75 177.75L153.07 177.73L153.39 177.71L153.72 177.7L154.05 177.68L154.39 177.66L154.73 177.65L155.07 177.63L155.41 177.62L155.76 177.61L156.12 177.59L156.47 177.58L156.83 177.57L157.2 177.56L157.56 177.55L157.93 177.54L158.31 177.54L158.69 177.53L159.07 177.53L159.45 177.52L159.84 177.52L160.23 177.51L160.63 177.51L161.03 177.51L161.43 177.51L161.82 177.51L162.2 177.51Z" id="a1hbm3atXV"></path><path d="M365 259.64L365.01 259.49L365.02 259.33L365.03 259.18L365.04 259.04L365.06 258.89L365.08 258.74L365.1 258.59L365.12 258.45L365.14 258.3L365.17 258.16L365.2 258.02L365.23 257.88L365.26 257.74L365.3 257.6L365.34 257.46L365.38 257.32L365.42 257.18L365.47 257.05L365.52 256.91L365.57 256.78L365.62 256.65L365.68 256.52L365.73 256.39L365.79 256.26L365.85 256.13L365.92 256L365.99 255.87L366.05 255.75L366.13 255.62L366.2 255.5L366.28 255.38L366.35 255.25L366.43 255.13L366.52 255.02L366.6 254.9L366.69 254.78L366.78 254.66L366.87 254.55L366.88 254.54L366.89 254.52L366.9 254.51L366.92 254.49L366.94 254.47L366.95 254.45L367.04 254.35L367.13 254.26L367.22 254.16L367.31 254.06L367.41 253.97L367.5 253.87L367.6 253.78L367.7 253.69L367.81 253.6L367.91 253.51L368.02 253.42L368.13 253.33L368.24 253.25L368.35 253.16L368.46 253.08L368.58 252.99L368.69 252.91L368.81 252.83L368.94 252.75L369.06 252.67L369.18 252.6L369.31 252.52L369.44 252.45L369.57 252.37L369.7 252.3L369.84 252.23L369.97 252.16L370.11 252.09L370.25 252.02L370.39 251.95L370.53 251.88L370.68 251.82L370.83 251.76L370.97 251.69L371.12 251.63L371.28 251.57L371.43 251.51L371.59 251.45L371.74 251.4L371.9 251.34L372.03 251.3L372.16 251.26L372.29 251.21L372.42 251.17L372.55 251.13L372.69 251.09L372.83 251.05L372.96 251.01L373.11 250.97L373.25 250.94L373.4 250.9L373.54 250.86L373.69 250.82L373.85 250.79L374 250.75L374.16 250.72L374.32 250.68L374.48 250.65L374.65 250.61L374.81 250.58L374.99 250.54L375.16 250.51L375.33 250.48L375.51 250.45L375.69 250.41L375.88 250.38L376.06 250.35L376.25 250.32L376.45 250.29L376.64 250.26L376.84 250.23L377.05 250.2L377.25 250.17L377.46 250.14L377.67 250.11L377.89 250.08L378.11 250.05L378.33 250.03L378.56 250L378.79 249.97L378.99 249.95L379.2 249.92L379.41 249.9L379.62 249.88L379.83 249.86L380.05 249.83L380.27 249.81L380.49 249.79L380.72 249.78L380.94 249.76L381.17 249.74L381.4 249.72L381.64 249.7L381.87 249.69L382.11 249.67L382.35 249.66L382.6 249.64L382.84 249.63L383.09 249.62L383.34 249.6L383.59 249.59L383.85 249.58L384.1 249.57L384.36 249.56L384.62 249.55L384.89 249.54L385.15 249.53L385.42 249.52L385.69 249.52L385.96 249.51L386.24 249.51L386.52 249.5L386.8 249.5L387.08 249.49L387.36 249.49L387.65 249.48L387.94 249.48L388.23 249.48L388.52 249.48L388.81 249.48L389.11 249.48L389.41 249.48L389.71 249.48L390.01 249.48L390.3 249.49L390.59 249.49L390.88 249.5L391.16 249.5L391.44 249.51L391.72 249.51L392 249.52L392.27 249.52L392.54 249.53L392.81 249.54L393.08 249.55L393.34 249.56L393.6 249.57L393.86 249.58L394.12 249.59L394.37 249.6L394.62 249.62L394.87 249.63L395.11 249.64L395.36 249.66L395.6 249.67L395.83 249.69L396.07 249.71L396.3 249.72L396.53 249.74L396.75 249.76L396.98 249.78L397.2 249.8L397.41 249.82L397.63 249.84L397.84 249.86L398.05 249.88L398.26 249.9L398.46 249.93L398.66 249.95L398.86 249.97L399.08 250L399.31 250.03L399.53 250.06L399.74 250.09L399.96 250.12L400.17 250.14L400.37 250.17L400.58 250.2L400.78 250.23L400.97 250.26L401.17 250.29L401.36 250.32L401.55 250.36L401.73 250.39L401.92 250.42L402.09 250.45L402.27 250.48L402.45 250.52L402.62 250.55L402.79 250.58L402.95 250.62L403.11 250.65L403.28 250.68L403.43 250.72L403.59 250.76L403.74 250.79L403.89 250.83L404.04 250.86L404.19 250.9L404.33 250.94L404.48 250.98L404.62 251.01L404.76 251.05L404.89 251.09L405.03 251.13L405.16 251.17L405.29 251.21L405.42 251.26L405.55 251.3L405.67 251.34L405.84 251.4L406.01 251.46L406.17 251.52L406.34 251.59L406.5 251.65L406.66 251.72L406.81 251.78L406.97 251.85L407.12 251.92L407.27 251.99L407.42 252.07L407.56 252.14L407.71 252.21L407.85 252.29L407.98 252.37L408.12 252.44L408.26 252.52L408.39 252.61L408.52 252.69L408.64 252.77L408.77 252.86L408.89 252.94L409.01 253.03L409.13 253.12L409.25 253.21L409.36 253.3L409.47 253.39L409.58 253.48L409.69 253.57L409.79 253.67L409.89 253.77L409.99 253.86L410.09 253.96L410.19 254.06L410.28 254.16L410.37 254.27L410.46 254.37L410.54 254.48L410.63 254.58L410.71 254.69L410.79 254.8L410.87 254.92L410.95 255.04L411.03 255.15L411.11 255.27L411.18 255.39L411.25 255.51L411.32 255.63L411.39 255.76L411.46 255.88L411.52 256L411.58 256.13L411.64 256.25L411.69 256.38L411.75 256.51L411.8 256.64L411.85 256.76L411.9 256.89L411.95 257.02L411.99 257.16L412.03 257.29L412.07 257.42L412.11 257.55L412.14 257.69L412.18 257.82L412.21 257.96L412.24 258.1L412.26 258.23L412.29 258.37L412.31 258.51L412.33 258.65L412.35 258.79L412.37 258.93L412.38 259.08L412.39 259.22L412.4 259.36L412.41 259.51L412.42 259.65L412.42 259.8L412.42 259.94L412.42 326.53L462.18 257.76L462.2 257.72L462.23 257.68L462.24 257.66L462.27 257.63L462.3 257.59L462.32 257.55L462.36 257.5L462.39 257.46L462.41 257.42L462.44 257.39L462.47 257.35L462.5 257.3L462.53 257.26L462.56 257.22L462.58 257.19L462.64 257.09L462.75 256.95L462.8 256.87L462.85 256.79L462.91 256.71L462.96 256.64L463.02 256.56L463.07 256.48L463.13 256.4L463.19 256.32L463.24 256.24L463.3 256.16L463.36 256.08L463.42 256L463.48 255.92L463.54 255.84L463.6 255.76L463.66 255.68L463.73 255.6L463.79 255.52L463.85 255.44L463.92 255.36L463.99 255.28L464.05 255.19L464.12 255.11L464.19 255.03L464.26 254.95L464.33 254.87L464.4 254.79L464.48 254.71L464.55 254.63L464.62 254.55L464.7 254.47L464.78 254.39L464.86 254.32L464.94 254.24L465.02 254.16L465.1 254.08L465.18 254L465.27 253.93L465.36 253.85L465.46 253.76L465.56 253.67L465.67 253.59L465.78 253.5L465.89 253.42L466 253.33L466.11 253.25L466.23 253.16L466.34 253.08L466.46 253L466.58 252.92L466.7 252.84L466.82 252.76L466.94 252.69L467.07 252.61L467.2 252.53L467.32 252.46L467.45 252.39L467.58 252.31L467.71 252.24L467.85 252.17L467.98 252.1L468.12 252.03L468.26 251.96L468.4 251.9L468.54 251.83L468.68 251.77L468.82 251.7L468.97 251.64L469.12 251.58L469.26 251.52L469.41 251.45L469.56 251.4L469.71 251.34L469.87 251.28L470.02 251.22L470.18 251.17L470.34 251.11L470.5 251.06L470.66 251.01L470.66 251.01L470.68 251L470.71 250.99L470.73 250.99L470.75 250.98L470.77 250.97L470.91 250.93L471.06 250.89L471.21 250.85L471.36 250.81L471.51 250.77L471.66 250.73L471.82 250.7L471.97 250.66L472.13 250.62L472.29 250.59L472.45 250.55L472.61 250.52L472.77 250.48L472.94 250.45L473.1 250.42L473.27 250.38L473.44 250.35L473.61 250.32L473.78 250.29L473.96 250.26L474.13 250.23L474.31 250.2L474.48 250.18L474.66 250.15L474.84 250.12L475.03 250.1L475.21 250.07L475.39 250.05L475.58 250.02L475.77 250L475.96 249.98L476.15 249.95L476.34 249.93L476.53 249.91L476.73 249.89L476.92 249.87L477.12 249.85L477.32 249.84L477.52 249.82L477.72 249.8L477.92 249.79L478.12 249.77L478.32 249.75L478.53 249.74L478.74 249.73L478.95 249.71L479.16 249.7L479.38 249.68L479.6 249.67L479.82 249.66L480.04 249.65L480.27 249.64L480.5 249.63L480.73 249.61L480.96 249.6L481.2 249.59L481.43 249.59L481.67 249.58L481.92 249.57L482.16 249.56L482.41 249.55L482.66 249.54L482.92 249.54L483.17 249.53L483.43 249.52L483.69 249.52L483.96 249.51L484.22 249.51L484.49 249.5L484.77 249.5L485.04 249.5L485.32 249.49L485.6 249.49L485.88 249.49L486.17 249.48L486.46 249.48L486.75 249.48L487.05 249.48L487.34 249.48L487.64 249.48L487.96 249.48L488.27 249.48L488.57 249.48L488.88 249.48L489.18 249.49L489.47 249.49L489.77 249.49L490.06 249.5L490.35 249.5L490.64 249.51L490.92 249.52L491.2 249.52L491.48 249.53L491.75 249.54L492.03 249.55L492.3 249.56L492.56 249.57L492.83 249.58L493.09 249.59L493.35 249.6L493.61 249.61L493.86 249.63L494.11 249.64L494.36 249.65L494.61 249.67L494.85 249.69L495.1 249.7L495.33 249.72L495.57 249.74L495.81 249.75L496.04 249.77L496.27 249.79L496.49 249.81L496.72 249.83L496.94 249.85L497.16 249.88L497.38 249.9L497.6 249.92L497.81 249.95L498.02 249.97L498.24 250L498.46 250.02L498.68 250.05L498.89 250.08L499.11 250.11L499.32 250.14L499.52 250.17L499.73 250.2L499.93 250.23L500.13 250.26L500.33 250.29L500.52 250.32L500.71 250.35L500.9 250.38L501.09 250.42L501.27 250.45L501.46 250.49L501.64 250.52L501.82 250.56L501.99 250.59L502.17 250.63L502.34 250.67L502.51 250.71L502.68 250.74L502.84 250.78L503.01 250.82L503.17 250.86L503.33 250.9L503.49 250.94L503.65 250.99L503.8 251.03L503.95 251.07L504.11 251.12L504.25 251.16L504.4 251.21L504.55 251.25L504.69 251.3L504.84 251.35L504.98 251.39L505.12 251.44L505.28 251.5L505.45 251.56L505.61 251.62L505.78 251.68L505.94 251.75L506.09 251.81L506.25 251.88L506.41 251.95L506.56 252.02L506.71 252.09L506.86 252.16L507 252.23L507.15 252.31L507.29 252.38L507.43 252.46L507.57 252.54L507.7 252.62L507.84 252.71L507.97 252.79L508.1 252.87L508.23 252.96L508.35 253.05L508.47 253.14L508.59 253.23L508.71 253.32L508.83 253.41L508.94 253.51L509.05 253.6L509.16 253.7L509.27 253.8L509.38 253.9L509.48 254L509.58 254.1L509.67 254.2L509.77 254.3L509.86 254.41L509.95 254.52L510.04 254.62L510.13 254.73L510.21 254.84L510.29 254.96L510.37 255.07L510.45 255.19L510.53 255.3L510.61 255.42L510.68 255.54L510.75 255.66L510.82 255.78L510.89 255.9L510.95 256.02L511.02 256.14L511.08 256.26L511.14 256.38L511.19 256.51L511.25 256.63L511.3 256.76L511.35 256.88L511.4 257.01L511.45 257.14L511.49 257.26L511.53 257.39L511.57 257.52L511.61 257.65L511.64 257.78L511.68 257.91L511.71 258.04L511.74 258.17L511.76 258.31L511.79 258.44L511.81 258.57L511.83 258.71L511.85 258.84L511.87 258.98L511.88 259.11L511.89 259.25L511.9 259.39L511.91 259.53L511.91 259.67L511.92 259.8L511.92 259.94L511.92 260.11L511.91 260.28L511.91 260.45L511.9 260.62L511.89 260.79L511.88 260.96L511.87 261.13L511.85 261.3L511.83 261.47L511.81 261.65L511.79 261.82L511.77 261.99L511.74 262.16L511.71 262.33L511.68 262.5L511.65 262.68L511.61 262.85L511.57 263.02L511.54 263.2L511.49 263.37L511.45 263.54L511.4 263.72L511.36 263.89L511.31 264.07L511.25 264.24L511.2 264.42L511.14 264.6L511.08 264.77L511.02 264.95L510.96 265.13L510.89 265.31L510.82 265.49L510.75 265.67L510.68 265.85L510.61 266.03L510.53 266.21L510.45 266.39L510.37 266.57L510.29 266.75L510.2 266.94L510.2 266.94L510.19 266.96L510.18 266.99L510.17 267L510.15 267.04L510.14 267.06L510.07 267.2L509.99 267.35L509.91 267.5L509.83 267.66L509.74 267.82L509.65 267.98L509.56 268.15L509.47 268.32L509.37 268.49L509.27 268.67L509.17 268.85L509.06 269.04L508.95 269.23L508.84 269.42L508.73 269.62L508.61 269.82L508.49 270.02L508.36 270.23L508.24 270.45L508.11 270.66L507.97 270.88L507.84 271.11L507.7 271.34L507.56 271.58L507.41 271.81L507.26 272.06L507.11 272.31L506.95 272.56L506.8 272.82L506.63 273.08L506.47 273.34L506.3 273.61L506.13 273.89L505.95 274.17L505.77 274.45L505.59 274.74L505.4 275.04L505.22 275.34L505.02 275.64L504.83 275.95L504.82 275.96L504.82 275.96L504.8 275.99L504.79 276.01L504.78 276.02L504.77 276.04L504.75 276.07L504.74 276.08L504.74 276.08L504.72 276.1L504.71 276.12L504.7 276.14L504.69 276.15L504.68 276.16L504.66 276.19L504.64 276.21L504.64 276.22L504.63 276.23L453.06 343.95L509.67 429.58L509.68 429.59L509.69 429.61L509.69 429.62L509.71 429.65L509.71 429.65L509.72 429.66L509.72 429.67L509.74 429.69L509.75 429.71L509.76 429.72L509.77 429.75L509.78 429.75L509.78 429.76L509.79 429.79L509.8 429.8L509.81 429.82L509.83 429.84L509.83 429.85L509.84 429.87L509.85 429.89L510.02 430.2L510.18 430.51L510.35 430.82L510.51 431.11L510.66 431.41L510.81 431.7L510.96 431.98L511.11 432.27L511.25 432.54L511.39 432.81L511.53 433.08L511.66 433.34L511.79 433.6L511.92 433.85L512.05 434.1L512.17 434.34L512.29 434.57L512.4 434.81L512.51 435.04L512.62 435.26L512.73 435.48L512.83 435.69L512.93 435.9L513.02 436.1L513.11 436.3L513.2 436.49L513.29 436.68L513.37 436.87L513.45 437.05L513.53 437.22L513.6 437.39L513.67 437.55L513.74 437.71L513.8 437.87L513.86 438.02L513.92 438.16L513.97 438.3L514.02 438.43L514.07 438.56L514.11 438.69L514.16 438.81L514.2 438.94L514.24 439.07L514.28 439.19L514.32 439.32L514.36 439.44L514.39 439.56L514.43 439.69L514.47 439.81L514.5 439.93L514.53 440.05L514.56 440.17L514.59 440.29L514.62 440.41L514.65 440.53L514.68 440.64L514.71 440.76L514.73 440.87L514.75 440.99L514.78 441.1L514.8 441.22L514.82 441.33L514.84 441.44L514.86 441.55L514.87 441.66L514.89 441.77L514.91 441.88L514.92 441.99L514.93 442.1L514.94 442.2L514.95 442.31L514.96 442.42L514.97 442.52L514.98 442.62L514.99 442.73L514.99 442.83L514.99 442.93L515 443.03L515 443.13L515 443.23L515 443.37L515 443.52L514.99 443.66L514.98 443.81L514.98 443.95L514.97 444.09L514.95 444.23L514.94 444.37L514.92 444.51L514.91 444.65L514.89 444.79L514.86 444.92L514.84 445.06L514.82 445.19L514.79 445.33L514.76 445.46L514.73 445.59L514.7 445.72L514.66 445.86L514.63 445.98L514.59 446.11L514.55 446.24L514.5 446.37L514.46 446.49L514.41 446.62L514.37 446.74L514.32 446.86L514.27 446.99L514.21 447.11L514.16 447.23L514.1 447.35L514.04 447.46L513.98 447.58L513.92 447.7L513.86 447.81L513.79 447.93L513.72 448.04L513.65 448.15L513.58 448.26L513.51 448.37L513.4 448.53L513.29 448.68L513.18 448.83L513.07 448.97L512.95 449.11L512.83 449.25L512.71 449.38L512.59 449.51L512.46 449.64L512.33 449.76L512.2 449.87L512.07 449.99L511.94 450.1L511.81 450.21L511.67 450.31L511.54 450.41L511.4 450.51L511.27 450.6L511.13 450.69L510.99 450.78L510.85 450.87L510.72 450.95L510.58 451.03L510.44 451.11L510.3 451.18L510.16 451.25L510.03 451.32L509.89 451.39L509.75 451.45L509.62 451.51L509.49 451.57L509.35 451.63L509.22 451.69L509.09 451.74L508.97 451.79L508.84 451.84L508.72 451.89L508.59 451.93L508.47 451.98L508.36 452.02L508.22 452.07L508.08 452.12L507.94 452.16L507.79 452.21L507.65 452.26L507.5 452.3L507.35 452.35L507.2 452.39L507.05 452.44L506.89 452.48L506.74 452.52L506.58 452.57L506.41 452.61L506.25 452.65L506.08 452.69L505.92 452.73L505.74 452.77L505.57 452.81L505.39 452.84L505.22 452.88L505.03 452.92L504.85 452.95L504.67 452.99L504.48 453.02L504.29 453.06L504.09 453.09L503.9 453.13L503.7 453.16L503.49 453.19L503.29 453.22L503.08 453.25L502.87 453.28L502.66 453.31L502.44 453.34L502.22 453.37L502 453.4L501.78 453.43L501.55 453.46L501.32 453.49L501.08 453.51L500.87 453.54L500.64 453.56L500.42 453.58L500.2 453.61L499.97 453.63L499.74 453.65L499.51 453.67L499.27 453.69L499.04 453.71L498.8 453.73L498.56 453.75L498.31 453.76L498.06 453.78L497.82 453.8L497.56 453.81L497.31 453.83L497.05 453.84L496.79 453.85L496.53 453.87L496.27 453.88L496 453.89L495.73 453.9L495.46 453.91L495.19 453.92L494.91 453.93L494.63 453.94L494.35 453.95L494.06 453.96L493.77 453.96L493.48 453.97L493.19 453.98L492.89 453.98L492.59 453.99L492.29 453.99L491.99 453.99L491.68 454L491.37 454L491.05 454L490.74 454L490.42 454L489.91 454L489.42 454L488.93 454L488.44 453.99L487.97 453.99L487.5 453.98L487.04 453.98L486.58 453.97L486.14 453.96L485.7 453.95L485.26 453.94L484.84 453.93L484.42 453.91L484.01 453.9L483.6 453.89L483.21 453.87L482.82 453.85L482.43 453.83L482.05 453.82L481.68 453.8L481.32 453.77L480.97 453.75L480.62 453.73L480.27 453.7L479.94 453.68L479.61 453.65L479.28 453.63L478.97 453.6L478.66 453.57L478.36 453.54L478.06 453.51L477.77 453.47L477.49 453.44L477.21 453.4L476.94 453.37L476.67 453.33L476.42 453.29L476.17 453.26L475.92 453.22L475.68 453.17L475.42 453.13L475.16 453.08L474.9 453.04L474.65 452.99L474.4 452.94L474.16 452.89L473.91 452.83L473.67 452.78L473.44 452.72L473.2 452.66L472.97 452.6L472.75 452.54L472.52 452.48L472.3 452.41L472.09 452.34L471.87 452.27L471.66 452.2L471.46 452.13L471.25 452.05L471.05 451.98L470.85 451.9L470.66 451.82L470.47 451.74L470.28 451.66L470.09 451.57L469.91 451.48L469.73 451.4L469.56 451.31L469.38 451.21L469.21 451.12L469.04 451.02L468.88 450.93L468.72 450.83L468.56 450.72L468.4 450.62L468.25 450.52L468.1 450.41L467.96 450.3L467.81 450.19L467.67 450.08L467.55 449.98L467.43 449.88L467.31 449.77L467.19 449.67L467.08 449.57L466.97 449.46L466.86 449.36L466.75 449.25L466.65 449.14L466.54 449.04L466.44 448.93L466.34 448.82L466.24 448.71L466.14 448.6L466.05 448.49L465.95 448.38L465.86 448.27L465.77 448.16L465.68 448.05L465.59 447.94L465.5 447.83L465.42 447.72L465.33 447.61L465.25 447.5L465.17 447.39L465.09 447.28L465.01 447.16L464.93 447.05L464.85 446.94L464.77 446.83L464.7 446.72L464.62 446.61L464.55 446.5L464.47 446.4L464.4 446.29L464.33 446.18L464.25 446.07L464.18 445.97L464.11 445.86L464.04 445.75L463.94 445.6L412.42 368.18L412.42 443.38L412.42 443.53L412.42 443.67L412.41 443.81L412.4 443.96L412.39 444.1L412.38 444.24L412.37 444.38L412.35 444.52L412.33 444.67L412.31 444.81L412.29 444.94L412.26 445.08L412.23 445.22L412.21 445.36L412.17 445.5L412.14 445.63L412.1 445.77L412.07 445.9L412.03 446.03L411.98 446.17L411.94 446.3L411.89 446.43L411.85 446.56L411.79 446.69L411.74 446.82L411.69 446.95L411.63 447.08L411.57 447.2L411.51 447.33L411.45 447.45L411.38 447.57L411.32 447.7L411.25 447.82L411.18 447.94L411.1 448.06L411.03 448.18L410.95 448.29L410.87 448.41L410.79 448.52L410.71 448.64L410.63 448.75L410.54 448.85L410.46 448.96L410.37 449.06L410.28 449.17L410.18 449.27L410.09 449.37L409.99 449.47L409.89 449.57L409.79 449.67L409.68 449.77L409.57 449.86L409.46 449.96L409.35 450.05L409.24 450.14L409.12 450.23L409 450.32L408.88 450.41L408.76 450.5L408.64 450.58L408.51 450.67L408.38 450.75L408.25 450.83L408.12 450.91L407.98 450.99L407.84 451.07L407.71 451.15L407.57 451.22L407.42 451.3L407.28 451.37L407.13 451.44L406.98 451.51L406.83 451.58L406.68 451.65L406.53 451.71L406.37 451.78L406.21 451.84L406.05 451.9L405.89 451.96L405.73 452.02L405.6 452.07L405.46 452.11L405.33 452.16L405.19 452.21L405.05 452.25L404.91 452.3L404.77 452.35L404.62 452.39L404.48 452.43L404.33 452.48L404.18 452.52L404.02 452.56L403.87 452.6L403.71 452.64L403.56 452.68L403.39 452.72L403.23 452.76L403.07 452.8L402.9 452.84L402.73 452.87L402.56 452.91L402.39 452.95L402.21 452.98L402.03 453.02L401.85 453.05L401.67 453.09L401.49 453.12L401.3 453.15L401.11 453.18L400.92 453.22L400.72 453.25L400.52 453.28L400.32 453.31L400.12 453.34L399.91 453.37L399.71 453.4L399.5 453.43L399.28 453.45L399.07 453.48L398.85 453.51L398.65 453.53L398.45 453.56L398.25 453.58L398.04 453.6L397.83 453.62L397.62 453.64L397.41 453.66L397.19 453.68L396.97 453.7L396.75 453.72L396.52 453.74L396.3 453.76L396.06 453.78L395.83 453.79L395.59 453.81L395.35 453.82L395.11 453.84L394.87 453.85L394.62 453.86L394.37 453.88L394.12 453.89L393.86 453.9L393.6 453.91L393.34 453.92L393.08 453.93L392.81 453.94L392.54 453.95L392.27 453.96L392 453.96L391.72 453.97L391.44 453.97L391.16 453.98L390.88 453.98L390.59 453.99L390.3 453.99L390.01 454L389.71 454L389.41 454L389.11 454L388.81 454L388.52 454L388.23 454L387.94 454L387.65 454L387.36 453.99L387.08 453.99L386.8 453.98L386.52 453.98L386.24 453.97L385.97 453.97L385.69 453.96L385.42 453.96L385.15 453.95L384.89 453.94L384.62 453.93L384.36 453.92L384.1 453.91L383.85 453.9L383.59 453.89L383.34 453.88L383.09 453.86L382.84 453.85L382.6 453.84L382.35 453.82L382.11 453.81L381.87 453.79L381.64 453.78L381.4 453.76L381.17 453.74L380.94 453.72L380.72 453.7L380.49 453.69L380.27 453.67L380.05 453.65L379.84 453.62L379.62 453.6L379.41 453.58L379.2 453.56L378.99 453.53L378.79 453.51L378.56 453.48L378.34 453.45L378.13 453.43L377.91 453.4L377.7 453.37L377.49 453.34L377.28 453.31L377.08 453.28L376.88 453.25L376.68 453.22L376.48 453.18L376.29 453.15L376.1 453.12L375.91 453.08L375.72 453.05L375.54 453.02L375.36 452.98L375.18 452.94L375 452.91L374.83 452.87L374.66 452.83L374.49 452.79L374.32 452.76L374.15 452.72L373.99 452.68L373.83 452.63L373.67 452.59L373.52 452.55L373.36 452.51L373.21 452.47L373.06 452.42L372.91 452.38L372.76 452.33L372.62 452.29L372.48 452.24L372.33 452.19L372.19 452.14L372.06 452.09L371.92 452.04L371.79 451.99L371.63 451.93L371.47 451.87L371.32 451.81L371.16 451.75L371.01 451.68L370.86 451.62L370.72 451.55L370.57 451.48L370.43 451.42L370.29 451.35L370.15 451.28L370.01 451.21L369.88 451.14L369.74 451.06L369.61 450.99L369.48 450.92L369.36 450.84L369.23 450.77L369.11 450.69L368.99 450.61L368.87 450.54L368.75 450.46L368.64 450.38L368.52 450.3L368.41 450.21L368.3 450.13L368.19 450.05L368.09 449.96L367.98 449.88L367.88 449.79L367.78 449.7L367.68 449.62L367.58 449.53L367.49 449.44L367.39 449.35L367.3 449.25L367.21 449.16L367.12 449.07L367.04 448.97L366.95 448.87L366.95 448.87L366.92 448.84L366.89 448.81L366.87 448.78L366.78 448.66L366.69 448.55L366.6 448.43L366.52 448.31L366.44 448.2L366.36 448.08L366.28 447.95L366.21 447.83L366.13 447.71L366.06 447.58L365.99 447.46L365.93 447.33L365.86 447.2L365.8 447.07L365.74 446.94L365.68 446.81L365.63 446.68L365.58 446.54L365.52 446.41L365.48 446.27L365.43 446.14L365.39 446L365.35 445.86L365.31 445.72L365.27 445.58L365.23 445.44L365.2 445.3L365.17 445.16L365.15 445.01L365.12 444.87L365.1 444.72L365.08 444.58L365.06 444.43L365.04 444.28L365.03 444.13L365.02 443.99L365.01 443.84L365 443.69L365 443.53L365 443.38L365 259.94L365 259.79L365 259.64Z" id="b3aClN7gTu"></path></defs><g><g><g><use xlink:href="#a1hbm3atXV" opacity="1" fill="#66addc" fill-opacity="1"></use><g><use xlink:href="#a1hbm3atXV" opacity="1" fill-opacity="0" stroke="#000000" stroke-width="1" stroke-opacity="0"></use></g></g><g><use xlink:href="#b3aClN7gTu" opacity="1" fill="#66addc" fill-opacity="1"></use><g><use xlink:href="#b3aClN7gTu" opacity="1" fill-opacity="0" stroke="#000000" stroke-width="1" stroke-opacity="0"></use></g></g></g></g></svg>