<?xml version="1.0" encoding="UTF-8" standalone="no"?>
<!DOCTYPE svg PUBLIC "-//W3C//DTD SVG 1.1//EN" "http://www.w3.org/Graphics/SVG/1.1/DTD/svg11.dtd">
<svg version="1.1" xmlns="http://www.w3.org/2000/svg" xmlns:xlink="http://www.w3.org/1999/xlink" preserveAspectRatio="xMidYMid meet" viewBox="0 0 640 640" width="640" height="640"><defs><path d="M477.51 256.42L477.79 256.42L478.08 256.42L478.36 256.42L478.64 256.42L478.91 256.43L479.19 256.43L479.46 256.44L479.73 256.44L479.99 256.45L480.26 256.46L480.52 256.46L480.78 256.47L481.04 256.48L481.29 256.49L481.54 256.5L481.79 256.51L482.04 256.52L482.29 256.53L482.53 256.54L482.77 256.55L483.01 256.56L483.24 256.58L483.48 256.59L483.71 256.6L483.93 256.62L484.16 256.63L484.38 256.65L484.6 256.67L484.82 256.68L485.04 256.7L485.25 256.72L485.46 256.74L485.67 256.76L485.87 256.78L486.07 256.8L486.27 256.82L486.47 256.84L486.67 256.86L486.89 256.89L487.11 256.91L487.32 256.94L487.53 256.97L487.74 256.99L487.95 257.02L488.15 257.05L488.35 257.07L488.55 257.1L488.74 257.13L488.93 257.16L489.12 257.19L489.3 257.21L489.48 257.24L489.66 257.27L489.83 257.3L490.01 257.33L490.18 257.36L490.34 257.39L490.51 257.42L490.67 257.45L490.83 257.48L490.99 257.51L491.14 257.54L491.3 257.58L491.45 257.61L491.59 257.64L491.74 257.68L491.88 257.71L492.02 257.74L492.16 257.78L492.3 257.81L492.43 257.85L492.57 257.88L492.7 257.92L492.83 257.96L492.96 257.99L493.08 258.03L493.21 258.07L493.33 258.11L493.5 258.16L493.66 258.22L493.83 258.27L493.99 258.33L494.15 258.39L494.3 258.45L494.46 258.51L494.61 258.57L494.76 258.64L494.91 258.7L495.06 258.77L495.2 258.83L495.34 258.9L495.48 258.97L495.62 259.04L495.75 259.11L495.89 259.19L496.02 259.26L496.14 259.33L496.27 259.41L496.39 259.49L496.52 259.57L496.63 259.64L496.75 259.73L496.87 259.81L496.98 259.89L497.09 259.97L497.2 260.06L497.3 260.14L497.4 260.23L497.51 260.32L497.6 260.41L497.7 260.5L497.79 260.59L497.88 260.68L497.97 260.77L498.06 260.87L498.15 260.96L498.23 261.06L498.31 261.16L498.39 261.26L498.47 261.37L498.55 261.47L498.62 261.58L498.7 261.68L498.77 261.79L498.84 261.9L498.91 262.01L498.97 262.12L499.04 262.23L499.1 262.34L499.16 262.45L499.22 262.56L499.28 262.68L499.33 262.79L499.38 262.9L499.43 263.02L499.48 263.14L499.53 263.25L499.57 263.37L499.61 263.49L499.65 263.61L499.69 263.73L499.72 263.84L499.76 263.96L499.79 264.08L499.82 264.21L499.84 264.33L499.87 264.45L499.89 264.57L499.91 264.69L499.93 264.82L499.95 264.94L499.96 265.06L499.97 265.19L499.98 265.31L499.99 265.44L500 265.56L500 265.69L500 265.81L500 371.74L500 372.59L499.99 373.42L499.97 374.26L499.94 375.09L499.91 375.91L499.88 376.74L499.83 377.55L499.78 378.37L499.72 379.18L499.66 379.98L499.58 380.78L499.51 381.58L499.42 382.37L499.33 383.16L499.23 383.95L499.12 384.73L499.01 385.5L498.89 386.27L498.76 387.04L498.63 387.8L498.49 388.56L498.34 389.31L498.19 390.06L498.03 390.8L497.86 391.54L497.69 392.28L497.51 393.01L497.32 393.73L497.12 394.45L496.92 395.17L496.71 395.88L496.5 396.59L496.28 397.29L496.05 397.98L495.82 398.67L495.57 399.36L495.33 400.04L495.07 400.72L494.81 401.39L494.54 402.06L494.27 402.73L493.98 403.41L493.7 404.07L493.4 404.73L493.1 405.39L492.79 406.04L492.47 406.69L492.15 407.33L491.82 407.96L491.49 408.59L491.14 409.22L490.79 409.84L490.44 410.46L490.08 411.07L489.71 411.68L489.33 412.28L488.95 412.87L488.56 413.47L488.16 414.05L487.76 414.63L487.35 415.21L486.94 415.78L486.52 416.34L486.09 416.9L485.65 417.46L485.21 418.01L484.76 418.55L484.31 419.09L483.85 419.62L483.38 420.15L482.91 420.67L482.43 421.19L481.94 421.7L481.45 422.21L480.95 422.71L480.45 423.2L479.94 423.69L479.42 424.18L478.89 424.65L478.36 425.13L477.82 425.6L477.28 426.06L476.73 426.52L476.17 426.97L475.61 427.41L475.04 427.86L474.46 428.29L473.88 428.72L473.29 429.15L472.69 429.56L472.09 429.98L471.48 430.38L470.87 430.79L470.25 431.18L469.62 431.57L468.99 431.96L468.35 432.34L467.71 432.71L467.06 433.08L466.4 433.44L465.74 433.8L465.07 434.15L464.39 434.49L463.71 434.83L463.03 435.16L462.33 435.49L461.64 435.81L460.93 436.13L460.22 436.44L459.51 436.74L458.79 437.04L458.06 437.33L457.33 437.62L456.59 437.9L455.84 438.17L455.09 438.44L454.34 438.71L453.58 438.96L452.81 439.21L452.04 439.46L451.27 439.7L450.5 439.93L449.72 440.16L448.93 440.38L448.13 440.59L447.33 440.8L446.53 441L445.72 441.2L444.9 441.39L444.07 441.57L443.24 441.75L442.41 441.93L441.57 442.09L440.72 442.25L439.87 442.41L439.01 442.56L438.14 442.7L437.27 442.84L436.39 442.97L435.51 443.09L434.62 443.21L433.73 443.32L432.83 443.43L431.93 443.53L431.02 443.62L430.1 443.71L429.18 443.79L428.25 443.87L427.32 443.94L426.38 444L425.44 444.06L424.49 444.11L423.54 444.16L422.58 444.2L421.62 444.23L420.65 444.26L419.67 444.28L418.69 444.3L417.71 444.31L416.72 444.31L415.8 444.31L414.88 444.3L413.96 444.29L413.05 444.27L412.15 444.24L411.24 444.21L410.34 444.18L409.45 444.14L408.56 444.09L407.67 444.04L406.79 443.98L405.91 443.92L405.04 443.85L404.17 443.78L403.3 443.7L402.44 443.62L401.59 443.53L400.73 443.43L399.89 443.33L399.04 443.23L398.2 443.12L397.37 443L396.54 442.88L395.72 442.75L394.9 442.62L394.08 442.48L393.27 442.34L392.46 442.19L391.66 442.04L390.86 441.88L390.07 441.71L389.28 441.54L388.5 441.37L387.72 441.19L386.95 441L386.18 440.81L385.42 440.62L384.66 440.42L383.91 440.21L383.16 440L382.4 439.77L381.65 439.54L380.9 439.31L380.16 439.07L379.43 438.82L378.7 438.56L377.98 438.31L377.26 438.04L376.54 437.77L375.84 437.49L375.14 437.21L374.44 436.92L373.75 436.63L373.07 436.33L372.39 436.02L371.71 435.71L371.05 435.4L370.39 435.07L369.73 434.75L369.08 434.41L368.44 434.07L367.8 433.73L367.17 433.38L366.54 433.02L365.92 432.66L365.31 432.29L364.7 431.92L364.1 431.54L363.5 431.16L362.91 430.77L362.33 430.37L361.75 429.97L361.18 429.56L360.61 429.15L360.05 428.73L359.5 428.31L358.95 427.88L358.41 427.45L357.88 427.01L357.35 426.57L356.82 426.11L356.31 425.65L355.79 425.19L355.29 424.72L354.78 424.24L354.29 423.76L353.8 423.27L353.32 422.78L352.84 422.28L352.37 421.78L351.91 421.27L351.45 420.75L351 420.23L350.55 419.7L350.11 419.17L349.68 418.63L349.25 418.08L348.83 417.54L348.42 416.98L348.01 416.42L347.61 415.85L347.21 415.28L346.82 414.7L346.44 414.12L346.06 413.53L345.69 412.94L345.33 412.34L344.97 411.74L344.62 411.13L344.27 410.51L343.93 409.89L343.6 409.27L343.28 408.64L342.96 408L342.64 407.36L342.34 406.71L342.04 406.06L341.75 405.4L341.46 404.74L341.18 404.08L340.91 403.41L340.64 402.74L340.39 402.06L340.14 401.37L339.89 400.69L339.65 399.99L339.42 399.29L339.2 398.58L338.98 397.87L338.77 397.16L338.57 396.43L338.37 395.71L338.18 394.97L338 394.23L337.83 393.49L337.66 392.74L337.5 391.99L337.34 391.23L337.19 390.46L337.05 389.69L336.92 388.92L336.79 388.13L336.67 387.35L336.55 386.56L336.44 385.76L336.34 384.96L336.25 384.16L336.16 383.34L336.08 382.53L336.01 381.71L335.95 380.88L335.89 380.05L335.84 379.22L335.79 378.38L335.75 377.53L335.72 376.68L335.7 375.83L335.68 374.97L335.67 374.1L335.66 373.23L335.66 265.81L335.67 265.69L335.67 265.56L335.67 265.44L335.68 265.31L335.69 265.19L335.7 265.06L335.72 264.94L335.73 264.82L335.75 264.69L335.77 264.57L335.8 264.45L335.82 264.33L335.85 264.21L335.88 264.08L335.91 263.96L335.94 263.84L335.98 263.72L336.01 263.61L336.05 263.49L336.1 263.37L336.14 263.25L336.19 263.14L336.23 263.02L336.28 262.9L336.34 262.79L336.39 262.68L336.45 262.56L336.5 262.45L336.56 262.34L336.63 262.23L336.69 262.12L336.76 262.01L336.83 261.9L336.9 261.79L336.97 261.68L337.04 261.57L337.12 261.47L337.2 261.36L337.28 261.26L337.36 261.16L337.44 261.06L337.52 260.96L337.61 260.86L337.7 260.77L337.79 260.67L337.88 260.58L337.98 260.49L338.07 260.4L338.17 260.31L338.28 260.22L338.38 260.13L338.49 260.04L338.6 259.96L338.71 259.87L338.82 259.79L338.94 259.71L339.06 259.63L339.18 259.55L339.3 259.47L339.43 259.39L339.56 259.32L339.69 259.24L339.82 259.17L339.95 259.1L340.09 259.02L340.23 258.95L340.37 258.88L340.52 258.82L340.66 258.75L340.81 258.68L340.96 258.62L341.12 258.56L341.27 258.49L341.43 258.43L341.59 258.37L341.75 258.32L341.92 258.26L342.09 258.2L342.26 258.15L342.43 258.09L342.55 258.06L342.68 258.02L342.81 257.98L342.94 257.94L343.07 257.91L343.2 257.87L343.34 257.84L343.48 257.8L343.62 257.77L343.76 257.73L343.9 257.7L344.05 257.67L344.2 257.63L344.35 257.6L344.5 257.57L344.66 257.54L344.81 257.51L344.97 257.48L345.14 257.45L345.3 257.41L345.47 257.38L345.64 257.36L345.81 257.33L345.99 257.3L346.17 257.27L346.35 257.24L346.53 257.21L346.72 257.18L346.91 257.15L347.1 257.13L347.3 257.1L347.5 257.07L347.7 257.05L347.91 257.02L348.12 256.99L348.33 256.97L348.54 256.94L348.76 256.91L348.99 256.89L349.21 256.86L349.41 256.84L349.6 256.82L349.8 256.8L350 256.78L350.21 256.76L350.42 256.74L350.63 256.72L350.84 256.7L351.06 256.68L351.28 256.67L351.5 256.65L351.73 256.63L351.96 256.62L352.19 256.6L352.42 256.59L352.66 256.58L352.9 256.56L353.14 256.55L353.38 256.54L353.63 256.53L353.88 256.52L354.13 256.51L354.39 256.5L354.65 256.49L354.91 256.48L355.17 256.47L355.44 256.46L355.71 256.46L355.98 256.45L356.25 256.44L356.53 256.44L356.81 256.43L357.09 256.43L357.38 256.42L357.67 256.42L357.96 256.42L358.25 256.42L358.54 256.42L358.84 256.41L359.14 256.41L359.43 256.41L359.72 256.42L360 256.42L360.29 256.42L360.57 256.42L360.85 256.42L361.12 256.43L361.4 256.43L361.67 256.44L361.94 256.44L362.21 256.45L362.47 256.46L362.73 256.46L362.99 256.47L363.25 256.48L363.5 256.49L363.76 256.5L364.01 256.51L364.25 256.52L364.5 256.53L364.74 256.54L364.98 256.55L365.22 256.56L365.46 256.58L365.69 256.59L365.92 256.6L366.15 256.62L366.37 256.63L366.6 256.65L366.82 256.67L367.03 256.68L367.25 256.7L367.46 256.72L367.67 256.74L367.88 256.76L368.08 256.78L368.29 256.8L368.49 256.82L368.68 256.84L368.88 256.86L369.1 256.89L369.32 256.91L369.54 256.94L369.75 256.97L369.96 256.99L370.17 257.02L370.37 257.04L370.57 257.07L370.77 257.1L370.96 257.13L371.15 257.15L371.34 257.18L371.53 257.21L371.71 257.24L371.89 257.27L372.07 257.3L372.24 257.33L372.41 257.36L372.58 257.39L372.75 257.42L372.91 257.45L373.07 257.48L373.23 257.51L373.39 257.54L373.54 257.57L373.69 257.61L373.84 257.64L373.99 257.67L374.13 257.71L374.27 257.74L374.41 257.77L374.55 257.81L374.69 257.84L374.82 257.88L374.96 257.92L375.09 257.95L375.22 257.99L375.34 258.03L375.47 258.07L375.59 258.11L375.75 258.16L375.9 258.21L376.06 258.26L376.21 258.32L376.36 258.37L376.51 258.43L376.65 258.48L376.8 258.54L376.94 258.6L377.08 258.66L377.22 258.72L377.36 258.78L377.5 258.85L377.63 258.91L377.76 258.98L377.9 259.04L378.02 259.11L378.15 259.18L378.28 259.25L378.4 259.32L378.52 259.39L378.64 259.46L378.76 259.54L378.88 259.61L378.99 259.69L379.1 259.77L379.21 259.84L379.32 259.92L379.43 260L379.53 260.08L379.64 260.16L379.74 260.25L379.84 260.33L379.94 260.41L380.03 260.5L380.13 260.59L380.22 260.67L380.31 260.76L380.4 260.85L380.48 260.94L380.49 260.95L380.51 260.97L380.53 261L380.55 261.02L380.56 261.03L380.65 261.13L380.74 261.24L380.83 261.35L380.91 261.45L380.99 261.56L381.07 261.67L381.15 261.78L381.22 261.89L381.29 262L381.36 262.11L381.43 262.22L381.5 262.34L381.56 262.45L381.62 262.57L381.68 262.69L381.74 262.8L381.79 262.92L381.85 263.04L381.9 263.16L381.94 263.28L381.99 263.4L382.03 263.52L382.07 263.65L382.11 263.77L382.15 263.89L382.18 264.02L382.21 264.14L382.24 264.27L382.27 264.39L382.3 264.52L382.32 264.65L382.34 264.77L382.36 264.9L382.37 265.03L382.38 265.16L382.4 265.29L382.4 265.42L382.41 265.55L382.41 265.68L382.41 265.81L382.41 301.47L382.41 301.62L382.4 301.77L382.38 301.92L382.36 302.07L382.33 302.21L382.3 302.35L382.26 302.49L382.21 302.63L382.21 302.63L382.21 317.06L382.41 317.99L382.21 318.91L382.21 333.34L382.26 333.48L382.3 333.62L382.33 333.76L382.36 333.91L382.38 334.05L382.4 334.2L382.41 334.35L382.41 334.5L382.41 370.16L382.42 370.65L382.42 371.14L382.43 371.62L382.44 372.1L382.46 372.58L382.47 373.05L382.5 373.53L382.52 373.99L382.55 374.46L382.58 374.92L382.61 375.38L382.65 375.84L382.69 376.29L382.74 376.74L382.79 377.18L382.84 377.63L382.89 378.07L382.95 378.5L383.01 378.94L383.07 379.37L383.14 379.79L383.21 380.22L383.29 380.64L383.36 381.05L383.44 381.47L383.53 381.88L383.61 382.28L383.7 382.69L383.8 383.09L383.89 383.48L383.99 383.88L384.1 384.27L384.2 384.65L384.31 385.03L384.43 385.41L384.54 385.79L384.66 386.16L384.78 386.53L384.91 386.89L385.04 387.26L385.16 387.6L385.3 387.94L385.43 388.28L385.56 388.62L385.7 388.95L385.84 389.29L385.99 389.61L386.13 389.94L386.28 390.26L386.43 390.58L386.59 390.89L386.75 391.2L386.91 391.51L387.07 391.82L387.23 392.12L387.4 392.42L387.57 392.72L387.74 393.01L387.92 393.3L388.1 393.59L388.28 393.87L388.46 394.15L388.65 394.43L388.84 394.7L389.03 394.97L389.22 395.24L389.42 395.5L389.62 395.76L389.82 396.02L390.02 396.27L390.23 396.52L390.44 396.77L390.65 397.01L390.86 397.25L391.08 397.49L391.3 397.73L391.52 397.96L391.74 398.18L391.97 398.41L392.2 398.63L392.43 398.85L392.67 399.07L392.91 399.29L393.15 399.5L393.4 399.72L393.64 399.93L393.89 400.13L394.14 400.34L394.4 400.54L394.65 400.74L394.91 400.93L395.17 401.12L395.43 401.31L395.69 401.5L395.96 401.68L396.23 401.87L396.5 402.04L396.77 402.22L397.05 402.39L397.33 402.56L397.6 402.73L397.89 402.89L398.17 403.05L398.46 403.21L398.74 403.36L399.03 403.52L399.32 403.67L399.62 403.81L399.92 403.96L400.21 404.1L400.51 404.23L400.82 404.37L401.12 404.5L401.43 404.63L401.73 404.75L402.05 404.88L402.36 405L402.67 405.11L402.99 405.23L403.31 405.34L403.64 405.45L403.98 405.56L404.31 405.67L404.65 405.77L405 405.87L405.34 405.97L405.69 406.06L406.04 406.16L406.39 406.25L406.74 406.33L407.1 406.42L407.46 406.5L407.82 406.58L408.18 406.65L408.54 406.73L408.91 406.8L409.28 406.86L409.65 406.93L410.02 406.99L410.39 407.05L410.77 407.1L411.15 407.16L411.53 407.21L411.91 407.26L412.3 407.3L412.68 407.34L413.07 407.38L413.46 407.42L413.85 407.45L414.25 407.48L414.64 407.51L415.04 407.53L415.44 407.55L415.84 407.57L416.24 407.59L416.65 407.6L417.06 407.61L417.46 407.62L417.88 407.62L418.29 407.62L418.7 407.62L419.12 407.62L419.53 407.61L419.94 407.6L420.35 407.59L420.76 407.57L421.17 407.55L421.57 407.53L421.97 407.5L422.37 407.47L422.76 407.44L423.16 407.41L423.55 407.37L423.94 407.33L424.33 407.29L424.71 407.24L425.1 407.19L425.48 407.14L425.85 407.09L426.23 407.03L426.61 406.97L426.98 406.91L427.35 406.84L427.71 406.77L428.08 406.7L428.44 406.62L428.8 406.55L429.16 406.46L429.51 406.38L429.87 406.29L430.22 406.2L430.56 406.11L430.91 406.02L431.25 405.92L431.59 405.82L431.93 405.71L432.27 405.6L432.6 405.49L432.93 405.38L433.26 405.26L433.58 405.15L433.9 405.03L434.21 404.91L434.53 404.79L434.84 404.66L435.15 404.53L435.45 404.4L435.75 404.27L436.05 404.13L436.35 404L436.64 403.86L436.93 403.71L437.22 403.57L437.51 403.42L437.79 403.27L438.07 403.12L438.35 402.96L438.63 402.8L438.9 402.64L439.17 402.48L439.44 402.31L439.71 402.14L439.97 401.97L440.23 401.8L440.49 401.62L440.75 401.44L441.01 401.26L441.26 401.07L441.51 400.89L441.76 400.69L442 400.5L442.24 400.31L442.49 400.11L442.72 399.91L442.96 399.7L443.2 399.49L443.43 399.28L443.66 399.07L443.89 398.86L444.11 398.64L444.34 398.41L444.56 398.18L444.78 397.95L444.99 397.71L445.2 397.48L445.42 397.24L445.62 396.99L445.83 396.75L446.03 396.5L446.23 396.25L446.43 396L446.63 395.74L446.82 395.48L447.01 395.22L447.2 394.96L447.38 394.7L447.57 394.43L447.75 394.16L447.92 393.89L448.1 393.61L448.27 393.34L448.44 393.06L448.61 392.78L448.77 392.49L448.93 392.21L449.09 391.92L449.25 391.63L449.4 391.33L449.56 391.04L449.71 390.74L449.85 390.44L449.99 390.14L450.14 389.83L450.27 389.53L450.41 389.22L450.54 388.91L450.67 388.59L450.8 388.28L450.92 387.96L451.05 387.64L451.17 387.3L451.29 386.96L451.41 386.62L451.52 386.28L451.63 385.93L451.74 385.58L451.84 385.22L451.94 384.87L452.04 384.51L452.14 384.15L452.23 383.79L452.32 383.42L452.41 383.05L452.49 382.68L452.57 382.31L452.65 381.93L452.72 381.56L452.79 381.18L452.86 380.79L452.92 380.41L452.98 380.02L453.04 379.63L453.1 379.24L453.15 378.84L453.2 378.44L453.24 378.04L453.29 377.64L453.33 377.24L453.36 376.83L453.4 376.42L453.43 376.01L453.45 375.6L453.48 375.18L453.5 374.76L453.51 374.34L453.53 373.92L453.54 373.5L453.55 373.07L453.55 372.64L453.55 372.21L453.55 265.81L453.55 265.69L453.56 265.56L453.56 265.44L453.57 265.31L453.58 265.19L453.59 265.06L453.61 264.94L453.62 264.82L453.64 264.69L453.66 264.57L453.69 264.45L453.71 264.33L453.74 264.21L453.77 264.09L453.8 263.96L453.83 263.85L453.87 263.73L453.9 263.61L453.94 263.49L453.98 263.37L454.03 263.25L454.07 263.14L454.12 263.02L454.17 262.91L454.22 262.79L454.28 262.68L454.33 262.56L454.39 262.45L454.45 262.34L454.51 262.23L454.58 262.12L454.64 262.01L454.71 261.9L454.78 261.79L454.86 261.68L454.93 261.58L455.01 261.47L455.08 261.37L455.16 261.26L455.25 261.16L455.33 261.06L455.41 260.97L455.49 260.87L455.58 260.78L455.67 260.68L455.76 260.59L455.85 260.5L455.95 260.41L456.05 260.32L456.15 260.23L456.25 260.14L456.36 260.06L456.46 259.97L456.57 259.89L456.69 259.81L456.8 259.73L456.92 259.65L457.04 259.57L457.16 259.49L457.28 259.41L457.41 259.33L457.54 259.26L457.67 259.19L457.8 259.11L457.93 259.04L458.07 258.97L458.21 258.9L458.35 258.83L458.5 258.77L458.64 258.7L458.79 258.64L458.94 258.57L459.09 258.51L459.25 258.45L459.41 258.39L459.57 258.33L459.73 258.27L459.89 258.22L460.06 258.16L460.23 258.11L460.35 258.07L460.47 258.03L460.6 257.99L460.73 257.95L460.86 257.92L460.99 257.88L461.13 257.85L461.27 257.81L461.41 257.77L461.55 257.74L461.69 257.71L461.84 257.67L461.98 257.64L462.14 257.61L462.29 257.57L462.44 257.54L462.6 257.51L462.76 257.48L462.93 257.45L463.09 257.42L463.26 257.39L463.43 257.36L463.61 257.33L463.79 257.3L463.97 257.27L464.15 257.24L464.34 257.21L464.53 257.18L464.72 257.15L464.92 257.13L465.11 257.1L465.32 257.07L465.52 257.04L465.73 257.02L465.94 256.99L466.16 256.96L466.38 256.94L466.6 256.91L466.83 256.89L467.06 256.86L467.26 256.84L467.46 256.82L467.67 256.8L467.88 256.78L468.09 256.76L468.3 256.74L468.52 256.72L468.74 256.7L468.96 256.68L469.18 256.67L469.41 256.65L469.64 256.63L469.87 256.62L470.1 256.6L470.33 256.59L470.57 256.58L470.81 256.56L471.05 256.55L471.3 256.54L471.54 256.53L471.79 256.52L472.04 256.51L472.29 256.5L472.55 256.49L472.81 256.48L473.07 256.47L473.33 256.46L473.59 256.45L473.86 256.45L474.13 256.44L474.4 256.44L474.67 256.43L474.94 256.43L475.22 256.42L475.5 256.42L475.78 256.42L476.07 256.42L476.35 256.42L476.64 256.41L476.93 256.41L477.22 256.41L477.51 256.42ZM226.53 195L227.02 195L227.51 195L227.99 195.01L228.48 195.01L228.95 195.01L229.42 195.02L229.89 195.02L230.36 195.02L230.81 195.03L231.27 195.04L231.72 195.04L232.17 195.05L232.61 195.05L233.05 195.06L233.48 195.07L233.91 195.08L234.33 195.09L234.75 195.1L235.17 195.11L235.58 195.12L235.98 195.13L236.39 195.14L236.78 195.15L237.18 195.16L237.56 195.18L237.95 195.19L238.33 195.2L238.7 195.22L239.07 195.23L239.44 195.25L239.8 195.26L240.15 195.28L240.51 195.3L240.85 195.31L241.19 195.33L241.53 195.35L241.86 195.37L242.19 195.39L242.47 195.4L242.75 195.42L243.03 195.44L243.31 195.45L243.6 195.47L243.88 195.49L244.16 195.51L244.45 195.53L244.73 195.55L245.02 195.57L245.3 195.59L245.59 195.6L245.88 195.62L246.17 195.65L246.46 195.67L246.75 195.69L247.04 195.71L247.33 195.73L247.63 195.75L247.92 195.77L248.22 195.8L248.51 195.82L248.81 195.84L249.11 195.86L249.41 195.89L249.71 195.91L250.01 195.94L250.31 195.96L250.62 195.99L250.92 196.01L251.23 196.04L251.54 196.06L251.85 196.09L252.16 196.11L252.47 196.14L252.78 196.17L253.1 196.2L253.41 196.22L253.73 196.25L254.05 196.28L254.05 196.28L254.08 196.28L254.1 196.28L254.14 196.29L254.15 196.29L254.18 196.29L254.21 196.3L254.24 196.3L254.27 196.3L254.3 196.31L255.09 196.42L255.88 196.53L256.66 196.65L257.45 196.77L258.22 196.9L259 197.03L259.77 197.16L260.53 197.3L261.29 197.44L262.05 197.59L262.81 197.74L263.56 197.89L264.3 198.05L265.05 198.21L265.79 198.37L266.52 198.54L267.25 198.71L267.98 198.89L268.7 199.07L269.42 199.25L270.14 199.44L270.85 199.63L271.55 199.83L272.26 200.02L272.96 200.23L273.65 200.43L274.34 200.64L275.03 200.85L275.71 201.07L276.39 201.29L277.06 201.52L277.73 201.75L278.39 201.98L279.05 202.21L279.71 202.45L280.36 202.7L281 202.94L281.65 203.19L282.28 203.45L282.92 203.7L283.56 203.97L284.2 204.24L284.84 204.51L285.48 204.79L286.1 205.07L286.73 205.35L287.35 205.65L287.96 205.94L288.57 206.24L289.18 206.54L289.78 206.85L290.38 207.17L290.97 207.48L291.56 207.81L292.14 208.13L292.72 208.46L293.3 208.8L293.87 209.14L294.43 209.48L294.99 209.83L295.55 210.18L296.1 210.54L296.64 210.9L297.18 211.27L297.72 211.64L298.25 212.01L298.78 212.39L299.3 212.77L299.82 213.16L300.33 213.55L300.83 213.94L301.34 214.34L301.83 214.74L302.32 215.15L302.81 215.56L303.29 215.98L303.77 216.4L304.24 216.82L304.7 217.25L305.17 217.68L305.62 218.12L306.08 218.56L306.52 219.01L306.97 219.46L307.4 219.91L307.84 220.37L308.26 220.83L308.68 221.3L309.1 221.77L309.51 222.25L309.91 222.73L310.31 223.21L310.71 223.7L311.1 224.19L311.48 224.68L311.86 225.18L312.23 225.68L312.6 226.19L312.96 226.7L313.32 227.22L313.67 227.73L314.01 228.26L314.35 228.78L314.69 229.31L315.02 229.85L315.34 230.38L315.66 230.92L315.97 231.47L316.28 232.02L316.58 232.57L316.87 233.12L317.16 233.68L317.45 234.25L317.73 234.81L318 235.38L318.27 235.96L318.53 236.53L318.78 237.12L319.03 237.7L319.28 238.29L319.51 238.87L319.74 239.46L319.97 240.06L320.19 240.66L320.4 241.26L320.61 241.87L320.81 242.48L321 243.1L321.19 243.73L321.37 244.35L321.55 244.98L321.72 245.62L321.88 246.26L322.04 246.91L322.2 247.56L322.34 248.21L322.48 248.87L322.62 249.54L322.75 250.2L322.87 250.88L322.99 251.55L323.1 252.23L323.21 252.92L323.31 253.61L323.4 254.3L323.49 255L323.57 255.7L323.64 256.41L323.71 257.12L323.78 257.83L323.83 258.55L323.88 259.27L323.93 260L323.97 260.73L324 261.47L324.03 262.21L324.05 262.95L324.07 263.7L324.07 264.45L324.08 265.2L324.08 265.83L324.07 266.46L324.06 267.08L324.04 267.71L324.02 268.33L324 268.95L323.97 269.56L323.94 270.17L323.9 270.79L323.86 271.39L323.82 272L323.77 272.6L323.71 273.2L323.66 273.8L323.59 274.4L323.53 274.99L323.46 275.58L323.38 276.17L323.3 276.75L323.22 277.34L323.13 277.92L323.04 278.49L322.94 279.07L322.84 279.64L322.74 280.21L322.63 280.77L322.52 281.34L322.4 281.9L322.28 282.45L322.15 283.01L322.02 283.56L321.89 284.11L321.75 284.65L321.61 285.2L321.46 285.74L321.31 286.27L321.15 286.81L320.99 287.34L320.83 287.87L320.66 288.39L320.48 288.94L320.29 289.48L320.1 290.02L319.9 290.55L319.71 291.08L319.5 291.61L319.3 292.13L319.09 292.65L318.88 293.16L318.66 293.68L318.44 294.18L318.22 294.69L317.99 295.19L317.76 295.69L317.52 296.18L317.28 296.67L317.04 297.16L316.79 297.65L316.54 298.13L316.28 298.6L316.02 299.08L315.76 299.55L315.49 300.02L315.22 300.48L314.95 300.94L314.67 301.4L314.39 301.86L314.1 302.31L313.81 302.76L313.51 303.21L313.21 303.65L312.91 304.1L312.6 304.53L312.29 304.97L311.97 305.4L311.65 305.83L311.32 306.26L311 306.69L310.66 307.11L310.32 307.53L309.99 307.95L309.65 308.36L309.31 308.77L308.96 309.18L308.61 309.58L308.25 309.98L307.89 310.38L307.52 310.78L307.16 311.18L306.78 311.57L306.4 311.96L306.02 312.34L305.64 312.73L305.25 313.11L304.85 313.49L304.45 313.86L304.05 314.24L303.65 314.61L303.24 314.98L302.82 315.34L302.4 315.7L301.98 316.06L301.55 316.42L301.12 316.77L300.69 317.12L300.25 317.47L299.81 317.82L299.36 318.16L298.91 318.5L298.46 318.84L298 319.17L297.54 319.5L297.07 319.83L296.6 320.15L296.13 320.47L295.65 320.79L295.17 321.11L294.69 321.42L294.2 321.73L293.71 322.04L293.44 322.21L293.16 322.38L292.89 322.54L292.61 322.71L292.33 322.88L292.05 323.05L291.77 323.21L291.49 323.37L291.21 323.54L290.93 323.7L290.64 323.86L290.36 324.02L290.07 324.18L289.78 324.34L289.49 324.5L289.2 324.65L288.91 324.81L288.61 324.97L288.32 325.12L288.02 325.27L287.73 325.43L287.43 325.58L287.13 325.73L286.83 325.88L286.52 326.03L286.22 326.18L285.91 326.32L285.61 326.47L285.3 326.61L284.99 326.76L284.68 326.9L284.37 327.05L284.05 327.19L283.74 327.33L283.42 327.47L283.11 327.61L282.79 327.75L282.47 327.89L282.14 328.02L281.82 328.16L281.87 328.2L281.92 328.23L281.97 328.27L282.03 328.3L282.08 328.33L282.13 328.37L282.18 328.4L282.23 328.44L282.28 328.47L282.33 328.51L282.38 328.54L282.43 328.58L282.48 328.62L282.53 328.65L282.58 328.69L282.63 328.72L282.68 328.76L282.73 328.79L282.78 328.83L282.83 328.86L282.88 328.9L282.93 328.93L282.98 328.97L283.03 329.01L283.08 329.04L283.13 329.08L283.18 329.11L283.23 329.15L283.28 329.19L283.33 329.22L283.38 329.26L283.43 329.29L283.48 329.33L283.53 329.37L283.58 329.4L283.63 329.44L283.68 329.48L283.73 329.51L283.78 329.55L283.83 329.59L284.1 329.79L284.37 329.99L284.64 330.19L284.9 330.4L285.17 330.61L285.44 330.82L285.7 331.04L285.97 331.25L286.23 331.47L286.5 331.7L286.76 331.92L287.02 332.15L287.28 332.37L287.54 332.61L287.81 332.84L288.07 333.07L288.32 333.31L288.58 333.55L288.84 333.8L289.1 334.04L289.35 334.29L289.61 334.54L289.87 334.79L290.12 335.04L290.37 335.3L290.63 335.56L290.88 335.82L291.13 336.08L291.38 336.35L291.63 336.62L291.88 336.88L292.13 337.16L292.37 337.43L292.62 337.71L292.87 337.99L293.11 338.27L293.35 338.55L293.6 338.83L293.84 339.12L294.08 339.41L294.32 339.7L294.56 340L294.8 340.29L295.04 340.59L295.28 340.89L295.52 341.19L295.75 341.49L295.99 341.79L296.22 342.1L296.45 342.4L296.68 342.71L296.91 343.02L297.14 343.32L297.37 343.64L297.6 343.95L297.82 344.26L298.05 344.57L298.27 344.89L298.49 345.21L298.71 345.52L298.93 345.84L299.15 346.16L299.37 346.48L299.58 346.81L299.8 347.13L300.01 347.45L300.22 347.78L300.43 348.11L300.64 348.43L300.85 348.76L301.06 349.09L301.26 349.42L301.47 349.76L301.67 350.09L301.87 350.42L302.07 350.76L302.27 351.09L302.47 351.43L302.67 351.77L302.86 352.11L303.06 352.45L303.25 352.79L303.45 353.14L303.65 353.48L303.84 353.83L304.04 354.19L304.24 354.54L304.43 354.9L304.63 355.27L304.82 355.63L305.02 356L305.22 356.37L305.41 356.74L305.61 357.12L305.81 357.49L306 357.88L306.2 358.26L306.39 358.64L306.59 359.03L306.78 359.42L306.98 359.82L307.17 360.21L307.37 360.61L307.56 361.01L307.76 361.42L307.95 361.82L308.15 362.23L308.34 362.64L308.54 363.06L308.73 363.47L308.92 363.89L309.12 364.31L309.31 364.73L309.5 365.16L309.7 365.59L309.89 366.02L310.08 366.45L310.27 366.88L310.46 367.32L310.65 367.76L331.97 414.82L331.97 414.83L331.98 414.87L332 414.9L332.01 414.92L332.02 414.95L332.03 414.96L332.17 415.31L332.31 415.65L332.45 415.99L332.59 416.32L332.72 416.65L332.85 416.97L332.98 417.3L333.11 417.61L333.24 417.93L333.36 418.24L333.49 418.54L333.61 418.85L333.73 419.14L333.84 419.44L333.96 419.73L334.07 420.01L334.18 420.3L334.29 420.58L334.39 420.85L334.5 421.12L334.6 421.39L334.7 421.65L334.79 421.91L334.89 422.16L334.98 422.41L335.07 422.66L335.15 422.9L335.24 423.14L335.32 423.38L335.4 423.61L335.47 423.84L335.55 424.06L335.62 424.28L335.69 424.49L335.76 424.7L335.82 424.91L335.88 425.11L335.94 425.31L336 425.5L336.05 425.69L336.11 425.89L336.17 426.08L336.22 426.27L336.28 426.45L336.33 426.64L336.38 426.82L336.43 427L336.48 427.18L336.52 427.36L336.57 427.54L336.61 427.71L336.66 427.88L336.7 428.06L336.73 428.22L336.77 428.39L336.81 428.56L336.84 428.72L336.88 428.89L336.91 429.05L336.94 429.21L336.97 429.37L336.99 429.52L337.02 429.68L337.04 429.83L337.07 429.98L337.09 430.13L337.11 430.28L337.13 430.43L337.14 430.58L337.16 430.72L337.17 430.86L337.18 431L337.2 431.14L337.2 431.28L337.21 431.42L337.22 431.56L337.22 431.69L337.23 431.82L337.23 431.95L337.23 432.08L337.23 432.24L337.23 432.4L337.22 432.56L337.22 432.71L337.21 432.87L337.2 433.03L337.19 433.18L337.17 433.33L337.16 433.48L337.14 433.64L337.12 433.79L337.1 433.94L337.08 434.09L337.06 434.23L337.03 434.38L337.01 434.53L336.98 434.67L336.95 434.82L336.91 434.96L336.88 435.11L336.84 435.25L336.8 435.39L336.77 435.53L336.72 435.67L336.68 435.81L336.64 435.94L336.59 436.08L336.54 436.22L336.49 436.35L336.44 436.49L336.39 436.62L336.33 436.75L336.27 436.88L336.22 437.01L336.16 437.14L336.09 437.27L336.03 437.4L335.96 437.52L335.9 437.65L335.83 437.77L335.74 437.93L335.65 438.08L335.55 438.23L335.45 438.38L335.34 438.52L335.24 438.67L335.13 438.81L335.01 438.95L334.89 439.09L334.77 439.22L334.64 439.36L334.51 439.49L334.38 439.62L334.24 439.75L334.1 439.87L333.96 440L333.81 440.12L333.66 440.24L333.5 440.36L333.34 440.47L333.18 440.59L333.01 440.7L332.84 440.81L332.66 440.92L332.48 441.03L332.3 441.13L332.11 441.23L331.92 441.34L331.72 441.43L331.52 441.53L331.32 441.63L331.11 441.72L330.9 441.81L330.69 441.9L330.47 441.99L330.25 442.08L330.02 442.16L329.79 442.25L329.55 442.33L329.31 442.41L329.29 442.42L329.26 442.43L329.24 442.43L329.23 442.44L329.2 442.44L329.19 442.45L329.17 442.45L329.14 442.46L329.11 442.47L328.93 442.52L328.73 442.57L328.54 442.63L328.34 442.68L328.15 442.72L327.94 442.77L327.74 442.82L327.53 442.87L327.32 442.91L327.11 442.96L326.9 443L326.68 443.05L326.46 443.09L326.24 443.13L326.01 443.17L325.78 443.21L325.55 443.25L325.32 443.29L325.08 443.32L324.84 443.36L324.6 443.4L324.35 443.43L324.11 443.47L323.85 443.5L323.6 443.53L323.34 443.56L323.08 443.59L322.82 443.62L322.55 443.65L322.29 443.68L322.01 443.71L321.74 443.74L321.46 443.76L321.18 443.79L320.89 443.81L320.61 443.83L320.32 443.86L320.02 443.88L319.73 443.9L319.43 443.92L319.13 443.94L318.83 443.96L318.53 443.98L318.22 443.99L317.9 444.01L317.58 444.03L317.26 444.04L316.93 444.06L316.59 444.08L316.25 444.09L315.9 444.1L315.55 444.12L315.2 444.13L314.84 444.15L314.47 444.16L314.1 444.17L313.72 444.18L313.34 444.19L312.96 444.2L312.56 444.21L312.17 444.22L311.77 444.23L311.36 444.24L310.95 444.25L310.53 444.25L310.11 444.26L309.69 444.27L309.26 444.27L308.82 444.28L308.38 444.29L307.94 444.29L307.49 444.29L307.03 444.3L306.57 444.3L306.11 444.3L305.64 444.31L305.17 444.31L304.69 444.31L304.21 444.31L303.72 444.31L303.3 444.31L302.89 444.31L302.48 444.31L302.07 444.31L301.67 444.3L301.27 444.3L300.88 444.3L300.49 444.29L300.11 444.29L299.73 444.29L299.36 444.28L298.99 444.27L298.62 444.27L298.26 444.26L297.9 444.26L297.55 444.25L297.2 444.24L296.86 444.23L296.52 444.22L296.18 444.21L295.85 444.2L295.52 444.19L295.19 444.18L294.87 444.17L294.56 444.16L294.25 444.14L293.94 444.13L293.63 444.12L293.33 444.1L293.04 444.09L292.74 444.07L292.46 444.06L292.17 444.04L291.89 444.03L291.61 444.01L291.34 443.99L291.07 443.97L290.8 443.96L290.54 443.94L290.28 443.92L289.99 443.89L289.7 443.87L289.42 443.84L289.14 443.82L288.86 443.79L288.59 443.76L288.32 443.73L288.05 443.7L287.79 443.67L287.52 443.64L287.27 443.61L287.01 443.58L286.76 443.54L286.51 443.5L286.27 443.47L286.03 443.43L285.79 443.39L285.55 443.35L285.32 443.31L285.09 443.27L284.86 443.23L284.64 443.18L284.42 443.14L284.2 443.09L283.99 443.04L283.77 443L283.57 442.95L283.36 442.9L283.16 442.85L282.96 442.79L282.76 442.74L282.57 442.69L282.37 442.63L282.19 442.57L282 442.52L281.82 442.46L281.64 442.4L281.46 442.34L281.28 442.28L281.11 442.21L280.9 442.13L280.69 442.05L280.48 441.97L280.27 441.88L280.07 441.79L279.87 441.71L279.67 441.62L279.48 441.53L279.29 441.44L279.1 441.34L278.92 441.25L278.73 441.15L278.55 441.06L278.38 440.96L278.21 440.86L278.04 440.76L277.87 440.66L277.7 440.55L277.54 440.45L277.39 440.34L277.23 440.23L277.08 440.13L276.93 440.01L276.78 439.9L276.64 439.79L276.49 439.67L276.36 439.56L276.22 439.44L276.09 439.32L275.96 439.2L275.83 439.08L275.7 438.95L275.58 438.83L275.46 438.7L275.35 438.57L275.23 438.44L275.12 438.31L275.01 438.18L274.91 438.05L274.8 437.91L274.79 437.89L274.78 437.87L274.76 437.85L274.74 437.82L274.74 437.82L274.72 437.8L274.71 437.78L274.7 437.76L274.69 437.75L274.61 437.64L274.54 437.53L274.47 437.42L274.4 437.31L274.33 437.2L274.26 437.09L274.19 436.98L274.12 436.87L274.05 436.76L273.99 436.65L273.92 436.53L273.85 436.42L273.79 436.31L273.72 436.19L273.66 436.08L273.59 435.96L273.53 435.85L273.47 435.73L273.41 435.61L273.35 435.5L273.29 435.38L273.23 435.26L273.17 435.14L273.11 435.02L273.05 434.9L272.99 434.78L272.94 434.66L272.88 434.54L272.83 434.42L272.77 434.29L272.72 434.17L272.67 434.05L272.61 433.92L272.56 433.8L272.51 433.68L272.46 433.55L272.41 433.42L272.36 433.3L272.31 433.17L272.26 433.05L249.61 379.81L249.4 379.36L249.2 378.9L248.99 378.46L248.79 378.01L248.58 377.57L248.38 377.13L248.18 376.69L247.98 376.26L247.77 375.83L247.57 375.4L247.37 374.97L247.17 374.55L246.97 374.14L246.78 373.72L246.58 373.31L246.38 372.9L246.18 372.5L245.99 372.1L245.79 371.7L245.6 371.3L245.4 370.91L245.21 370.52L245.01 370.14L244.82 369.76L244.63 369.38L244.44 369L244.25 368.63L244.06 368.26L243.87 367.9L243.68 367.54L243.49 367.18L243.31 366.83L243.12 366.48L242.93 366.13L242.75 365.78L242.57 365.44L242.38 365.11L242.2 364.77L242.02 364.44L241.84 364.12L241.66 363.8L241.49 363.49L241.31 363.18L241.13 362.87L240.95 362.57L240.77 362.26L240.59 361.96L240.41 361.67L240.23 361.37L240.04 361.08L239.85 360.79L239.67 360.5L239.48 360.21L239.29 359.93L239.1 359.65L238.91 359.37L238.71 359.1L238.52 358.82L238.32 358.55L238.13 358.28L237.93 358.02L237.73 357.75L237.53 357.49L237.33 357.24L237.13 356.98L236.93 356.73L236.72 356.48L236.52 356.23L236.31 355.99L236.1 355.74L235.9 355.5L235.69 355.27L235.48 355.03L235.26 354.8L235.05 354.57L234.84 354.34L234.62 354.12L234.41 353.9L234.19 353.68L233.97 353.46L233.78 353.27L233.58 353.08L233.38 352.89L233.17 352.7L232.97 352.52L232.76 352.34L232.55 352.16L232.34 351.98L232.13 351.81L231.92 351.64L231.7 351.47L231.49 351.3L231.27 351.13L231.05 350.97L230.83 350.81L230.6 350.65L230.38 350.49L230.15 350.34L229.92 350.19L229.69 350.04L229.45 349.89L229.22 349.74L228.98 349.6L228.74 349.46L228.5 349.32L228.26 349.18L228.01 349.05L227.76 348.92L227.51 348.79L227.26 348.66L227.01 348.53L226.75 348.41L226.5 348.28L226.24 348.16L225.97 348.05L225.71 347.93L225.44 347.82L225.17 347.7L224.9 347.59L224.63 347.48L224.36 347.39L224.1 347.29L223.83 347.2L223.56 347.1L223.28 347.01L223.01 346.93L222.73 346.84L222.44 346.76L222.16 346.68L221.87 346.61L221.58 346.53L221.29 346.46L221 346.39L220.7 346.32L220.4 346.26L220.1 346.2L219.8 346.14L219.49 346.08L219.18 346.03L218.87 345.97L218.56 345.92L218.24 345.88L217.92 345.83L217.6 345.79L217.28 345.75L216.95 345.71L216.63 345.68L216.3 345.65L215.97 345.62L215.63 345.59L215.3 345.57L214.96 345.55L214.62 345.53L214.27 345.51L213.93 345.5L213.58 345.48L213.23 345.48L212.88 345.47L212.53 345.46L212.17 345.46L201.61 345.46L201.61 431.4L201.31 431.4L201.31 431.71L201.31 431.89L201.3 432.06L201.29 432.24L201.28 432.42L201.27 432.6L201.25 432.77L201.23 432.95L201.21 433.12L201.18 433.29L201.15 433.47L201.12 433.64L201.08 433.81L201.04 433.98L201 434.15L200.95 434.31L200.91 434.48L200.85 434.65L200.8 434.81L200.74 434.97L200.68 435.13L200.62 435.3L200.55 435.46L200.48 435.61L200.41 435.77L200.33 435.93L200.25 436.08L200.17 436.24L200.09 436.39L200 436.54L199.91 436.69L199.82 436.84L199.72 436.98L199.62 437.13L199.52 437.27L199.41 437.42L199.3 437.56L199.19 437.7L199.08 437.83L198.96 437.97L198.84 438.11L198.73 438.23L198.62 438.36L198.5 438.48L198.38 438.6L198.26 438.72L198.13 438.84L198.01 438.96L197.88 439.07L197.74 439.19L197.61 439.3L197.47 439.41L197.33 439.53L197.19 439.63L197.04 439.74L196.9 439.85L196.74 439.95L196.59 440.06L196.44 440.16L196.28 440.26L196.12 440.36L195.96 440.46L195.79 440.55L195.62 440.65L195.45 440.74L195.28 440.83L195.1 440.92L194.93 441.01L194.75 441.1L194.56 441.18L194.38 441.27L194.19 441.35L194 441.43L193.81 441.51L193.61 441.59L193.42 441.67L193.22 441.74L193.01 441.82L192.81 441.89L192.6 441.96L192.39 442.03L192.36 442.04L192.33 442.05L192.31 442.06L192.28 442.07L192.25 442.07L192.24 442.08L192.07 442.13L191.89 442.18L191.71 442.23L191.53 442.28L191.34 442.33L191.16 442.38L190.97 442.42L190.78 442.47L190.58 442.52L190.39 442.57L190.19 442.61L189.99 442.66L189.79 442.7L189.59 442.75L189.38 442.79L189.17 442.83L188.96 442.88L188.75 442.92L188.53 442.96L188.32 443L188.1 443.04L187.88 443.08L187.66 443.12L187.43 443.16L187.21 443.2L186.98 443.24L186.75 443.27L186.51 443.31L186.28 443.35L186.04 443.38L185.8 443.42L185.56 443.45L185.32 443.49L185.08 443.52L184.83 443.55L184.58 443.58L184.33 443.62L184.08 443.65L183.83 443.68L183.57 443.71L183.31 443.74L183.06 443.77L182.79 443.79L182.53 443.82L182.26 443.85L181.99 443.87L181.71 443.9L181.43 443.92L181.14 443.95L180.86 443.97L180.56 443.99L180.27 444.01L179.97 444.03L179.67 444.05L179.36 444.07L179.05 444.09L178.74 444.11L178.42 444.13L178.1 444.14L177.78 444.16L177.45 444.17L177.12 444.19L176.79 444.2L176.45 444.21L176.11 444.22L175.76 444.24L175.42 444.25L175.06 444.25L174.71 444.26L174.35 444.27L173.99 444.28L173.63 444.29L173.26 444.29L172.89 444.3L172.51 444.3L172.13 444.3L171.75 444.31L171.37 444.31L170.98 444.31L170.59 444.31L170.21 444.31L169.83 444.31L169.45 444.31L169.08 444.3L168.71 444.3L168.34 444.3L167.98 444.29L167.62 444.29L167.26 444.28L166.9 444.27L166.55 444.26L166.2 444.26L165.85 444.25L165.51 444.24L165.17 444.22L164.83 444.21L164.5 444.2L164.16 444.19L163.83 444.17L163.51 444.16L163.18 444.14L162.86 444.13L162.55 444.11L162.23 444.09L161.92 444.07L161.61 444.05L161.31 444.04L161 444.01L160.7 443.99L160.41 443.97L160.11 443.95L159.82 443.92L159.54 443.9L159.25 443.88L158.97 443.85L158.7 443.82L158.42 443.8L158.15 443.77L157.88 443.74L157.62 443.71L157.36 443.68L157.1 443.65L156.85 443.62L156.6 443.59L156.34 443.55L156.1 443.52L155.85 443.49L155.6 443.45L155.36 443.42L155.12 443.39L154.88 443.35L154.64 443.31L154.41 443.28L154.18 443.24L153.95 443.2L153.72 443.16L153.49 443.13L153.27 443.09L153.04 443.05L152.82 443.01L152.61 442.96L152.39 442.92L152.18 442.88L151.96 442.84L151.75 442.79L151.55 442.75L151.34 442.71L151.14 442.66L150.94 442.62L150.74 442.57L150.54 442.52L150.35 442.48L150.15 442.43L149.96 442.38L149.77 442.33L149.59 442.28L149.4 442.23L149.22 442.18L149.04 442.13L148.87 442.08L148.83 442.07L148.81 442.06L148.79 442.05L148.77 442.05L148.75 442.04L148.73 442.04L148.71 442.03L148.49 441.96L148.28 441.88L148.06 441.81L147.85 441.73L147.64 441.65L147.44 441.57L147.24 441.49L147.04 441.4L146.84 441.32L146.65 441.23L146.45 441.14L146.27 441.05L146.08 440.96L145.9 440.87L145.72 440.78L145.54 440.68L145.37 440.58L145.2 440.48L145.03 440.38L144.87 440.28L144.71 440.18L144.55 440.07L144.39 439.97L144.24 439.86L144.09 439.75L143.94 439.64L143.8 439.53L143.66 439.41L143.52 439.3L143.39 439.18L143.26 439.07L143.13 438.95L143 438.83L142.88 438.7L142.76 438.58L142.64 438.45L142.53 438.33L142.42 438.2L142.31 438.07L142.21 437.94L142.1 437.8L142 437.66L141.9 437.52L141.8 437.38L141.7 437.24L141.6 437.1L141.51 436.95L141.42 436.8L141.34 436.66L141.25 436.51L141.17 436.36L141.09 436.21L141.02 436.06L140.95 435.91L140.87 435.76L140.81 435.6L140.74 435.45L140.68 435.29L140.62 435.14L140.56 434.98L140.51 434.82L140.46 434.66L140.41 434.5L140.36 434.34L140.32 434.18L140.28 434.02L140.24 433.86L140.2 433.7L140.17 433.53L140.14 433.37L140.12 433.21L140.09 433.04L140.07 432.88L140.05 432.71L140.04 432.54L140.02 432.38L140.01 432.21L140.01 432.04L140 431.88L140 431.71L140 215.15L140 214.64L140.02 214.13L140.03 213.63L140.06 213.14L140.1 212.66L140.14 212.18L140.19 211.7L140.25 211.24L140.31 210.78L140.39 210.32L140.47 209.87L140.56 209.43L140.66 209L140.76 208.57L140.87 208.15L140.99 207.73L141.12 207.33L141.26 206.92L141.4 206.53L141.55 206.14L141.71 205.76L141.87 205.38L142.05 205.01L142.23 204.65L142.42 204.3L142.61 203.95L142.82 203.6L143.03 203.27L143.25 202.94L143.48 202.62L143.71 202.3L143.95 201.99L144.2 201.69L144.46 201.4L144.73 201.11L145 200.83L145.28 200.55L145.57 200.28L145.86 200.02L146.17 199.77L146.46 199.53L146.75 199.31L147.05 199.08L147.35 198.87L147.66 198.65L147.97 198.45L148.28 198.25L148.59 198.06L148.91 197.87L149.23 197.69L149.56 197.51L149.88 197.34L150.22 197.18L150.55 197.02L150.89 196.87L151.23 196.72L151.57 196.58L151.92 196.45L152.26 196.32L152.62 196.2L152.97 196.08L153.33 195.97L153.69 195.87L154.06 195.77L154.42 195.67L154.8 195.59L155.17 195.51L155.55 195.43L155.92 195.36L156.31 195.3L156.69 195.24L157.08 195.19L157.47 195.15L157.87 195.11L158.26 195.08L158.66 195.05L159.07 195.03L159.47 195.01L159.88 195L160.29 195L225.53 195L226.03 195L226.53 195ZM201.31 299.51L222.27 299.51L222.78 299.5L223.29 299.5L223.79 299.49L224.29 299.48L224.79 299.47L225.28 299.45L225.76 299.44L226.24 299.42L226.72 299.39L227.2 299.37L227.67 299.34L228.13 299.3L228.6 299.27L229.06 299.23L229.51 299.19L229.96 299.15L230.41 299.1L230.85 299.05L231.29 299L231.73 298.94L232.16 298.88L232.59 298.82L233.02 298.76L233.44 298.69L233.86 298.62L234.27 298.55L234.68 298.48L235.09 298.4L235.49 298.32L235.9 298.23L236.29 298.15L236.69 298.06L237.08 297.96L237.47 297.87L237.85 297.77L238.23 297.67L238.61 297.56L238.99 297.46L239.36 297.35L239.73 297.23L239.78 297.22L239.8 297.21L240.16 297.1L240.51 297L240.87 296.88L241.21 296.77L241.56 296.65L241.9 296.54L242.24 296.41L242.57 296.29L242.9 296.17L243.23 296.04L243.56 295.91L243.88 295.78L244.2 295.65L244.51 295.51L244.82 295.38L245.13 295.24L245.44 295.1L245.74 294.95L246.04 294.81L246.33 294.66L246.63 294.51L246.92 294.36L247.2 294.2L247.49 294.04L247.77 293.88L248.05 293.72L248.32 293.56L248.6 293.39L248.86 293.22L249.13 293.05L249.39 292.88L249.66 292.7L249.91 292.52L250.17 292.34L250.42 292.16L250.67 291.98L250.92 291.79L251.16 291.6L251.4 291.41L251.64 291.21L251.65 291.21L251.67 291.19L251.68 291.18L251.9 291L252.12 290.81L252.34 290.63L252.55 290.44L252.76 290.25L252.97 290.06L253.17 289.86L253.38 289.67L253.58 289.47L253.78 289.27L253.97 289.07L254.16 288.86L254.35 288.65L254.54 288.44L254.72 288.23L254.9 288.02L255.08 287.8L255.26 287.59L255.43 287.37L255.6 287.14L255.77 286.92L255.94 286.69L256.1 286.47L256.26 286.24L256.41 286L256.57 285.77L256.72 285.53L256.87 285.3L257.01 285.06L257.16 284.81L257.3 284.57L257.44 284.32L257.57 284.07L257.7 283.82L257.83 283.57L257.96 283.32L258.08 283.06L258.2 282.8L258.32 282.55L258.43 282.28L258.55 282.01L258.66 281.74L258.77 281.47L258.88 281.19L258.98 280.91L259.08 280.63L259.18 280.35L259.27 280.07L259.37 279.79L259.45 279.5L259.54 279.21L259.62 278.92L259.7 278.63L259.78 278.34L259.86 278.04L259.93 277.75L260 277.45L260.06 277.15L260.13 276.85L260.19 276.55L260.24 276.24L260.3 275.93L260.35 275.63L260.4 275.32L260.44 275.01L260.49 274.7L260.53 274.38L260.56 274.07L260.6 273.75L260.63 273.43L260.65 273.11L260.68 272.79L260.7 272.47L260.72 272.14L260.74 271.82L260.75 271.49L260.76 271.16L260.77 270.83L260.77 270.5L260.77 270.17L260.77 269.65L260.76 269.14L260.75 268.63L260.73 268.13L260.7 267.63L260.67 267.13L260.63 266.64L260.58 266.16L260.53 265.68L260.47 265.2L260.41 264.73L260.34 264.26L260.27 263.79L260.19 263.34L260.1 262.88L260.01 262.43L259.91 261.98L259.8 261.54L259.69 261.11L259.57 260.67L259.45 260.25L259.32 259.82L259.19 259.4L259.05 258.99L258.9 258.58L258.75 258.18L258.59 257.78L258.43 257.38L258.26 256.99L258.08 256.61L257.9 256.22L257.71 255.85L257.52 255.48L257.32 255.11L257.11 254.75L256.9 254.39L256.69 254.04L256.46 253.69L256.23 253.35L256 253.01L255.76 252.68L255.52 252.36L255.27 252.04L255.01 251.72L254.74 251.42L254.47 251.11L254.18 250.81L253.89 250.51L253.59 250.22L253.28 249.94L252.97 249.66L252.65 249.38L252.31 249.11L251.97 248.84L251.63 248.58L251.27 248.32L250.91 248.07L250.54 247.82L250.16 247.57L249.77 247.33L249.38 247.1L248.98 246.87L248.57 246.65L248.15 246.43L247.73 246.21L247.29 246L246.85 245.8L246.4 245.59L245.95 245.4L245.48 245.21L245.01 245.02L244.53 244.84L244.05 244.66L243.55 244.49L243.05 244.32L242.54 244.16L242.02 244.01L241.5 243.85L240.97 243.71L240.43 243.56L240.27 243.52L240.11 243.49L239.94 243.45L239.78 243.41L239.61 243.38L239.44 243.34L239.27 243.3L239.1 243.27L238.93 243.23L238.75 243.2L238.57 243.16L238.39 243.13L238.21 243.09L238.02 243.06L237.83 243.02L237.64 242.99L237.45 242.96L237.25 242.92L237.06 242.89L236.86 242.86L236.65 242.83L236.45 242.79L236.24 242.76L236.03 242.73L235.82 242.7L235.6 242.67L235.39 242.64L235.17 242.6L234.94 242.57L234.72 242.54L234.49 242.51L234.25 242.48L234.02 242.45L233.78 242.42L233.54 242.39L233.3 242.36L233.05 242.33L232.8 242.3L232.55 242.27L232.29 242.24L232.05 242.22L231.81 242.19L231.57 242.17L231.32 242.14L231.06 242.12L230.8 242.1L230.54 242.07L230.27 242.05L230 242.03L229.72 242.01L229.43 241.99L229.14 241.97L228.85 241.95L228.55 241.94L228.25 241.92L227.94 241.9L227.63 241.89L227.31 241.87L226.99 241.86L226.66 241.84L226.33 241.83L225.99 241.82L225.65 241.81L225.31 241.8L224.96 241.79L224.6 241.78L224.24 241.77L223.88 241.76L223.51 241.75L223.14 241.74L222.76 241.74L222.37 241.73L221.99 241.73L221.6 241.72L221.2 241.72L220.8 241.72L220.39 241.71L219.98 241.71L219.57 241.71L219.15 241.71L201.31 241.71L201.31 299.51Z" id="d4szSeVrAA"></path></defs><g><g><g><use xlink:href="#d4szSeVrAA" opacity="1" fill="#d46200" fill-opacity="1"></use><g><use xlink:href="#d4szSeVrAA" opacity="1" fill-opacity="0" stroke="#000000" stroke-width="1" stroke-opacity="0"></use></g></g></g></g></svg>
